Playwrite-Th18LongFast.ufo
<glyph name="dollar" format="2">
  <advance width="1066"/>
  <unicode hex="0024"/>
  <outline>
    <contour>
      <point x="533" y="-19" type="curve" smooth="yes"/>
      <point x="801" y="-19"/>
      <point x="1008" y="185"/>
      <point x="1008" y="426" type="curve" smooth="yes"/>
      <point x="1008" y="619"/>
      <point x="861" y="714"/>
      <point x="716" y="804" type="curve" smooth="yes"/>
      <point x="571" y="894"/>
      <point x="474" y="970"/>
      <point x="474" y="1130" type="curve" smooth="yes"/>
      <point x="474" y="1323"/>
      <point x="633" y="1478"/>
      <point x="828" y="1478" type="curve" smooth="yes"/>
      <point x="991" y="1478"/>
      <point x="1076" y="1396"/>
      <point x="1161" y="1303" type="curve" smooth="yes"/>
      <point x="1171" y="1293"/>
      <point x="1180" y="1291"/>
      <point x="1188" y="1298" type="curve" smooth="yes"/>
      <point x="1196" y="1305"/>
      <point x="1200" y="1311"/>
      <point x="1191" y="1323" type="curve" smooth="yes"/>
      <point x="1093" y="1438"/>
      <point x="996" y="1515"/>
      <point x="828" y="1515" type="curve" smooth="yes"/>
      <point x="604" y="1515"/>
      <point x="434" y="1346"/>
      <point x="434" y="1126" type="curve" smooth="yes"/>
      <point x="434" y="944"/>
      <point x="565" y="856"/>
      <point x="685" y="776" type="curve" smooth="yes"/>
      <point x="855" y="669"/>
      <point x="968" y="596"/>
      <point x="968" y="426" type="curve" smooth="yes"/>
      <point x="968" y="205"/>
      <point x="778" y="19"/>
      <point x="533" y="19" type="curve" smooth="yes"/>
      <point x="349" y="19"/>
      <point x="229" y="121"/>
      <point x="160" y="223" type="curve" smooth="yes"/>
      <point x="156" y="228"/>
      <point x="150" y="235"/>
      <point x="136" y="225" type="curve" smooth="yes"/>
      <point x="125" y="218"/>
      <point x="126" y="210"/>
      <point x="131" y="201" type="curve" smooth="yes"/>
      <point x="173" y="136"/>
      <point x="295" y="-19"/>
    </contour>
    <contour>
      <point x="399" y="-126" type="curve" smooth="yes"/>
      <point x="413" y="-126"/>
      <point x="419" y="-122"/>
      <point x="423" y="-111" type="curve" smooth="yes"/>
      <point x="985" y="1621" type="line" smooth="yes"/>
      <point x="989" y="1633"/>
      <point x="984" y="1636"/>
      <point x="971" y="1636" type="curve" smooth="yes"/>
      <point x="958" y="1636"/>
      <point x="951" y="1633"/>
      <point x="948" y="1621" type="curve" smooth="yes"/>
      <point x="385" y="-111" type="line" smooth="yes"/>
      <point x="381" y="-122"/>
      <point x="385" y="-126"/>
    </contour>
  </outline>
</glyph>
<glyph name="ampersand" format="2">
  <advance width="1321"/>
  <unicode hex="0026"/>
  <outline>
    <contour>
      <point x="510" y="-19" type="curve" smooth="yes"/>
      <point x="676" y="-19"/>
      <point x="832" y="61"/>
      <point x="966" y="207" type="curve"/>
      <point x="1085" y="-5" type="line" smooth="yes"/>
      <point x="1090" y="-14"/>
      <point x="1100" y="-15"/>
      <point x="1111" y="-9" type="curve"/>
      <point x="1120" y="-2"/>
      <point x="1123" y="5"/>
      <point x="1118" y="14" type="curve" smooth="yes"/>
      <point x="993" y="238" type="line"/>
      <point x="1103" y="369"/>
      <point x="1197" y="546"/>
      <point x="1266" y="761" type="curve" smooth="yes"/>
      <point x="1270" y="771"/>
      <point x="1263" y="778"/>
      <point x="1250" y="778" type="curve" smooth="yes"/>
      <point x="1235" y="778"/>
      <point x="1230" y="774"/>
      <point x="1226" y="763" type="curve" smooth="yes"/>
      <point x="1161" y="564"/>
      <point x="1074" y="398"/>
      <point x="973" y="274" type="curve"/>
      <point x="668" y="819" type="line"/>
      <point x="905" y="923"/>
      <point x="1148" y="1014"/>
      <point x="1148" y="1274" type="curve" smooth="yes"/>
      <point x="1148" y="1420"/>
      <point x="1041" y="1515"/>
      <point x="910" y="1515" type="curve" smooth="yes"/>
      <point x="700" y="1515"/>
      <point x="549" y="1348"/>
      <point x="549" y="1115" type="curve" smooth="yes"/>
      <point x="549" y="995"/>
      <point x="582" y="901"/>
      <point x="616" y="833" type="curve"/>
      <point x="394" y="734"/>
      <point x="181" y="615"/>
      <point x="181" y="328" type="curve" smooth="yes"/>
      <point x="181" y="126"/>
      <point x="319" y="-19"/>
    </contour>
    <contour>
      <point x="515" y="19" type="curve" smooth="yes"/>
      <point x="345" y="19"/>
      <point x="221" y="149"/>
      <point x="221" y="328" type="curve" smooth="yes"/>
      <point x="221" y="594"/>
      <point x="419" y="708"/>
      <point x="632" y="803" type="curve"/>
      <point x="946" y="243" type="line"/>
      <point x="818" y="99"/>
      <point x="669" y="19"/>
    </contour>
    <contour>
      <point x="652.006" y="848.997" type="curve"/>
      <point x="617" y="918"/>
      <point x="586" y="1006"/>
      <point x="586" y="1114" type="curve" smooth="yes"/>
      <point x="586" y="1325"/>
      <point x="719" y="1478"/>
      <point x="901" y="1478" type="curve" smooth="yes"/>
      <point x="1025" y="1478"/>
      <point x="1111" y="1395"/>
      <point x="1111" y="1274" type="curve" smooth="yes"/>
      <point x="1111" y="1037"/>
      <point x="882" y="950"/>
    </contour>
  </outline>
</glyph>
<glyph name="quotesingle" format="2">
  <advance width="169"/>
  <unicode hex="0027"/>
  <outline>
    <contour>
      <point x="320" y="975" type="curve" smooth="yes"/>
      <point x="334" y="975"/>
      <point x="340" y="981"/>
      <point x="345" y="994" type="curve" smooth="yes"/>
      <point x="456" y="1301" type="line" smooth="yes"/>
      <point x="461" y="1315"/>
      <point x="455" y="1329"/>
      <point x="431" y="1329" type="curve" smooth="yes"/>
      <point x="410" y="1329"/>
      <point x="400" y="1318"/>
      <point x="396" y="1304" type="curve" smooth="yes"/>
      <point x="305" y="995" type="line" smooth="yes"/>
      <point x="302" y="984"/>
      <point x="305" y="975"/>
    </contour>
  </outline>
</glyph>
<glyph name="plus" format="2">
  <advance width="763"/>
  <unicode hex="002B"/>
  <outline>
    <contour>
      <point x="348" y="164" type="curve" smooth="yes"/>
      <point x="361" y="164"/>
      <point x="366" y="169"/>
      <point x="370" y="179" type="curve" smooth="yes"/>
      <point x="540" y="696" type="line" smooth="yes"/>
      <point x="544" y="708"/>
      <point x="538" y="711"/>
      <point x="525" y="711" type="curve" smooth="yes"/>
      <point x="511" y="711"/>
      <point x="506" y="709"/>
      <point x="503" y="696" type="curve" smooth="yes"/>
      <point x="333" y="179" type="line" smooth="yes"/>
      <point x="329" y="168"/>
      <point x="334" y="164"/>
    </contour>
    <component base="minus"/>
  </outline>
</glyph>
<glyph name="comma" format="2">
  <advance width="313"/>
  <unicode hex="002C"/>
  <outline>
    <contour>
      <point x="-12" y="-177" type="curve" smooth="yes"/>
      <point x="-5" y="-177"/>
      <point x="4" y="-170"/>
      <point x="12" y="-161" type="curve" smooth="yes"/>
      <point x="91" y="-74"/>
      <point x="117" y="15"/>
      <point x="117" y="50" type="curve" smooth="yes"/>
      <point x="117" y="64"/>
      <point x="109" y="71"/>
      <point x="91" y="71" type="curve" smooth="yes"/>
      <point x="73" y="71"/>
      <point x="63" y="63"/>
      <point x="60" y="46" type="curve" smooth="yes"/>
      <point x="42" y="-39"/>
      <point x="20" y="-75"/>
      <point x="-25" y="-142" type="curve" smooth="yes"/>
      <point x="-30" y="-149"/>
      <point x="-33" y="-152"/>
      <point x="-33" y="-156" type="curve" smooth="yes"/>
      <point x="-33" y="-165"/>
      <point x="-21" y="-177"/>
    </contour>
  </outline>
</glyph>
<glyph name="zero" format="2">
  <advance width="1181"/>
  <unicode hex="0030"/>
  <outline>
    <contour>
      <point x="549" y="-19" type="curve" smooth="yes"/>
      <point x="913" y="-19"/>
      <point x="1281" y="513"/>
      <point x="1281" y="1099" type="curve" smooth="yes"/>
      <point x="1281" y="1374"/>
      <point x="1168" y="1515"/>
      <point x="956" y="1515" type="curve" smooth="yes"/>
      <point x="584" y="1515"/>
      <point x="224" y="981"/>
      <point x="224" y="393" type="curve" smooth="yes"/>
      <point x="224" y="120"/>
      <point x="340" y="-19"/>
    </contour>
    <contour>
      <point x="550" y="19" type="curve" smooth="yes"/>
      <point x="365" y="19"/>
      <point x="265" y="145"/>
      <point x="265" y="393" type="curve" smooth="yes"/>
      <point x="265" y="971"/>
      <point x="614" y="1478"/>
      <point x="955" y="1478" type="curve" smooth="yes"/>
      <point x="1141" y="1478"/>
      <point x="1240" y="1350"/>
      <point x="1240" y="1099" type="curve" smooth="yes"/>
      <point x="1240" y="535"/>
      <point x="890" y="19"/>
    </contour>
  </outline>
</glyph>
<glyph name="three" format="2">
  <advance width="1126"/>
  <unicode hex="0033"/>
  <outline>
    <contour>
      <point x="540" y="-19" type="curve" smooth="yes"/>
      <point x="826" y="-19"/>
      <point x="1035" y="188"/>
      <point x="1035" y="454" type="curve" smooth="yes"/>
      <point x="1035" y="609"/>
      <point x="950" y="755"/>
      <point x="786" y="791" type="curve"/>
      <point x="1040" y="815"/>
      <point x="1174" y="1000"/>
      <point x="1174" y="1196" type="curve" smooth="yes"/>
      <point x="1174" y="1395"/>
      <point x="1041" y="1515"/>
      <point x="836" y="1515" type="curve" smooth="yes"/>
      <point x="708" y="1515"/>
      <point x="555" y="1453"/>
      <point x="434" y="1350" type="curve" smooth="yes"/>
      <point x="418" y="1336"/>
      <point x="419" y="1330"/>
      <point x="429" y="1320" type="curve" smooth="yes"/>
      <point x="436" y="1313"/>
      <point x="443" y="1310"/>
      <point x="458" y="1323" type="curve" smooth="yes"/>
      <point x="579" y="1419"/>
      <point x="723" y="1478"/>
      <point x="836" y="1478" type="curve" smooth="yes"/>
      <point x="1014" y="1478"/>
      <point x="1133" y="1371"/>
      <point x="1133" y="1196" type="curve" smooth="yes"/>
      <point x="1133" y="959"/>
      <point x="936" y="813"/>
      <point x="681" y="813" type="curve" smooth="yes"/>
      <point x="560" y="813" type="line" smooth="yes"/>
      <point x="551" y="813"/>
      <point x="543" y="808"/>
      <point x="540" y="795" type="curve" smooth="yes"/>
      <point x="538" y="783"/>
      <point x="544" y="778"/>
      <point x="550" y="778" type="curve" smooth="yes"/>
      <point x="661" y="778" type="line" smooth="yes"/>
      <point x="868" y="778"/>
      <point x="994" y="639"/>
      <point x="994" y="454" type="curve" smooth="yes"/>
      <point x="994" y="201"/>
      <point x="790" y="19"/>
      <point x="540" y="19" type="curve" smooth="yes"/>
      <point x="325" y="19"/>
      <point x="195" y="129"/>
      <point x="155" y="280" type="curve" smooth="yes"/>
      <point x="151" y="293"/>
      <point x="148" y="299"/>
      <point x="131" y="294" type="curve" smooth="yes"/>
      <point x="119" y="290"/>
      <point x="116" y="283"/>
      <point x="120" y="268" type="curve" smooth="yes"/>
      <point x="165" y="93"/>
      <point x="323" y="-19"/>
    </contour>
  </outline>
</glyph>
<glyph name="five" format="2">
  <advance width="1126"/>
  <unicode hex="0035"/>
  <outline>
    <contour>
      <point x="560" y="-19" type="curve" smooth="yes"/>
      <point x="845" y="-19"/>
      <point x="1079" y="191"/>
      <point x="1079" y="540" type="curve" smooth="yes"/>
      <point x="1079" y="774"/>
      <point x="945" y="906"/>
      <point x="740" y="906" type="curve" smooth="yes"/>
      <point x="596" y="906"/>
      <point x="455" y="825"/>
      <point x="368" y="744" type="curve"/>
      <point x="611" y="1453" type="line"/>
      <point x="1270" y="1453" type="line" smooth="yes"/>
      <point x="1283" y="1453"/>
      <point x="1289" y="1463"/>
      <point x="1289" y="1476" type="curve" smooth="yes"/>
      <point x="1289" y="1484"/>
      <point x="1285" y="1488"/>
      <point x="1279" y="1488" type="curve" smooth="yes"/>
      <point x="603" y="1488" type="line" smooth="yes"/>
      <point x="589" y="1488"/>
      <point x="583" y="1484"/>
      <point x="579" y="1473" type="curve" smooth="yes"/>
      <point x="311" y="691" type="line" smooth="yes"/>
      <point x="306" y="676"/>
      <point x="329" y="666"/>
      <point x="343" y="679" type="curve" smooth="yes"/>
      <point x="454" y="783"/>
      <point x="593" y="869"/>
      <point x="740" y="869" type="curve" smooth="yes"/>
      <point x="923" y="869"/>
      <point x="1038" y="749"/>
      <point x="1038" y="540" type="curve" smooth="yes"/>
      <point x="1038" y="219"/>
      <point x="824" y="19"/>
      <point x="560" y="19" type="curve" smooth="yes"/>
      <point x="348" y="19"/>
      <point x="193" y="148"/>
      <point x="153" y="299" type="curve" smooth="yes"/>
      <point x="149" y="311"/>
      <point x="145" y="318"/>
      <point x="129" y="313" type="curve" smooth="yes"/>
      <point x="116" y="309"/>
      <point x="114" y="301"/>
      <point x="118" y="286" type="curve" smooth="yes"/>
      <point x="163" y="111"/>
      <point x="345" y="-19"/>
    </contour>
  </outline>
</glyph>
<glyph name="question" format="2">
  <advance width="846"/>
  <unicode hex="003F"/>
  <outline>
    <contour>
      <point x="314" y="216" type="curve" smooth="yes"/>
      <point x="328" y="216"/>
      <point x="334" y="220"/>
      <point x="338" y="231" type="curve" smooth="yes"/>
      <point x="473" y="645" type="line"/>
      <point x="843" y="738"/>
      <point x="1111" y="1005"/>
      <point x="1111" y="1281" type="curve" smooth="yes"/>
      <point x="1111" y="1426"/>
      <point x="1003" y="1515"/>
      <point x="825" y="1515" type="curve" smooth="yes"/>
      <point x="681" y="1515"/>
      <point x="508" y="1449"/>
      <point x="366" y="1348" type="curve" smooth="yes"/>
      <point x="358" y="1341"/>
      <point x="355" y="1333"/>
      <point x="360" y="1324" type="curve" smooth="yes"/>
      <point x="368" y="1311"/>
      <point x="376" y="1310"/>
      <point x="385" y="1316" type="curve" smooth="yes"/>
      <point x="519" y="1413"/>
      <point x="681" y="1478"/>
      <point x="820" y="1478" type="curve" smooth="yes"/>
      <point x="975" y="1478"/>
      <point x="1070" y="1404"/>
      <point x="1070" y="1281" type="curve" smooth="yes"/>
      <point x="1070" y="1021"/>
      <point x="814" y="769"/>
      <point x="459" y="680" type="curve" smooth="yes"/>
      <point x="450" y="678"/>
      <point x="444" y="675"/>
      <point x="440" y="663" type="curve" smooth="yes"/>
      <point x="299" y="231" type="line" smooth="yes"/>
      <point x="295" y="220"/>
      <point x="300" y="216"/>
    </contour>
    <contour>
      <point x="246" y="-14" type="curve" smooth="yes"/>
      <point x="276" y="-14"/>
      <point x="298" y="11"/>
      <point x="298" y="46" type="curve" smooth="yes"/>
      <point x="298" y="65"/>
      <point x="284" y="76"/>
      <point x="261" y="76" type="curve" smooth="yes"/>
      <point x="231" y="76"/>
      <point x="210" y="51"/>
      <point x="210" y="16" type="curve" smooth="yes"/>
      <point x="210" y="-2"/>
      <point x="224" y="-14"/>
    </contour>
  </outline>
</glyph>
<glyph name="at" format="2">
  <advance width="958"/>
  <unicode hex="0040"/>
  <outline>
    <contour>
      <point x="286" y="168" type="curve" smooth="yes"/>
      <point x="286" y="98"/>
      <point x="321" y="53"/>
      <point x="373" y="53" type="curve" smooth="yes"/>
      <point x="434" y="53"/>
      <point x="502" y="105"/>
      <point x="580" y="240" type="curve"/>
      <point x="569" y="208"/>
      <point x="561" y="184"/>
      <point x="559" y="176" type="curve" smooth="yes"/>
      <point x="530" y="88"/>
      <point x="567" y="53"/>
      <point x="623" y="53" type="curve" smooth="yes"/>
      <point x="779" y="53"/>
      <point x="915" y="198"/>
      <point x="915" y="370" type="curve" smooth="yes"/>
      <point x="915" y="564"/>
      <point x="764" y="684"/>
      <point x="555" y="684" type="curve" smooth="yes"/>
      <point x="254" y="684"/>
      <point x="68" y="445"/>
      <point x="68" y="176" type="curve" smooth="yes"/>
      <point x="68" y="-29"/>
      <point x="190" y="-174"/>
      <point x="398" y="-174" type="curve" smooth="yes"/>
      <point x="476" y="-174"/>
      <point x="544" y="-162"/>
      <point x="618" y="-136" type="curve" smooth="yes"/>
      <point x="628" y="-132"/>
      <point x="631" y="-127"/>
      <point x="628" y="-115" type="curve" smooth="yes"/>
      <point x="625" y="-105"/>
      <point x="618" y="-101"/>
      <point x="608" y="-105" type="curve" smooth="yes"/>
      <point x="536" y="-130"/>
      <point x="471" y="-141"/>
      <point x="403" y="-141" type="curve" smooth="yes"/>
      <point x="214" y="-141"/>
      <point x="101" y="-10"/>
      <point x="101" y="179" type="curve" smooth="yes"/>
      <point x="101" y="435"/>
      <point x="275" y="651"/>
      <point x="550" y="651" type="curve" smooth="yes"/>
      <point x="744" y="651"/>
      <point x="880" y="552"/>
      <point x="880" y="369" type="curve" smooth="yes"/>
      <point x="880" y="208"/>
      <point x="761" y="85"/>
      <point x="629" y="85" type="curve" smooth="yes"/>
      <point x="593" y="85"/>
      <point x="570" y="103"/>
      <point x="594" y="174" type="curve" smooth="yes"/>
      <point x="683" y="445" type="line" smooth="yes"/>
      <point x="685" y="454"/>
      <point x="684" y="463"/>
      <point x="668" y="463" type="curve" smooth="yes"/>
      <point x="656" y="463"/>
      <point x="651" y="460"/>
      <point x="648" y="450" type="curve" smooth="yes"/>
      <point x="643" y="436" type="line"/>
      <point x="615" y="454"/>
      <point x="578" y="466"/>
      <point x="541" y="466" type="curve" smooth="yes"/>
      <point x="383" y="466"/>
      <point x="286" y="285"/>
    </contour>
    <contour>
      <point x="323" y="169" type="curve" smooth="yes"/>
      <point x="323" y="271"/>
      <point x="406" y="434"/>
      <point x="536" y="434" type="curve" smooth="yes"/>
      <point x="564" y="434"/>
      <point x="594" y="429"/>
      <point x="633" y="406" type="curve"/>
      <point x="621" y="369" type="line"/>
      <point x="533" y="181"/>
      <point x="443" y="85"/>
      <point x="380" y="85" type="curve" smooth="yes"/>
      <point x="343" y="85"/>
      <point x="323" y="119"/>
    </contour>
  </outline>
</glyph>
<glyph name="C" format="2">
  <advance width="1200"/>
  <unicode hex="0043"/>
  <anchor x="592" y="0" name="bottom"/>
  <anchor x="1034" y="1424" name="top"/>
  <outline>
    <contour>
      <point x="635" y="-32" type="curve" smooth="yes"/>
      <point x="834" y="-32"/>
      <point x="1013" y="114"/>
      <point x="1180" y="330" type="curve" smooth="yes"/>
      <point x="1189" y="341"/>
      <point x="1188" y="351"/>
      <point x="1179" y="358" type="curve" smooth="yes"/>
      <point x="1168" y="366"/>
      <point x="1162" y="365"/>
      <point x="1154" y="355" type="curve" smooth="yes"/>
      <point x="1002" y="165"/>
      <point x="835" y="5"/>
      <point x="635" y="5" type="curve" smooth="yes"/>
      <point x="440" y="5"/>
      <point x="304" y="175"/>
      <point x="304" y="461" type="curve" smooth="yes"/>
      <point x="304" y="910"/>
      <point x="614" y="1478"/>
      <point x="1073" y="1478" type="curve" smooth="yes"/>
      <point x="1199" y="1478"/>
      <point x="1299" y="1429"/>
      <point x="1387" y="1328" type="curve" smooth="yes"/>
      <point x="1400" y="1313"/>
      <point x="1403" y="1309"/>
      <point x="1414" y="1314" type="curve" smooth="yes"/>
      <point x="1429" y="1321"/>
      <point x="1434" y="1330"/>
      <point x="1427" y="1341" type="curve" smooth="yes"/>
      <point x="1357" y="1446"/>
      <point x="1224" y="1515"/>
      <point x="1073" y="1515" type="curve" smooth="yes"/>
      <point x="592" y="1515"/>
      <point x="263" y="941"/>
      <point x="263" y="461" type="curve" smooth="yes"/>
      <point x="263" y="145"/>
      <point x="408" y="-32"/>
    </contour>
  </outline>
</glyph>
<glyph name="M" format="2">
  <advance width="1625"/>
  <unicode hex="004D"/>
  <anchor x="753" y="0" name="bottom"/>
  <anchor x="1179" y="1424" name="top"/>
  <outline>
    <contour>
      <point x="174" y="-14" type="curve" smooth="yes"/>
      <point x="190" y="-14"/>
      <point x="194" y="-10"/>
      <point x="198" y="1" type="curve" smooth="yes"/>
      <point x="665" y="1439" type="line"/>
      <point x="865" y="491" type="line" smooth="yes"/>
      <point x="868" y="479"/>
      <point x="874" y="476"/>
      <point x="885" y="476" type="curve" smooth="yes"/>
      <point x="895" y="476"/>
      <point x="900" y="478"/>
      <point x="913" y="491" type="curve" smooth="yes"/>
      <point x="1733" y="1439" type="line"/>
      <point x="1266" y="1" type="line" smooth="yes"/>
      <point x="1263" y="-10"/>
      <point x="1269" y="-14"/>
      <point x="1281" y="-14" type="curve" smooth="yes"/>
      <point x="1296" y="-14"/>
      <point x="1300" y="-10"/>
      <point x="1304" y="1" type="curve" smooth="yes"/>
      <point x="1790" y="1496" type="line" smooth="yes"/>
      <point x="1795" y="1510"/>
      <point x="1788" y="1515"/>
      <point x="1775" y="1515" type="curve" smooth="yes"/>
      <point x="1756" y="1515"/>
      <point x="1751" y="1513"/>
      <point x="1743" y="1503" type="curve" smooth="yes"/>
      <point x="894" y="521" type="line"/>
      <point x="686" y="1503" type="line" smooth="yes"/>
      <point x="684" y="1513"/>
      <point x="680" y="1515"/>
      <point x="670" y="1515" type="curve" smooth="yes"/>
      <point x="654" y="1515"/>
      <point x="650" y="1511"/>
      <point x="646" y="1500" type="curve" smooth="yes"/>
      <point x="160" y="1" type="line" smooth="yes"/>
      <point x="156" y="-10"/>
      <point x="163" y="-14"/>
    </contour>
  </outline>
</glyph>
<glyph name="O" format="2">
  <advance width="1432"/>
  <unicode hex="004F"/>
  <anchor x="635" y="0" name="bottom"/>
  <anchor x="878" y="744" name="center"/>
  <anchor x="1215" y="21" name="ogonek"/>
  <anchor x="1063" y="1424" name="top"/>
  <anchor x="1358" y="1424" name="topright"/>
  <outline>
    <contour>
      <point x="683" y="-19" type="curve" smooth="yes"/>
      <point x="1136" y="-19"/>
      <point x="1501" y="548"/>
      <point x="1501" y="1065" type="curve" smooth="yes"/>
      <point x="1501" y="1346"/>
      <point x="1350" y="1515"/>
      <point x="1086" y="1515" type="curve" smooth="yes"/>
      <point x="634" y="1515"/>
      <point x="266" y="999"/>
      <point x="266" y="463" type="curve" smooth="yes"/>
      <point x="266" y="161"/>
      <point x="419" y="-19"/>
    </contour>
    <contour>
      <point x="681" y="19" type="curve" smooth="yes"/>
      <point x="446" y="19"/>
      <point x="308" y="183"/>
      <point x="308" y="463" type="curve" smooth="yes"/>
      <point x="308" y="981"/>
      <point x="660" y="1478"/>
      <point x="1086" y="1478" type="curve" smooth="yes"/>
      <point x="1321" y="1478"/>
      <point x="1460" y="1325"/>
      <point x="1460" y="1065" type="curve" smooth="yes"/>
      <point x="1460" y="566"/>
      <point x="1108" y="19"/>
    </contour>
  </outline>
</glyph>
<glyph name="S" format="2">
  <advance width="1066"/>
  <unicode hex="0053"/>
  <anchor x="489" y="0" name="bottom"/>
  <anchor x="835" y="1424" name="top"/>
  <outline>
    <contour>
      <point x="533" y="-19" type="curve" smooth="yes"/>
      <point x="801" y="-19"/>
      <point x="1008" y="185"/>
      <point x="1008" y="426" type="curve" smooth="yes"/>
      <point x="1008" y="619"/>
      <point x="861" y="714"/>
      <point x="716" y="804" type="curve" smooth="yes"/>
      <point x="571" y="894"/>
      <point x="474" y="970"/>
      <point x="474" y="1130" type="curve" smooth="yes"/>
      <point x="474" y="1323"/>
      <point x="633" y="1478"/>
      <point x="828" y="1478" type="curve" smooth="yes"/>
      <point x="991" y="1478"/>
      <point x="1076" y="1396"/>
      <point x="1161" y="1303" type="curve" smooth="yes"/>
      <point x="1171" y="1293"/>
      <point x="1180" y="1291"/>
      <point x="1188" y="1298" type="curve" smooth="yes"/>
      <point x="1196" y="1305"/>
      <point x="1200" y="1311"/>
      <point x="1191" y="1323" type="curve" smooth="yes"/>
      <point x="1093" y="1438"/>
      <point x="996" y="1515"/>
      <point x="828" y="1515" type="curve" smooth="yes"/>
      <point x="604" y="1515"/>
      <point x="434" y="1346"/>
      <point x="434" y="1126" type="curve" smooth="yes"/>
      <point x="434" y="944"/>
      <point x="565" y="856"/>
      <point x="685" y="776" type="curve" smooth="yes"/>
      <point x="855" y="669"/>
      <point x="968" y="596"/>
      <point x="968" y="426" type="curve" smooth="yes"/>
      <point x="968" y="205"/>
      <point x="778" y="19"/>
      <point x="533" y="19" type="curve" smooth="yes"/>
      <point x="349" y="19"/>
      <point x="229" y="121"/>
      <point x="160" y="223" type="curve" smooth="yes"/>
      <point x="156" y="228"/>
      <point x="150" y="235"/>
      <point x="136" y="225" type="curve" smooth="yes"/>
      <point x="125" y="218"/>
      <point x="126" y="210"/>
      <point x="131" y="201" type="curve" smooth="yes"/>
      <point x="173" y="136"/>
      <point x="295" y="-19"/>
    </contour>
  </outline>
</glyph>
<glyph name="d" format="2">
  <advance width="629"/>
  <unicode hex="0064"/>
  <guideline x="350" y="96" angle="72"/>
  <anchor x="171" y="0" name="bottom"/>
  <anchor x="660" y="948" name="center"/>
  <anchor x="340" y="500" name="top"/>
  <anchor x="888" y="1494" name="topright"/>
  <outline>
    <contour>
      <point x="163" y="-17" type="curve" smooth="yes"/>
      <point x="248" y="-17"/>
      <point x="341" y="63"/>
      <point x="441" y="246" type="curve"/>
      <point x="425" y="195"/>
      <point x="408" y="143"/>
      <point x="391" y="91" type="curve" smooth="yes"/>
      <point x="369" y="21"/>
      <point x="388" y="-15"/>
      <point x="434" y="-15" type="curve" smooth="yes"/>
      <point x="495" y="-15"/>
      <point x="553" y="51"/>
      <point x="579" y="89" type="curve" smooth="yes"/>
      <point x="584" y="95"/>
      <point x="585" y="101"/>
      <point x="575" y="109" type="curve" smooth="yes"/>
      <point x="568" y="115"/>
      <point x="563" y="115"/>
      <point x="555" y="106" type="curve" smooth="yes"/>
      <point x="529" y="73"/>
      <point x="480" y="20"/>
      <point x="441" y="20" type="curve" smooth="yes"/>
      <point x="414" y="20"/>
      <point x="414" y="49"/>
      <point x="429" y="93" type="curve" smooth="yes"/>
      <point x="888" y="1495" type="line" smooth="yes"/>
      <point x="891" y="1506"/>
      <point x="886" y="1515"/>
      <point x="873" y="1515" type="curve" smooth="yes"/>
      <point x="859" y="1515"/>
      <point x="853" y="1511"/>
      <point x="849" y="1500" type="curve" smooth="yes"/>
      <point x="518" y="479" type="line"/>
      <point x="478" y="504"/>
      <point x="426" y="519"/>
      <point x="383" y="519" type="curve" smooth="yes"/>
      <point x="175" y="519"/>
      <point x="50" y="284"/>
      <point x="50" y="131" type="curve" smooth="yes"/>
      <point x="50" y="40"/>
      <point x="95" y="-17"/>
    </contour>
    <contour>
      <point x="89" y="131" type="curve" smooth="yes"/>
      <point x="89" y="273"/>
      <point x="203" y="484"/>
      <point x="376" y="484" type="curve" smooth="yes"/>
      <point x="414" y="484"/>
      <point x="455" y="478"/>
      <point x="506" y="446" type="curve"/>
      <point x="493" y="401" type="line"/>
      <point x="374" y="145"/>
      <point x="253" y="18"/>
      <point x="169" y="18" type="curve" smooth="yes"/>
      <point x="115" y="18"/>
      <point x="89" y="64"/>
    </contour>
  </outline>
</glyph>
<glyph name="k" format="2">
  <advance width="565"/>
  <unicode hex="006B"/>
  <anchor x="214" y="0" name="bottom"/>
  <anchor x="326" y="838" name="top"/>
  <outline>
    <contour>
      <point x="55" y="-15" type="curve" smooth="yes"/>
      <point x="67" y="-15"/>
      <point x="74" y="-11"/>
      <point x="77" y="0" type="curve" smooth="yes"/>
      <point x="160" y="253" type="line"/>
      <point x="261" y="18"/>
      <point x="290" y="-19"/>
      <point x="355" y="-19" type="curve" smooth="yes"/>
      <point x="380" y="-19"/>
      <point x="425" y="-7"/>
      <point x="507" y="84" type="curve" smooth="yes"/>
      <point x="515" y="93"/>
      <point x="514" y="100"/>
      <point x="507" y="106" type="curve" smooth="yes"/>
      <point x="501" y="113"/>
      <point x="494" y="116"/>
      <point x="484" y="106" type="curve" smooth="yes"/>
      <point x="411" y="34"/>
      <point x="387" y="18"/>
      <point x="360" y="18" type="curve" smooth="yes"/>
      <point x="314" y="18"/>
      <point x="294" y="51"/>
      <point x="199" y="263" type="curve"/>
      <point x="537" y="483" type="line" smooth="yes"/>
      <point x="545" y="488"/>
      <point x="545" y="498"/>
      <point x="540" y="505" type="curve" smooth="yes"/>
      <point x="535" y="513"/>
      <point x="527" y="518"/>
      <point x="512" y="508" type="curve" smooth="yes"/>
      <point x="171" y="288" type="line"/>
      <point x="564" y="1495" type="line" smooth="yes"/>
      <point x="567" y="1506"/>
      <point x="560" y="1515"/>
      <point x="547" y="1515" type="curve" smooth="yes"/>
      <point x="535" y="1515"/>
      <point x="530" y="1511"/>
      <point x="526" y="1500" type="curve" smooth="yes"/>
      <point x="37" y="4" type="line" smooth="yes"/>
      <point x="34" y="-7"/>
      <point x="42" y="-15"/>
    </contour>
  </outline>
</glyph>
<glyph name="n" format="2">
  <advance width="646"/>
  <unicode hex="006E"/>
  <anchor x="250" y="0" name="bottom"/>
  <anchor x="378" y="500" name="top"/>
  <outline>
    <contour>
      <point x="455" y="-15" type="curve" smooth="yes"/>
      <point x="516" y="-15"/>
      <point x="575" y="51"/>
      <point x="601" y="89" type="curve" smooth="yes"/>
      <point x="606" y="95"/>
      <point x="608" y="101"/>
      <point x="598" y="109" type="curve" smooth="yes"/>
      <point x="590" y="115"/>
      <point x="585" y="115"/>
      <point x="578" y="106" type="curve" smooth="yes"/>
      <point x="551" y="73"/>
      <point x="504" y="20"/>
      <point x="463" y="20" type="curve" smooth="yes"/>
      <point x="435" y="20"/>
      <point x="435" y="46"/>
      <point x="454" y="103" type="curve" smooth="yes"/>
      <point x="539" y="350" type="line" smooth="yes"/>
      <point x="581" y="474"/>
      <point x="530" y="519"/>
      <point x="463" y="519" type="curve" smooth="yes"/>
      <point x="385" y="519"/>
      <point x="263" y="450"/>
      <point x="146" y="231" type="curve"/>
      <point x="233" y="498" type="line" smooth="yes"/>
      <point x="236" y="508"/>
      <point x="229" y="515"/>
      <point x="216" y="515" type="curve" smooth="yes"/>
      <point x="201" y="515"/>
      <point x="198" y="511"/>
      <point x="194" y="500" type="curve" smooth="yes"/>
      <point x="31" y="0" type="line" smooth="yes"/>
      <point x="28" y="-10"/>
      <point x="36" y="-15"/>
      <point x="49" y="-15" type="curve" smooth="yes"/>
      <point x="64" y="-15"/>
      <point x="68" y="-11"/>
      <point x="71" y="0" type="curve" smooth="yes"/>
      <point x="88" y="53" type="line"/>
      <point x="230" y="396"/>
      <point x="374" y="484"/>
      <point x="458" y="484" type="curve" smooth="yes"/>
      <point x="514" y="484"/>
      <point x="533" y="443"/>
      <point x="499" y="344" type="curve" smooth="yes"/>
      <point x="416" y="101" type="line" smooth="yes"/>
      <point x="389" y="19"/>
      <point x="409" y="-15"/>
    </contour>
  </outline>
</glyph>
<glyph name="y" format="2">
  <advance width="616"/>
  <unicode hex="0079"/>
  <anchor x="226" y="0" name="bottom"/>
  <anchor x="371" y="500" name="top"/>
  <outline>
    <contour>
      <point x="154" y="-15" type="curve" smooth="yes"/>
      <point x="225" y="-15"/>
      <point x="349" y="53"/>
      <point x="465" y="270" type="curve"/>
      <point x="114" y="-807" type="line" smooth="yes"/>
      <point x="76" y="-922"/>
      <point x="43" y="-984"/>
      <point x="-42" y="-984" type="curve" smooth="yes"/>
      <point x="-105" y="-984"/>
      <point x="-156" y="-952"/>
      <point x="-209" y="-895" type="curve" smooth="yes"/>
      <point x="-215" y="-889"/>
      <point x="-221" y="-887"/>
      <point x="-231" y="-897" type="curve" smooth="yes"/>
      <point x="-242" y="-906"/>
      <point x="-241" y="-916"/>
      <point x="-235" y="-924" type="curve" smooth="yes"/>
      <point x="-181" y="-982"/>
      <point x="-120" y="-1019"/>
      <point x="-46" y="-1019" type="curve" smooth="yes"/>
      <point x="65" y="-1019"/>
      <point x="108" y="-947"/>
      <point x="153" y="-810" type="curve" smooth="yes"/>
      <point x="578" y="494" type="line" smooth="yes"/>
      <point x="581" y="505"/>
      <point x="579" y="515"/>
      <point x="563" y="515" type="curve" smooth="yes"/>
      <point x="549" y="515"/>
      <point x="544" y="511"/>
      <point x="540" y="500" type="curve" smooth="yes"/>
      <point x="524" y="450" type="line"/>
      <point x="383" y="108"/>
      <point x="236" y="20"/>
      <point x="159" y="20" type="curve" smooth="yes"/>
      <point x="106" y="20"/>
      <point x="90" y="61"/>
      <point x="123" y="160" type="curve" smooth="yes"/>
      <point x="235" y="498" type="line" smooth="yes"/>
      <point x="239" y="508"/>
      <point x="231" y="515"/>
      <point x="219" y="515" type="curve" smooth="yes"/>
      <point x="204" y="515"/>
      <point x="200" y="511"/>
      <point x="196" y="500" type="curve" smooth="yes"/>
      <point x="81" y="154" type="line" smooth="yes"/>
      <point x="40" y="30"/>
      <point x="90" y="-15"/>
    </contour>
  </outline>
</glyph>
<glyph name="sterling" format="2">
  <advance width="1046"/>
  <unicode hex="00A3"/>
  <outline>
    <contour>
      <point x="10" y="0" type="curve" smooth="yes"/>
      <point x="885" y="0" type="line" smooth="yes"/>
      <point x="896" y="0"/>
      <point x="900" y="6"/>
      <point x="904" y="19" type="curve" smooth="yes"/>
      <point x="908" y="31"/>
      <point x="904" y="35"/>
      <point x="895" y="35" type="curve" smooth="yes"/>
      <point x="283" y="35" type="line"/>
      <point x="474" y="625" type="line"/>
      <point x="836" y="625" type="line" smooth="yes"/>
      <point x="848" y="625"/>
      <point x="851" y="631"/>
      <point x="855" y="644" type="curve" smooth="yes"/>
      <point x="859" y="656"/>
      <point x="855" y="660"/>
      <point x="846" y="660" type="curve" smooth="yes"/>
      <point x="485" y="660" type="line"/>
      <point x="658" y="1195" type="line" smooth="yes"/>
      <point x="721" y="1394"/>
      <point x="813" y="1478"/>
      <point x="954" y="1478" type="curve" smooth="yes"/>
      <point x="1055" y="1478"/>
      <point x="1151" y="1426"/>
      <point x="1244" y="1325" type="curve" smooth="yes"/>
      <point x="1250" y="1319"/>
      <point x="1260" y="1315"/>
      <point x="1271" y="1326" type="curve" smooth="yes"/>
      <point x="1283" y="1338"/>
      <point x="1279" y="1344"/>
      <point x="1274" y="1350" type="curve" smooth="yes"/>
      <point x="1178" y="1459"/>
      <point x="1064" y="1515"/>
      <point x="961" y="1515" type="curve" smooth="yes"/>
      <point x="799" y="1515"/>
      <point x="695" y="1421"/>
      <point x="621" y="1198" type="curve" smooth="yes"/>
      <point x="448" y="660" type="line"/>
      <point x="260" y="660" type="line" smooth="yes"/>
      <point x="254" y="660"/>
      <point x="248" y="656"/>
      <point x="244" y="644" type="curve" smooth="yes"/>
      <point x="240" y="631"/>
      <point x="243" y="625"/>
      <point x="250" y="625" type="curve" smooth="yes"/>
      <point x="436" y="625" type="line"/>
      <point x="245" y="35" type="line"/>
      <point x="20" y="35" type="line" smooth="yes"/>
      <point x="14" y="35"/>
      <point x="8" y="31"/>
      <point x="4" y="19" type="curve" smooth="yes"/>
      <point x="0" y="6"/>
      <point x="3" y="0"/>
    </contour>
  </outline>
</glyph>
<glyph name="yen" format="2">
  <advance width="1050"/>
  <unicode hex="00A5"/>
  <outline>
    <contour>
      <point x="460" y="-14" type="curve" smooth="yes"/>
      <point x="474" y="-14"/>
      <point x="481" y="-10"/>
      <point x="485" y="1" type="curve" smooth="yes"/>
      <point x="634" y="461" type="line"/>
      <point x="981" y="461" type="line" smooth="yes"/>
      <point x="988" y="461"/>
      <point x="994" y="468"/>
      <point x="998" y="480" type="curve" smooth="yes"/>
      <point x="1003" y="493"/>
      <point x="999" y="496"/>
      <point x="993" y="496" type="curve" smooth="yes"/>
      <point x="645" y="496" type="line"/>
      <point x="692" y="641" type="line"/>
      <point x="1034" y="641" type="line" smooth="yes"/>
      <point x="1040" y="641"/>
      <point x="1048" y="648"/>
      <point x="1051" y="660" type="curve" smooth="yes"/>
      <point x="1055" y="673"/>
      <point x="1051" y="676"/>
      <point x="1045" y="676" type="curve" smooth="yes"/>
      <point x="720" y="676" type="line"/>
      <point x="1414" y="1488" type="line" smooth="yes"/>
      <point x="1423" y="1498"/>
      <point x="1421" y="1504"/>
      <point x="1414" y="1511" type="curve" smooth="yes"/>
      <point x="1403" y="1523"/>
      <point x="1396" y="1519"/>
      <point x="1388" y="1509" type="curve" smooth="yes"/>
      <point x="685" y="683" type="line"/>
      <point x="478" y="1500" type="line" smooth="yes"/>
      <point x="475" y="1511"/>
      <point x="473" y="1515"/>
      <point x="459" y="1515" type="curve" smooth="yes"/>
      <point x="449" y="1515"/>
      <point x="440" y="1510"/>
      <point x="445" y="1491" type="curve" smooth="yes"/>
      <point x="653" y="676" type="line"/>
      <point x="318" y="676" type="line" smooth="yes"/>
      <point x="311" y="676"/>
      <point x="305" y="671"/>
      <point x="301" y="659" type="curve" smooth="yes"/>
      <point x="298" y="646"/>
      <point x="300" y="641"/>
      <point x="306" y="641" type="curve" smooth="yes"/>
      <point x="656" y="641" type="line"/>
      <point x="608" y="496" type="line"/>
      <point x="265" y="496" type="line" smooth="yes"/>
      <point x="259" y="496"/>
      <point x="251" y="491"/>
      <point x="248" y="479" type="curve" smooth="yes"/>
      <point x="244" y="466"/>
      <point x="248" y="461"/>
      <point x="254" y="461" type="curve" smooth="yes"/>
      <point x="597" y="461" type="line"/>
      <point x="446" y="1" type="line" smooth="yes"/>
      <point x="443" y="-10"/>
      <point x="446" y="-14"/>
    </contour>
  </outline>
</glyph>
<glyph name="copyright" format="2">
  <advance width="1406"/>
  <unicode hex="00A9"/>
  <outline>
    <contour>
      <point x="860" y="126" type="curve" smooth="yes"/>
      <point x="1181" y="126"/>
      <point x="1414" y="381"/>
      <point x="1414" y="734" type="curve" smooth="yes"/>
      <point x="1414" y="1085"/>
      <point x="1181" y="1340"/>
      <point x="860" y="1340" type="curve" smooth="yes"/>
      <point x="540" y="1340"/>
      <point x="308" y="1085"/>
      <point x="308" y="734" type="curve" smooth="yes"/>
      <point x="308" y="381"/>
      <point x="540" y="126"/>
    </contour>
    <contour>
      <point x="860" y="156" type="curve" smooth="yes"/>
      <point x="559" y="156"/>
      <point x="340" y="399"/>
      <point x="340" y="734" type="curve" smooth="yes"/>
      <point x="340" y="1068"/>
      <point x="559" y="1310"/>
      <point x="860" y="1310" type="curve" smooth="yes"/>
      <point x="1163" y="1310"/>
      <point x="1381" y="1068"/>
      <point x="1381" y="733" type="curve" smooth="yes"/>
      <point x="1381" y="399"/>
      <point x="1163" y="156"/>
    </contour>
    <contour>
      <point x="849" y="389" type="curve" smooth="yes"/>
      <point x="936" y="389"/>
      <point x="1024" y="451"/>
      <point x="1070" y="555" type="curve" smooth="yes"/>
      <point x="1073" y="563"/>
      <point x="1070" y="568"/>
      <point x="1063" y="571" type="curve" smooth="yes"/>
      <point x="1054" y="576"/>
      <point x="1048" y="574"/>
      <point x="1044" y="566" type="curve" smooth="yes"/>
      <point x="1001" y="484"/>
      <point x="929" y="424"/>
      <point x="853" y="424" type="curve" smooth="yes"/>
      <point x="743" y="424"/>
      <point x="664" y="550"/>
      <point x="664" y="725" type="curve" smooth="yes"/>
      <point x="664" y="914"/>
      <point x="754" y="1050"/>
      <point x="883" y="1050" type="curve" smooth="yes"/>
      <point x="931" y="1050"/>
      <point x="985" y="1023"/>
      <point x="1023" y="980" type="curve" smooth="yes"/>
      <point x="1028" y="974"/>
      <point x="1034" y="973"/>
      <point x="1043" y="980" type="curve" smooth="yes"/>
      <point x="1049" y="985"/>
      <point x="1053" y="991"/>
      <point x="1046" y="999" type="curve" smooth="yes"/>
      <point x="1003" y="1051"/>
      <point x="941" y="1084"/>
      <point x="883" y="1084" type="curve" smooth="yes"/>
      <point x="733" y="1084"/>
      <point x="626" y="933"/>
      <point x="626" y="725" type="curve" smooth="yes"/>
      <point x="626" y="530"/>
      <point x="720" y="389"/>
    </contour>
  </outline>
</glyph>
<glyph name="ordfeminine" format="2">
  <advance width="480"/>
  <unicode hex="00AA"/>
  <outline>
    <contour>
      <point x="470" y="1111" type="curve" smooth="yes"/>
      <point x="531" y="1111"/>
      <point x="600" y="1165"/>
      <point x="679" y="1303" type="curve"/>
      <point x="668" y="1269"/>
      <point x="659" y="1243"/>
      <point x="645" y="1199" type="curve" smooth="yes"/>
      <point x="628" y="1146"/>
      <point x="639" y="1111"/>
      <point x="680" y="1111" type="curve" smooth="yes"/>
      <point x="729" y="1111"/>
      <point x="771" y="1163"/>
      <point x="791" y="1191" type="curve" smooth="yes"/>
      <point x="795" y="1196"/>
      <point x="796" y="1201"/>
      <point x="786" y="1209" type="curve" smooth="yes"/>
      <point x="780" y="1214"/>
      <point x="775" y="1214"/>
      <point x="769" y="1206" type="curve" smooth="yes"/>
      <point x="740" y="1170"/>
      <point x="711" y="1144"/>
      <point x="688" y="1144" type="curve" smooth="yes"/>
      <point x="669" y="1144"/>
      <point x="668" y="1161"/>
      <point x="679" y="1196" type="curve" smooth="yes"/>
      <point x="780" y="1504" type="line" smooth="yes"/>
      <point x="784" y="1515"/>
      <point x="779" y="1521"/>
      <point x="765" y="1521" type="curve" smooth="yes"/>
      <point x="754" y="1521"/>
      <point x="749" y="1519"/>
      <point x="745" y="1509" type="curve" smooth="yes"/>
      <point x="740" y="1495" type="line"/>
      <point x="713" y="1513"/>
      <point x="675" y="1525"/>
      <point x="639" y="1525" type="curve" smooth="yes"/>
      <point x="480" y="1525"/>
      <point x="384" y="1344"/>
      <point x="384" y="1226" type="curve" smooth="yes"/>
      <point x="384" y="1156"/>
      <point x="419" y="1111"/>
    </contour>
    <contour>
      <point x="420" y="1228" type="curve" smooth="yes"/>
      <point x="420" y="1330"/>
      <point x="504" y="1493"/>
      <point x="634" y="1493" type="curve" smooth="yes"/>
      <point x="661" y="1493"/>
      <point x="691" y="1488"/>
      <point x="730" y="1465" type="curve"/>
      <point x="719" y="1428" type="line"/>
      <point x="630" y="1240"/>
      <point x="540" y="1144"/>
      <point x="478" y="1144" type="curve" smooth="yes"/>
      <point x="440" y="1144"/>
      <point x="420" y="1178"/>
    </contour>
  </outline>
</glyph>
<glyph name="Thorn" format="2">
  <advance width="1113"/>
  <unicode hex="00DE"/>
  <outline>
    <contour>
      <point x="175" y="-14" type="curve" smooth="yes"/>
      <point x="190" y="-14"/>
      <point x="194" y="-10"/>
      <point x="198" y="1" type="curve" smooth="yes"/>
      <point x="321" y="384" type="line"/>
      <point x="431" y="391"/>
      <point x="529" y="401"/>
      <point x="631" y="415" type="curve" smooth="yes"/>
      <point x="990" y="465"/>
      <point x="1203" y="669"/>
      <point x="1203" y="964" type="curve" smooth="yes"/>
      <point x="1203" y="1171"/>
      <point x="1083" y="1238"/>
      <point x="853" y="1238" type="curve" smooth="yes"/>
      <point x="599" y="1238" type="line"/>
      <point x="683" y="1500" type="line" smooth="yes"/>
      <point x="686" y="1511"/>
      <point x="680" y="1515"/>
      <point x="668" y="1515" type="curve" smooth="yes"/>
      <point x="651" y="1515"/>
      <point x="648" y="1511"/>
      <point x="644" y="1500" type="curve" smooth="yes"/>
      <point x="160" y="1" type="line" smooth="yes"/>
      <point x="156" y="-10"/>
      <point x="163" y="-14"/>
    </contour>
    <contour>
      <point x="334" y="423" type="curve"/>
      <point x="588" y="1203" type="line"/>
      <point x="858" y="1203" type="line" smooth="yes"/>
      <point x="1054" y="1203"/>
      <point x="1161" y="1144"/>
      <point x="1161" y="964" type="curve" smooth="yes"/>
      <point x="1161" y="686"/>
      <point x="960" y="495"/>
      <point x="620" y="449" type="curve" smooth="yes"/>
      <point x="538" y="438"/>
      <point x="430" y="426"/>
    </contour>
  </outline>
</glyph>
<glyph name="germandbls" format="2">
  <advance width="700"/>
  <unicode hex="00DF"/>
  <outline>
    <contour>
      <point x="-256" y="-1015" type="curve" smooth="yes"/>
      <point x="-242" y="-1015"/>
      <point x="-236" y="-1010"/>
      <point x="-232" y="-1000" type="curve" smooth="yes"/>
      <point x="479" y="1186" type="line" smooth="yes"/>
      <point x="544" y="1385"/>
      <point x="633" y="1481"/>
      <point x="749" y="1481" type="curve" smooth="yes"/>
      <point x="841" y="1481"/>
      <point x="893" y="1389"/>
      <point x="886" y="1236" type="curve" smooth="yes"/>
      <point x="874" y="948"/>
      <point x="579" y="500"/>
      <point x="393" y="500" type="curve" smooth="yes"/>
      <point x="379" y="500" type="line" smooth="yes"/>
      <point x="373" y="500"/>
      <point x="368" y="496"/>
      <point x="363" y="484" type="curve" smooth="yes"/>
      <point x="359" y="471"/>
      <point x="363" y="468"/>
      <point x="369" y="468" type="curve" smooth="yes"/>
      <point x="375" y="468" type="line" smooth="yes"/>
      <point x="470" y="468"/>
      <point x="559" y="400"/>
      <point x="559" y="273" type="curve" smooth="yes"/>
      <point x="559" y="153"/>
      <point x="476" y="15"/>
      <point x="308" y="15" type="curve" smooth="yes"/>
      <point x="251" y="15"/>
      <point x="211" y="25"/>
      <point x="179" y="40" type="curve" smooth="yes"/>
      <point x="168" y="45"/>
      <point x="161" y="43"/>
      <point x="156" y="31" type="curve" smooth="yes"/>
      <point x="150" y="18"/>
      <point x="154" y="11"/>
      <point x="165" y="6" type="curve" smooth="yes"/>
      <point x="198" y="-9"/>
      <point x="246" y="-19"/>
      <point x="304" y="-19" type="curve" smooth="yes"/>
      <point x="500" y="-19"/>
      <point x="595" y="134"/>
      <point x="595" y="270" type="curve" smooth="yes"/>
      <point x="595" y="389"/>
      <point x="528" y="458"/>
      <point x="449" y="483" type="curve"/>
      <point x="643" y="530"/>
      <point x="911" y="951"/>
      <point x="923" y="1238" type="curve" smooth="yes"/>
      <point x="930" y="1410"/>
      <point x="865" y="1515"/>
      <point x="754" y="1515" type="curve" smooth="yes"/>
      <point x="620" y="1515"/>
      <point x="516" y="1410"/>
      <point x="446" y="1194" type="curve" smooth="yes"/>
      <point x="-269" y="-1000" type="line" smooth="yes"/>
      <point x="-272" y="-1010"/>
      <point x="-269" y="-1015"/>
    </contour>
  </outline>
</glyph>
<glyph name="thorn" format="2">
  <advance width="598"/>
  <unicode hex="00FE"/>
  <outline>
    <contour>
      <point x="-272" y="-1015" type="curve" smooth="yes"/>
      <point x="-259" y="-1015"/>
      <point x="-254" y="-1011"/>
      <point x="-250" y="-1000" type="curve" smooth="yes"/>
      <point x="83" y="25" type="line"/>
      <point x="121" y="-4"/>
      <point x="173" y="-17"/>
      <point x="215" y="-17" type="curve" smooth="yes"/>
      <point x="423" y="-17"/>
      <point x="548" y="218"/>
      <point x="548" y="371" type="curve" smooth="yes"/>
      <point x="548" y="463"/>
      <point x="503" y="519"/>
      <point x="435" y="519" type="curve" smooth="yes"/>
      <point x="351" y="519"/>
      <point x="259" y="440"/>
      <point x="160" y="261" type="curve"/>
      <point x="563" y="1500" type="line" smooth="yes"/>
      <point x="566" y="1510"/>
      <point x="558" y="1515"/>
      <point x="545" y="1515" type="curve" smooth="yes"/>
      <point x="530" y="1515"/>
      <point x="526" y="1511"/>
      <point x="523" y="1500" type="curve" smooth="yes"/>
      <point x="-289" y="-999" type="line" smooth="yes"/>
      <point x="-292" y="-1009"/>
      <point x="-289" y="-1015"/>
    </contour>
    <contour>
      <point x="93" y="55" type="curve"/>
      <point x="110" y="109" type="line"/>
      <point x="228" y="360"/>
      <point x="346" y="484"/>
      <point x="429" y="484" type="curve" smooth="yes"/>
      <point x="483" y="484"/>
      <point x="509" y="438"/>
      <point x="509" y="370" type="curve" smooth="yes"/>
      <point x="509" y="229"/>
      <point x="395" y="18"/>
      <point x="221" y="18" type="curve" smooth="yes"/>
      <point x="184" y="18"/>
      <point x="144" y="24"/>
    </contour>
  </outline>
</glyph>
<glyph name="Eng" format="2">
  <advance width="1374"/>
  <unicode hex="014A"/>
  <outline>
    <contour>
      <point x="971" y="-252" type="curve" smooth="yes"/>
      <point x="1538" y="1500" type="line" smooth="yes"/>
      <point x="1541" y="1511"/>
      <point x="1535" y="1515"/>
      <point x="1523" y="1515" type="curve" smooth="yes"/>
      <point x="1508" y="1515"/>
      <point x="1504" y="1511"/>
      <point x="1500" y="1500" type="curve" smooth="yes"/>
      <point x="1036" y="61" type="line"/>
      <point x="689" y="1503" type="line" smooth="yes"/>
      <point x="686" y="1513"/>
      <point x="681" y="1515"/>
      <point x="666" y="1515" type="curve" smooth="yes"/>
      <point x="654" y="1515"/>
      <point x="650" y="1511"/>
      <point x="646" y="1500" type="curve" smooth="yes"/>
      <point x="163" y="1" type="line" smooth="yes"/>
      <point x="159" y="-10"/>
      <point x="165" y="-14"/>
      <point x="178" y="-14" type="curve" smooth="yes"/>
      <point x="194" y="-14"/>
      <point x="198" y="-10"/>
      <point x="201" y="1" type="curve" smooth="yes"/>
      <point x="666" y="1440" type="line"/>
      <point x="1015" y="-2" type="line"/>
      <point x="933" y="-255" type="line" smooth="yes"/>
      <point x="894" y="-372"/>
      <point x="863" y="-405"/>
      <point x="805" y="-405" type="curve" smooth="yes"/>
      <point x="740" y="-405"/>
      <point x="686" y="-351"/>
      <point x="644" y="-297" type="curve" smooth="yes"/>
      <point x="638" y="-289"/>
      <point x="626" y="-290"/>
      <point x="618" y="-299" type="curve" smooth="yes"/>
      <point x="609" y="-309"/>
      <point x="609" y="-316"/>
      <point x="615" y="-325" type="curve" smooth="yes"/>
      <point x="676" y="-402"/>
      <point x="740" y="-442"/>
      <point x="801" y="-442" type="curve" smooth="yes"/>
      <point x="893" y="-442"/>
      <point x="931" y="-376"/>
    </contour>
  </outline>
</glyph>
<glyph name="OE" format="2">
  <advance width="1974"/>
  <unicode hex="0152"/>
  <anchor x="1408" y="1424" name="top"/>
  <outline>
    <contour>
      <point x="650" y="-19" type="curve" smooth="yes"/>
      <point x="1082" y="-19"/>
      <point x="1428" y="548"/>
      <point x="1428" y="1065" type="curve" smooth="yes"/>
      <point x="1428" y="1346"/>
      <point x="1292" y="1515"/>
      <point x="1054" y="1515" type="curve" smooth="yes"/>
      <point x="620" y="1515"/>
      <point x="268" y="999"/>
      <point x="268" y="463" type="curve" smooth="yes"/>
      <point x="268" y="161"/>
      <point x="408" y="-19"/>
    </contour>
    <contour>
      <point x="649" y="19" type="curve" smooth="yes"/>
      <point x="435" y="19"/>
      <point x="309" y="183"/>
      <point x="309" y="463" type="curve" smooth="yes"/>
      <point x="309" y="981"/>
      <point x="645" y="1478"/>
      <point x="1054" y="1478" type="curve" smooth="yes"/>
      <point x="1267" y="1478"/>
      <point x="1393" y="1325"/>
      <point x="1393" y="1065" type="curve" smooth="yes"/>
      <point x="1393" y="566"/>
      <point x="1057" y="19"/>
    </contour>
    <contour>
      <point x="1132" y="0" type="curve" smooth="yes"/>
      <point x="1799" y="0" type="line" smooth="yes"/>
      <point x="1812" y="0"/>
      <point x="1817" y="4"/>
      <point x="1820" y="18" type="curve" smooth="yes"/>
      <point x="1823" y="29"/>
      <point x="1823" y="35"/>
      <point x="1809" y="35" type="curve" smooth="yes"/>
      <point x="1162" y="35" type="line"/>
      <point x="1398" y="769" type="line"/>
      <point x="1950" y="769" type="line" smooth="yes"/>
      <point x="1963" y="769"/>
      <point x="1968" y="773"/>
      <point x="1972" y="786" type="curve" smooth="yes"/>
      <point x="1974" y="798"/>
      <point x="1974" y="804"/>
      <point x="1960" y="804" type="curve" smooth="yes"/>
      <point x="1409" y="804" type="line"/>
      <point x="1618" y="1453" type="line"/>
      <point x="2270" y="1453" type="line" smooth="yes"/>
      <point x="2283" y="1453"/>
      <point x="2288" y="1456"/>
      <point x="2292" y="1470" type="curve" smooth="yes"/>
      <point x="2294" y="1481"/>
      <point x="2294" y="1488"/>
      <point x="2280" y="1488" type="curve" smooth="yes"/>
      <point x="1610" y="1488" type="line" smooth="yes"/>
      <point x="1594" y="1488"/>
      <point x="1590" y="1484"/>
      <point x="1587" y="1473" type="curve" smooth="yes"/>
      <point x="1117" y="15" type="line" smooth="yes"/>
      <point x="1113" y="4"/>
      <point x="1119" y="0"/>
    </contour>
  </outline>
</glyph>
<glyph name="oe" format="2">
  <advance width="901"/>
  <unicode hex="0153"/>
  <anchor x="528" y="500" name="top"/>
  <outline>
    <contour>
      <point x="220" y="-19" type="curve" smooth="yes"/>
      <point x="415" y="-19"/>
      <point x="509" y="204"/>
      <point x="509" y="344" type="curve" smooth="yes"/>
      <point x="509" y="443"/>
      <point x="451" y="519"/>
      <point x="355" y="519" type="curve" smooth="yes"/>
      <point x="158" y="519"/>
      <point x="64" y="310"/>
      <point x="64" y="164" type="curve" smooth="yes"/>
      <point x="64" y="55"/>
      <point x="119" y="-19"/>
    </contour>
    <contour>
      <point x="224" y="16" type="curve" smooth="yes"/>
      <point x="146" y="16"/>
      <point x="104" y="76"/>
      <point x="104" y="165" type="curve" smooth="yes"/>
      <point x="104" y="294"/>
      <point x="189" y="484"/>
      <point x="350" y="484" type="curve" smooth="yes"/>
      <point x="433" y="484"/>
      <point x="474" y="426"/>
      <point x="474" y="339" type="curve" smooth="yes"/>
      <point x="474" y="211"/>
      <point x="390" y="16"/>
    </contour>
    <contour>
      <point x="603" y="-19" type="curve" smooth="yes"/>
      <point x="705" y="-19"/>
      <point x="789" y="60"/>
      <point x="831" y="110" type="curve" smooth="yes"/>
      <point x="839" y="120"/>
      <point x="835" y="128"/>
      <point x="829" y="133" type="curve" smooth="yes"/>
      <point x="821" y="139"/>
      <point x="815" y="139"/>
      <point x="806" y="130" type="curve" smooth="yes"/>
      <point x="770" y="90"/>
      <point x="699" y="15"/>
      <point x="611" y="15" type="curve" smooth="yes"/>
      <point x="530" y="15"/>
      <point x="494" y="68"/>
      <point x="494" y="168" type="curve" smooth="yes"/>
      <point x="494" y="329"/>
      <point x="596" y="485"/>
      <point x="750" y="485" type="curve" smooth="yes"/>
      <point x="804" y="485"/>
      <point x="835" y="460"/>
      <point x="835" y="411" type="curve" smooth="yes"/>
      <point x="835" y="289"/>
      <point x="636" y="241"/>
      <point x="488" y="223" type="curve"/>
      <point x="486" y="190" type="line"/>
      <point x="623" y="209"/>
      <point x="876" y="251"/>
      <point x="876" y="418" type="curve" smooth="yes"/>
      <point x="876" y="471"/>
      <point x="844" y="519"/>
      <point x="755" y="519" type="curve" smooth="yes"/>
      <point x="589" y="519"/>
      <point x="460" y="360"/>
      <point x="460" y="165" type="curve" smooth="yes"/>
      <point x="460" y="48"/>
      <point x="511" y="-19"/>
    </contour>
  </outline>
</glyph>
<glyph name="Ohorn" format="2">
  <advance width="1432"/>
  <unicode hex="01A0"/>
  <anchor x="635" y="0" name="bottom"/>
  <anchor x="878" y="744" name="center"/>
  <anchor x="1215" y="21" name="ogonek"/>
  <anchor x="1063" y="1424" name="top"/>
  <outline>
    <contour>
      <point x="683" y="-19" type="curve" smooth="yes"/>
      <point x="1136" y="-19"/>
      <point x="1501" y="548"/>
      <point x="1501" y="1065" type="curve" smooth="yes"/>
      <point x="1501" y="1206"/>
      <point x="1462" y="1318"/>
      <point x="1391" y="1395" type="curve"/>
      <point x="1524" y="1405"/>
      <point x="1602" y="1500"/>
      <point x="1587" y="1683" type="curve" smooth="yes"/>
      <point x="1585" y="1704"/>
      <point x="1547" y="1701"/>
      <point x="1548" y="1680" type="curve" smooth="yes"/>
      <point x="1560" y="1498"/>
      <point x="1490" y="1424"/>
      <point x="1363" y="1424" type="curve"/>
      <point x="1294" y="1483"/>
      <point x="1201" y="1515"/>
      <point x="1086" y="1515" type="curve" smooth="yes"/>
      <point x="634" y="1515"/>
      <point x="266" y="999"/>
      <point x="266" y="463" type="curve" smooth="yes"/>
      <point x="266" y="161"/>
      <point x="419" y="-19"/>
    </contour>
    <contour>
      <point x="681" y="19" type="curve" smooth="yes"/>
      <point x="446" y="19"/>
      <point x="308" y="183"/>
      <point x="308" y="463" type="curve" smooth="yes"/>
      <point x="308" y="981"/>
      <point x="660" y="1478"/>
      <point x="1086" y="1478" type="curve" smooth="yes"/>
      <point x="1321" y="1478"/>
      <point x="1460" y="1325"/>
      <point x="1460" y="1065" type="curve" smooth="yes"/>
      <point x="1460" y="566"/>
      <point x="1108" y="19"/>
    </contour>
  </outline>
</glyph>
<glyph name="Uhorn" format="2">
  <advance width="1337"/>
  <unicode hex="01AF"/>
  <anchor x="588" y="0" name="bottom"/>
  <anchor x="843" y="21" name="ogonek"/>
  <anchor x="1018" y="1424" name="top"/>
  <anchor x="1503" y="1509" name="topright"/>
  <outline>
    <contour>
      <point x="1670" y="1676" type="curve" smooth="yes"/>
      <point x="1668" y="1697"/>
      <point x="1630" y="1694"/>
      <point x="1631" y="1673" type="curve" smooth="yes"/>
      <point x="1636" y="1560"/>
      <point x="1605" y="1514"/>
      <point x="1503" y="1509" type="curve"/>
      <point x="1495" y="1482" type="line"/>
      <point x="1624" y="1478"/>
      <point x="1681" y="1542"/>
    </contour>
    <component base="U"/>
  </outline>
</glyph>
<glyph name="acutecomb" format="2">
  <unicode hex="0301"/>
  <anchor x="81" y="500" name="_top"/>
  <anchor x="170" y="775" name="top"/>
  <outline>
    <contour>
      <point x="85" y="629" type="curve" smooth="yes"/>
      <point x="89" y="629"/>
      <point x="93" y="631"/>
      <point x="98" y="636" type="curve" smooth="yes"/>
      <point x="260" y="801" type="line" smooth="yes"/>
      <point x="265" y="806"/>
      <point x="266" y="810"/>
      <point x="266" y="814" type="curve" smooth="yes"/>
      <point x="266" y="824"/>
      <point x="253" y="838"/>
      <point x="243" y="838" type="curve" smooth="yes"/>
      <point x="238" y="838"/>
      <point x="233" y="835"/>
      <point x="228" y="829" type="curve" smooth="yes"/>
      <point x="74" y="659" type="line" smooth="yes"/>
      <point x="69" y="654"/>
      <point x="68" y="650"/>
      <point x="68" y="646" type="curve" smooth="yes"/>
      <point x="68" y="639"/>
      <point x="79" y="629"/>
    </contour>
  </outline>
</glyph>
<glyph name="hookabovecomb" format="2">
  <unicode hex="0309"/>
  <anchor x="81" y="500" name="_top"/>
  <anchor x="170" y="774" name="top"/>
  <outline>
    <contour>
      <point x="154" y="838" type="curve" smooth="yes"/>
      <point x="125" y="838"/>
      <point x="89" y="828"/>
      <point x="66" y="813" type="curve" smooth="yes"/>
      <point x="56" y="805"/>
      <point x="54" y="796"/>
      <point x="58" y="788" type="curve" smooth="yes"/>
      <point x="63" y="779"/>
      <point x="71" y="776"/>
      <point x="81" y="783" type="curve" smooth="yes"/>
      <point x="104" y="796"/>
      <point x="128" y="803"/>
      <point x="149" y="803" type="curve" smooth="yes"/>
      <point x="173" y="803"/>
      <point x="188" y="790"/>
      <point x="188" y="770" type="curve" smooth="yes"/>
      <point x="188" y="755"/>
      <point x="179" y="743"/>
      <point x="153" y="724" type="curve" smooth="yes"/>
      <point x="126" y="706"/>
      <point x="104" y="686"/>
      <point x="101" y="646" type="curve" smooth="yes"/>
      <point x="100" y="628" type="line" smooth="yes"/>
      <point x="99" y="611"/>
      <point x="134" y="606"/>
      <point x="135" y="628" type="curve" smooth="yes"/>
      <point x="136" y="646" type="line" smooth="yes"/>
      <point x="138" y="663"/>
      <point x="149" y="680"/>
      <point x="171" y="695" type="curve" smooth="yes"/>
      <point x="210" y="721"/>
      <point x="226" y="744"/>
      <point x="226" y="775" type="curve" smooth="yes"/>
      <point x="226" y="810"/>
      <point x="199" y="838"/>
    </contour>
  </outline>
</glyph>
<glyph name="quoteleft" format="2">
  <advance width="181"/>
  <unicode hex="2018"/>
  <outline>
    <contour>
      <point x="343" y="975" type="curve" smooth="yes"/>
      <point x="363" y="975"/>
      <point x="375" y="984"/>
      <point x="377" y="1000" type="curve" smooth="yes"/>
      <point x="395" y="1139"/>
      <point x="427" y="1219"/>
      <point x="480" y="1284" type="curve" smooth="yes"/>
      <point x="485" y="1290"/>
      <point x="487" y="1294"/>
      <point x="487" y="1298" type="curve" smooth="yes"/>
      <point x="487" y="1306"/>
      <point x="473" y="1319"/>
      <point x="465" y="1319" type="curve" smooth="yes"/>
      <point x="457" y="1319"/>
      <point x="448" y="1311"/>
      <point x="440" y="1304" type="curve" smooth="yes"/>
      <point x="351" y="1216"/>
      <point x="316" y="1070"/>
      <point x="316" y="996" type="curve" smooth="yes"/>
      <point x="316" y="983"/>
      <point x="323" y="975"/>
    </contour>
  </outline>
</glyph>
<glyph name="quoteright" format="2">
  <advance width="206"/>
  <unicode hex="2019"/>
  <outline>
    <contour>
      <point x="518" y="1519" type="curve" smooth="yes"/>
      <point x="498" y="1519"/>
      <point x="486" y="1510"/>
      <point x="484" y="1494" type="curve" smooth="yes"/>
      <point x="466" y="1385"/>
      <point x="444" y="1335"/>
      <point x="391" y="1270" type="curve" smooth="yes"/>
      <point x="386" y="1264"/>
      <point x="384" y="1260"/>
      <point x="384" y="1256" type="curve" smooth="yes"/>
      <point x="384" y="1248"/>
      <point x="398" y="1235"/>
      <point x="406" y="1235" type="curve" smooth="yes"/>
      <point x="414" y="1235"/>
      <point x="423" y="1243"/>
      <point x="431" y="1250" type="curve" smooth="yes"/>
      <point x="520" y="1338"/>
      <point x="545" y="1454"/>
      <point x="545" y="1498" type="curve" smooth="yes"/>
      <point x="545" y="1511"/>
      <point x="538" y="1519"/>
    </contour>
  </outline>
</glyph>
<glyph name="euro" format="2">
  <advance width="1201"/>
  <unicode hex="20AC"/>
  <outline>
    <contour>
      <point x="636" y="-32" type="curve" smooth="yes"/>
      <point x="835" y="-32"/>
      <point x="1014" y="114"/>
      <point x="1181" y="330" type="curve" smooth="yes"/>
      <point x="1190" y="341"/>
      <point x="1189" y="351"/>
      <point x="1180" y="358" type="curve" smooth="yes"/>
      <point x="1169" y="366"/>
      <point x="1163" y="365"/>
      <point x="1155" y="355" type="curve" smooth="yes"/>
      <point x="1003" y="165"/>
      <point x="836" y="5"/>
      <point x="636" y="5" type="curve" smooth="yes"/>
      <point x="441" y="5"/>
      <point x="305" y="175"/>
      <point x="305" y="461" type="curve" smooth="yes"/>
      <point x="305" y="910"/>
      <point x="615" y="1478"/>
      <point x="1074" y="1478" type="curve" smooth="yes"/>
      <point x="1200" y="1478"/>
      <point x="1300" y="1429"/>
      <point x="1388" y="1328" type="curve" smooth="yes"/>
      <point x="1401" y="1313"/>
      <point x="1404" y="1309"/>
      <point x="1415" y="1314" type="curve" smooth="yes"/>
      <point x="1430" y="1321"/>
      <point x="1435" y="1330"/>
      <point x="1428" y="1341" type="curve" smooth="yes"/>
      <point x="1358" y="1446"/>
      <point x="1225" y="1515"/>
      <point x="1074" y="1515" type="curve" smooth="yes"/>
      <point x="593" y="1515"/>
      <point x="264" y="941"/>
      <point x="264" y="461" type="curve" smooth="yes"/>
      <point x="264" y="145"/>
      <point x="409" y="-32"/>
    </contour>
    <contour>
      <point x="195" y="816" type="curve" smooth="yes"/>
      <point x="1060" y="816" type="line" smooth="yes"/>
      <point x="1066" y="816"/>
      <point x="1074" y="823"/>
      <point x="1078" y="835" type="curve" smooth="yes"/>
      <point x="1081" y="848"/>
      <point x="1078" y="851"/>
      <point x="1071" y="851" type="curve" smooth="yes"/>
      <point x="206" y="851" type="line" smooth="yes"/>
      <point x="200" y="851"/>
      <point x="194" y="846"/>
      <point x="190" y="834" type="curve" smooth="yes"/>
      <point x="186" y="821"/>
      <point x="189" y="816"/>
    </contour>
    <contour>
      <point x="143" y="636" type="curve" smooth="yes"/>
      <point x="1008" y="636" type="line" smooth="yes"/>
      <point x="1014" y="636"/>
      <point x="1020" y="643"/>
      <point x="1024" y="655" type="curve" smooth="yes"/>
      <point x="1029" y="668"/>
      <point x="1025" y="671"/>
      <point x="1019" y="671" type="curve" smooth="yes"/>
      <point x="154" y="671" type="line" smooth="yes"/>
      <point x="148" y="671"/>
      <point x="140" y="666"/>
      <point x="136" y="654" type="curve" smooth="yes"/>
      <point x="133" y="641"/>
      <point x="136" y="636"/>
    </contour>
  </outline>
</glyph>
<glyph name="integral" format="2">
  <advance width="647"/>
  <unicode hex="222B"/>
  <outline>
    <contour>
      <point x="-38" y="-75" type="curve" smooth="yes"/>
      <point x="92" y="-75"/>
      <point x="143" y="-39"/>
      <point x="206" y="96" type="curve" smooth="yes"/>
      <point x="777" y="1324" type="line" smooth="yes"/>
      <point x="832" y="1443"/>
      <point x="869" y="1472"/>
      <point x="985" y="1472" type="curve" smooth="yes"/>
      <point x="996" y="1472"/>
      <point x="1002" y="1479"/>
      <point x="1002" y="1492" type="curve" smooth="yes"/>
      <point x="1002" y="1502"/>
      <point x="997" y="1507"/>
      <point x="988" y="1507" type="curve" smooth="yes"/>
      <point x="858" y="1507"/>
      <point x="807" y="1471"/>
      <point x="744" y="1336" type="curve" smooth="yes"/>
      <point x="173" y="108" type="line" smooth="yes"/>
      <point x="118" y="-11"/>
      <point x="81" y="-40"/>
      <point x="-35" y="-40" type="curve" smooth="yes"/>
      <point x="-46" y="-40"/>
      <point x="-52" y="-47"/>
      <point x="-52" y="-60" type="curve" smooth="yes"/>
      <point x="-52" y="-70"/>
      <point x="-47" y="-75"/>
    </contour>
  </outline>
</glyph>
<glyph name="A.cur" format="2">
  <advance width="1518"/>
  <anchor x="523" y="0" name="bottom"/>
  <anchor x="1293" y="21" name="ogonek"/>
  <anchor x="1100" y="1424" name="top"/>
  <outline>
    <contour>
      <point x="523" y="-17" type="curve" smooth="yes"/>
      <point x="765" y="-17"/>
      <point x="1028" y="245"/>
      <point x="1295" y="741" type="curve"/>
      <point x="1111" y="186" type="line" smooth="yes"/>
      <point x="1068" y="53"/>
      <point x="1094" y="-17"/>
      <point x="1180" y="-17" type="curve" smooth="yes"/>
      <point x="1260" y="-17"/>
      <point x="1350" y="59"/>
      <point x="1458" y="220" type="curve" smooth="yes"/>
      <point x="1463" y="228"/>
      <point x="1460" y="236"/>
      <point x="1453" y="241" type="curve" smooth="yes"/>
      <point x="1445" y="246"/>
      <point x="1434" y="249"/>
      <point x="1428" y="239" type="curve" smooth="yes"/>
      <point x="1333" y="90"/>
      <point x="1254" y="19"/>
      <point x="1184" y="19" type="curve" smooth="yes"/>
      <point x="1124" y="19"/>
      <point x="1113" y="71"/>
      <point x="1149" y="181" type="curve" smooth="yes"/>
      <point x="1404" y="954" type="line" smooth="yes"/>
      <point x="1408" y="965"/>
      <point x="1401" y="969"/>
      <point x="1389" y="969" type="curve" smooth="yes"/>
      <point x="1373" y="969"/>
      <point x="1369" y="965"/>
      <point x="1365" y="954" type="curve"/>
      <point x="1069" y="345"/>
      <point x="779" y="20"/>
      <point x="530" y="20" type="curve" smooth="yes"/>
      <point x="384" y="20"/>
      <point x="298" y="151"/>
      <point x="298" y="374" type="curve" smooth="yes"/>
      <point x="298" y="914"/>
      <point x="723" y="1478"/>
      <point x="1128" y="1478" type="curve" smooth="yes"/>
      <point x="1298" y="1478"/>
      <point x="1411" y="1409"/>
      <point x="1480" y="1266" type="curve" smooth="yes"/>
      <point x="1488" y="1251"/>
      <point x="1494" y="1245"/>
      <point x="1506" y="1253" type="curve" smooth="yes"/>
      <point x="1516" y="1259"/>
      <point x="1519" y="1268"/>
      <point x="1514" y="1279" type="curve" smooth="yes"/>
      <point x="1435" y="1439"/>
      <point x="1313" y="1515"/>
      <point x="1134" y="1515" type="curve" smooth="yes"/>
      <point x="699" y="1515"/>
      <point x="256" y="940"/>
      <point x="256" y="374" type="curve" smooth="yes"/>
      <point x="256" y="129"/>
      <point x="355" y="-17"/>
    </contour>
  </outline>
</glyph>
<glyph name="A.cur_locl.ini" format="2">
  <advance width="1440"/>
  <anchor x="523" y="0" name="bottom"/>
  <anchor x="1358" y="0" name="cnct"/>
  <anchor x="1293" y="21" name="ogonek"/>
  <anchor x="1100" y="1424" name="top"/>
  <outline>
    <contour>
      <point x="523" y="-17" type="curve" smooth="yes"/>
      <point x="764" y="-17"/>
      <point x="1025" y="243"/>
      <point x="1290" y="734" type="curve"/>
      <point x="1208" y="481" type="line" smooth="yes"/>
      <point x="1088" y="116"/>
      <point x="1128" y="-17"/>
      <point x="1256" y="-17" type="curve" smooth="yes"/>
      <point x="1281" y="-17"/>
      <point x="1293" y="18"/>
      <point x="1268" y="18" type="curve" smooth="yes"/>
      <point x="1144" y="18"/>
      <point x="1145" y="173"/>
      <point x="1251" y="495" type="curve" smooth="yes"/>
      <point x="1581" y="1500" type="line" smooth="yes"/>
      <point x="1585" y="1511"/>
      <point x="1579" y="1515"/>
      <point x="1566" y="1515" type="curve" smooth="yes"/>
      <point x="1550" y="1515"/>
      <point x="1546" y="1511"/>
      <point x="1543" y="1500" type="curve" smooth="yes"/>
      <point x="1486" y="1328" type="line"/>
      <point x="1403" y="1453"/>
      <point x="1285" y="1515"/>
      <point x="1134" y="1515" type="curve" smooth="yes"/>
      <point x="699" y="1515"/>
      <point x="256" y="940"/>
      <point x="256" y="374" type="curve" smooth="yes"/>
      <point x="256" y="129"/>
      <point x="355" y="-17"/>
    </contour>
    <contour>
      <point x="298" y="374" type="curve" smooth="yes"/>
      <point x="298" y="914"/>
      <point x="723" y="1478"/>
      <point x="1128" y="1478" type="curve" smooth="yes"/>
      <point x="1280" y="1478"/>
      <point x="1398" y="1411"/>
      <point x="1471" y="1283" type="curve"/>
      <point x="1359" y="940" type="line"/>
      <point x="1065" y="340"/>
      <point x="778" y="20"/>
      <point x="530" y="20" type="curve" smooth="yes"/>
      <point x="384" y="20"/>
      <point x="298" y="151"/>
    </contour>
  </outline>
</glyph>
<glyph name="A.dec" format="2">
  <advance width="1444"/>
  <anchor x="778" y="0" name="bottom"/>
  <anchor x="1198" y="0" name="ogonek"/>
  <anchor x="1243" y="1424" name="top"/>
  <outline>
    <contour>
      <point x="211" y="-17" type="curve" smooth="yes"/>
      <point x="433" y="-17"/>
      <point x="700" y="352"/>
      <point x="1255" y="1429" type="curve"/>
      <point x="1176" y="918"/>
      <point x="1148" y="437"/>
      <point x="1158" y="4" type="curve" smooth="yes"/>
      <point x="1158" y="-14"/>
      <point x="1164" y="-17"/>
      <point x="1179" y="-16" type="curve" smooth="yes"/>
      <point x="1194" y="-15"/>
      <point x="1198" y="-9"/>
      <point x="1198" y="6" type="curve" smooth="yes"/>
      <point x="1189" y="491"/>
      <point x="1224" y="991"/>
      <point x="1301" y="1493" type="curve" smooth="yes"/>
      <point x="1304" y="1508"/>
      <point x="1296" y="1515"/>
      <point x="1281" y="1515" type="curve" smooth="yes"/>
      <point x="1266" y="1515"/>
      <point x="1258" y="1506"/>
      <point x="1250" y="1493" type="curve"/>
      <point x="676" y="395"/>
      <point x="413" y="20"/>
      <point x="213" y="20" type="curve" smooth="yes"/>
      <point x="156" y="20"/>
      <point x="118" y="61"/>
      <point x="95" y="90" type="curve" smooth="yes"/>
      <point x="90" y="96"/>
      <point x="81" y="100"/>
      <point x="70" y="90" type="curve" smooth="yes"/>
      <point x="58" y="79"/>
      <point x="61" y="71"/>
      <point x="66" y="64" type="curve" smooth="yes"/>
      <point x="109" y="11"/>
      <point x="153" y="-17"/>
    </contour>
    <contour>
      <point x="1156" y="79" type="curve"/>
      <point x="1188" y="111" type="line"/>
      <point x="1200" y="428"/>
      <point x="1015" y="620"/>
      <point x="700" y="620" type="curve" smooth="yes"/>
      <point x="595" y="620"/>
      <point x="459" y="568"/>
      <point x="459" y="444" type="curve" smooth="yes"/>
      <point x="459" y="333"/>
      <point x="575" y="276"/>
      <point x="755" y="276" type="curve" smooth="yes"/>
      <point x="954" y="276"/>
      <point x="1116" y="306"/>
      <point x="1366" y="398" type="curve" smooth="yes"/>
      <point x="1376" y="401"/>
      <point x="1380" y="409"/>
      <point x="1376" y="420" type="curve" smooth="yes"/>
      <point x="1373" y="433"/>
      <point x="1365" y="436"/>
      <point x="1355" y="433" type="curve" smooth="yes"/>
      <point x="1108" y="336"/>
      <point x="905" y="311"/>
      <point x="760" y="311" type="curve" smooth="yes"/>
      <point x="604" y="311"/>
      <point x="500" y="351"/>
      <point x="500" y="450" type="curve" smooth="yes"/>
      <point x="500" y="554"/>
      <point x="624" y="585"/>
      <point x="701" y="585" type="curve" smooth="yes"/>
      <point x="998" y="585"/>
      <point x="1170" y="394"/>
    </contour>
  </outline>
</glyph>
<glyph name="A.dec_locl" format="2">
  <advance width="1594"/>
  <anchor x="778" y="0" name="bottom"/>
  <anchor x="1365" y="0" name="ogonek"/>
  <anchor x="1243" y="1424" name="top"/>
  <outline>
    <contour>
      <point x="211" y="-17" type="curve" smooth="yes"/>
      <point x="348" y="-17"/>
      <point x="503" y="124"/>
      <point x="733" y="488" type="curve"/>
      <point x="1173" y="488" type="line"/>
      <point x="1170" y="413"/>
      <point x="1169" y="340"/>
      <point x="1169" y="270" type="curve" smooth="yes"/>
      <point x="1169" y="68"/>
      <point x="1206" y="-17"/>
      <point x="1295" y="-17" type="curve" smooth="yes"/>
      <point x="1406" y="-17"/>
      <point x="1518" y="119"/>
      <point x="1638" y="385" type="curve" smooth="yes"/>
      <point x="1643" y="396"/>
      <point x="1639" y="404"/>
      <point x="1628" y="409" type="curve" smooth="yes"/>
      <point x="1616" y="414"/>
      <point x="1609" y="410"/>
      <point x="1605" y="401" type="curve" smooth="yes"/>
      <point x="1491" y="148"/>
      <point x="1386" y="19"/>
      <point x="1298" y="19" type="curve" smooth="yes"/>
      <point x="1234" y="19"/>
      <point x="1209" y="93"/>
      <point x="1209" y="270" type="curve" smooth="yes"/>
      <point x="1209" y="656"/>
      <point x="1244" y="1120"/>
      <point x="1301" y="1493" type="curve" smooth="yes"/>
      <point x="1304" y="1508"/>
      <point x="1296" y="1515"/>
      <point x="1281" y="1515" type="curve" smooth="yes"/>
      <point x="1266" y="1515"/>
      <point x="1258" y="1506"/>
      <point x="1250" y="1493" type="curve"/>
      <point x="676" y="395"/>
      <point x="413" y="20"/>
      <point x="213" y="20" type="curve" smooth="yes"/>
      <point x="156" y="20"/>
      <point x="118" y="61"/>
      <point x="95" y="90" type="curve" smooth="yes"/>
      <point x="90" y="96"/>
      <point x="81" y="100"/>
      <point x="70" y="90" type="curve" smooth="yes"/>
      <point x="58" y="79"/>
      <point x="61" y="71"/>
      <point x="66" y="64" type="curve" smooth="yes"/>
      <point x="109" y="11"/>
      <point x="153" y="-17"/>
    </contour>
    <contour>
      <point x="753" y="520" type="line"/>
      <point x="890" y="741"/>
      <point x="1054" y="1038"/>
      <point x="1255" y="1429" type="curve"/>
      <point x="1213" y="1149"/>
      <point x="1184" y="823"/>
      <point x="1174" y="520" type="curve"/>
    </contour>
  </outline>
</glyph>
<glyph name="A.dec_locl.ini" format="2">
  <advance width="1444"/>
  <anchor x="778" y="0" name="bottom"/>
  <anchor x="1363" y="0" name="cnct"/>
  <anchor x="1285" y="0" name="ogonek"/>
  <anchor x="1243" y="1424" name="top"/>
  <outline>
    <contour>
      <point x="211" y="-17" type="curve" smooth="yes"/>
      <point x="348" y="-17"/>
      <point x="503" y="124"/>
      <point x="733" y="488" type="curve"/>
      <point x="1173" y="488" type="line"/>
      <point x="1170" y="402"/>
      <point x="1169" y="317"/>
      <point x="1169" y="233" type="curve" smooth="yes"/>
      <point x="1169" y="54"/>
      <point x="1185" y="-17"/>
      <point x="1260" y="-17" type="curve" smooth="yes"/>
      <point x="1285" y="-17"/>
      <point x="1296" y="18"/>
      <point x="1271" y="18" type="curve" smooth="yes"/>
      <point x="1219" y="18"/>
      <point x="1209" y="69"/>
      <point x="1209" y="245" type="curve" smooth="yes"/>
      <point x="1209" y="656"/>
      <point x="1244" y="1120"/>
      <point x="1301" y="1493" type="curve" smooth="yes"/>
      <point x="1304" y="1508"/>
      <point x="1296" y="1515"/>
      <point x="1281" y="1515" type="curve" smooth="yes"/>
      <point x="1266" y="1515"/>
      <point x="1258" y="1506"/>
      <point x="1250" y="1493" type="curve"/>
      <point x="676" y="395"/>
      <point x="413" y="20"/>
      <point x="213" y="20" type="curve" smooth="yes"/>
      <point x="156" y="20"/>
      <point x="118" y="61"/>
      <point x="95" y="90" type="curve" smooth="yes"/>
      <point x="90" y="96"/>
      <point x="81" y="100"/>
      <point x="70" y="90" type="curve" smooth="yes"/>
      <point x="58" y="79"/>
      <point x="61" y="71"/>
      <point x="66" y="64" type="curve" smooth="yes"/>
      <point x="109" y="11"/>
      <point x="153" y="-17"/>
    </contour>
    <contour>
      <point x="753" y="520" type="line"/>
      <point x="890" y="741"/>
      <point x="1054" y="1038"/>
      <point x="1255" y="1429" type="curve"/>
      <point x="1214" y="1154"/>
      <point x="1185" y="834"/>
      <point x="1174" y="520" type="curve"/>
    </contour>
  </outline>
</glyph>
<glyph name="AE.cur" format="2">
  <advance width="2002"/>
  <anchor x="1464" y="1424" name="top"/>
  <outline>
    <contour>
      <point x="198" y="-17" type="curve" smooth="yes"/>
      <point x="301" y="-17"/>
      <point x="386" y="71"/>
      <point x="680" y="500" type="curve"/>
      <point x="1142" y="500" type="line"/>
      <point x="1135" y="445"/>
      <point x="1129" y="390"/>
      <point x="1124" y="335" type="curve"/>
      <point x="1124" y="324"/>
      <point x="1129" y="321"/>
      <point x="1140" y="321" type="curve" smooth="yes"/>
      <point x="1156" y="323"/>
      <point x="1158" y="323"/>
      <point x="1160" y="349" type="curve" smooth="yes"/>
      <point x="1196" y="711"/>
      <point x="1276" y="1144"/>
      <point x="1360" y="1490" type="curve" smooth="yes"/>
      <point x="1364" y="1504"/>
      <point x="1356" y="1513"/>
      <point x="1336" y="1513" type="curve" smooth="yes"/>
      <point x="1323" y="1513"/>
      <point x="1316" y="1506"/>
      <point x="1309" y="1495" type="curve" smooth="yes"/>
      <point x="451" y="216"/>
      <point x="324" y="20"/>
      <point x="199" y="20" type="curve" smooth="yes"/>
      <point x="159" y="20"/>
      <point x="126" y="45"/>
      <point x="95" y="86" type="curve" smooth="yes"/>
      <point x="86" y="98"/>
      <point x="79" y="100"/>
      <point x="66" y="90" type="curve" smooth="yes"/>
      <point x="54" y="80"/>
      <point x="55" y="71"/>
      <point x="61" y="64" type="curve" smooth="yes"/>
      <point x="95" y="18"/>
      <point x="140" y="-17"/>
    </contour>
    <contour>
      <point x="703" y="533" type="line"/>
      <point x="848" y="746"/>
      <point x="1042" y="1037"/>
      <point x="1309" y="1434" type="curve"/>
      <point x="1248" y="1166"/>
      <point x="1185" y="849"/>
      <point x="1146" y="533" type="curve"/>
    </contour>
    <contour>
      <point x="1450" y="-19" type="curve" smooth="yes"/>
      <point x="1624" y="-19"/>
      <point x="1805" y="95"/>
      <point x="1938" y="288" type="curve" smooth="yes"/>
      <point x="1948" y="303"/>
      <point x="1948" y="311"/>
      <point x="1936" y="319" type="curve" smooth="yes"/>
      <point x="1925" y="326"/>
      <point x="1918" y="321"/>
      <point x="1910" y="311" type="curve" smooth="yes"/>
      <point x="1783" y="128"/>
      <point x="1613" y="19"/>
      <point x="1454" y="19" type="curve" smooth="yes"/>
      <point x="1278" y="19"/>
      <point x="1163" y="124"/>
      <point x="1163" y="286" type="curve" smooth="yes"/>
      <point x="1163" y="540"/>
      <point x="1366" y="769"/>
      <point x="1646" y="769" type="curve" smooth="yes"/>
      <point x="1824" y="769" type="line" smooth="yes"/>
      <point x="1836" y="769"/>
      <point x="1841" y="773"/>
      <point x="1845" y="786" type="curve" smooth="yes"/>
      <point x="1848" y="798"/>
      <point x="1848" y="804"/>
      <point x="1834" y="804" type="curve" smooth="yes"/>
      <point x="1656" y="804" type="line" smooth="yes"/>
      <point x="1518" y="804"/>
      <point x="1416" y="905"/>
      <point x="1416" y="1046" type="curve" smooth="yes"/>
      <point x="1416" y="1271"/>
      <point x="1581" y="1478"/>
      <point x="1838" y="1478" type="curve" smooth="yes"/>
      <point x="1954" y="1478"/>
      <point x="2064" y="1418"/>
      <point x="2125" y="1334" type="curve" smooth="yes"/>
      <point x="2138" y="1318"/>
      <point x="2140" y="1313"/>
      <point x="2151" y="1319" type="curve" smooth="yes"/>
      <point x="2164" y="1326"/>
      <point x="2166" y="1336"/>
      <point x="2156" y="1351" type="curve" smooth="yes"/>
      <point x="2090" y="1446"/>
      <point x="1968" y="1515"/>
      <point x="1840" y="1515" type="curve" smooth="yes"/>
      <point x="1558" y="1515"/>
      <point x="1375" y="1293"/>
      <point x="1375" y="1045" type="curve" smooth="yes"/>
      <point x="1375" y="930"/>
      <point x="1445" y="824"/>
      <point x="1541" y="793" type="curve"/>
      <point x="1304" y="749"/>
      <point x="1121" y="534"/>
      <point x="1121" y="286" type="curve" smooth="yes"/>
      <point x="1121" y="101"/>
      <point x="1251" y="-19"/>
    </contour>
  </outline>
</glyph>
<glyph name="AE.cur.ini" format="2">
  <advance width="1941"/>
  <anchor x="1860" y="0" name="cnct"/>
  <anchor x="1464" y="1424" name="top"/>
  <outline>
    <contour>
      <point x="198" y="-17" type="curve" smooth="yes"/>
      <point x="353" y="-17"/>
      <point x="468" y="183"/>
      <point x="1324" y="1456" type="curve"/>
      <point x="1316" y="1463" type="line"/>
      <point x="1240" y="1133"/>
      <point x="1160" y="726"/>
      <point x="1124" y="335" type="curve" smooth="yes"/>
      <point x="1124" y="324"/>
      <point x="1129" y="321"/>
      <point x="1140" y="321" type="curve" smooth="yes"/>
      <point x="1156" y="323"/>
      <point x="1158" y="323"/>
      <point x="1160" y="349" type="curve" smooth="yes"/>
      <point x="1196" y="711"/>
      <point x="1276" y="1144"/>
      <point x="1360" y="1490" type="curve" smooth="yes"/>
      <point x="1364" y="1504"/>
      <point x="1356" y="1513"/>
      <point x="1336" y="1513" type="curve" smooth="yes"/>
      <point x="1323" y="1513"/>
      <point x="1316" y="1506"/>
      <point x="1309" y="1495" type="curve" smooth="yes"/>
      <point x="451" y="216"/>
      <point x="324" y="20"/>
      <point x="199" y="20" type="curve" smooth="yes"/>
      <point x="159" y="20"/>
      <point x="126" y="45"/>
      <point x="95" y="86" type="curve" smooth="yes"/>
      <point x="86" y="98"/>
      <point x="79" y="100"/>
      <point x="66" y="90" type="curve" smooth="yes"/>
      <point x="54" y="80"/>
      <point x="55" y="71"/>
      <point x="61" y="64" type="curve" smooth="yes"/>
      <point x="95" y="18"/>
      <point x="140" y="-17"/>
    </contour>
    <contour>
      <point x="643" y="500" type="line"/>
      <point x="1166" y="500" type="line"/>
      <point x="1173" y="533" type="line"/>
      <point x="666" y="533" type="line"/>
    </contour>
    <contour>
      <point x="1477" y="-17" type="curve" smooth="yes"/>
      <point x="1497" y="-17"/>
      <point x="1500" y="16"/>
      <point x="1480" y="16" type="curve" smooth="yes"/>
      <point x="1298" y="16"/>
      <point x="1163" y="122"/>
      <point x="1163" y="286" type="curve" smooth="yes"/>
      <point x="1163" y="540"/>
      <point x="1366" y="769"/>
      <point x="1646" y="769" type="curve" smooth="yes"/>
      <point x="1824" y="769" type="line" smooth="yes"/>
      <point x="1836" y="769"/>
      <point x="1841" y="773"/>
      <point x="1845" y="786" type="curve" smooth="yes"/>
      <point x="1848" y="798"/>
      <point x="1848" y="804"/>
      <point x="1834" y="804" type="curve" smooth="yes"/>
      <point x="1656" y="804" type="line" smooth="yes"/>
      <point x="1518" y="804"/>
      <point x="1416" y="905"/>
      <point x="1416" y="1046" type="curve" smooth="yes"/>
      <point x="1416" y="1271"/>
      <point x="1581" y="1478"/>
      <point x="1838" y="1478" type="curve" smooth="yes"/>
      <point x="1954" y="1478"/>
      <point x="2064" y="1418"/>
      <point x="2125" y="1334" type="curve" smooth="yes"/>
      <point x="2138" y="1318"/>
      <point x="2140" y="1313"/>
      <point x="2151" y="1319" type="curve" smooth="yes"/>
      <point x="2164" y="1326"/>
      <point x="2166" y="1336"/>
      <point x="2156" y="1351" type="curve" smooth="yes"/>
      <point x="2090" y="1446"/>
      <point x="1968" y="1515"/>
      <point x="1840" y="1515" type="curve" smooth="yes"/>
      <point x="1558" y="1515"/>
      <point x="1375" y="1293"/>
      <point x="1375" y="1045" type="curve" smooth="yes"/>
      <point x="1375" y="930"/>
      <point x="1445" y="824"/>
      <point x="1541" y="793" type="curve"/>
      <point x="1304" y="749"/>
      <point x="1121" y="534"/>
      <point x="1121" y="286" type="curve" smooth="yes"/>
      <point x="1121" y="102"/>
      <point x="1272" y="-17"/>
    </contour>
  </outline>
</glyph>
<glyph name="B.cur" format="2">
  <advance width="1385"/>
  <anchor x="769" y="0" name="bottom"/>
  <anchor x="513" y="438" name="center"/>
  <anchor x="1099" y="1424" name="top"/>
  <outline>
    <contour>
      <point x="778" y="-19" type="curve" smooth="yes"/>
      <point x="1098" y="-19"/>
      <point x="1321" y="234"/>
      <point x="1321" y="488" type="curve" smooth="yes"/>
      <point x="1321" y="668"/>
      <point x="1200" y="773"/>
      <point x="1063" y="813" type="curve"/>
      <point x="1064" y="818" type="line"/>
      <point x="1299" y="874"/>
      <point x="1470" y="1051"/>
      <point x="1470" y="1240" type="curve" smooth="yes"/>
      <point x="1470" y="1420"/>
      <point x="1336" y="1515"/>
      <point x="1084" y="1515" type="curve" smooth="yes"/>
      <point x="858" y="1515"/>
      <point x="620" y="1458"/>
      <point x="430" y="1356" type="curve" smooth="yes"/>
      <point x="423" y="1353"/>
      <point x="419" y="1345"/>
      <point x="424" y="1334" type="curve" smooth="yes"/>
      <point x="429" y="1323"/>
      <point x="436" y="1319"/>
      <point x="448" y="1325" type="curve" smooth="yes"/>
      <point x="628" y="1421"/>
      <point x="861" y="1478"/>
      <point x="1084" y="1478" type="curve" smooth="yes"/>
      <point x="1309" y="1478"/>
      <point x="1429" y="1395"/>
      <point x="1429" y="1240" type="curve" smooth="yes"/>
      <point x="1429" y="1054"/>
      <point x="1249" y="886"/>
      <point x="1001" y="841" type="curve"/>
      <point x="988" y="848"/>
      <point x="966" y="851"/>
      <point x="943" y="851" type="curve" smooth="yes"/>
      <point x="888" y="851"/>
      <point x="848" y="828"/>
      <point x="848" y="795" type="curve" smooth="yes"/>
      <point x="848" y="775"/>
      <point x="868" y="766"/>
      <point x="893" y="766" type="curve" smooth="yes"/>
      <point x="923" y="766"/>
      <point x="964" y="776"/>
      <point x="990" y="790" type="curve"/>
      <point x="1146" y="764"/>
      <point x="1280" y="666"/>
      <point x="1280" y="488" type="curve" smooth="yes"/>
      <point x="1280" y="256"/>
      <point x="1078" y="19"/>
      <point x="783" y="19" type="curve" smooth="yes"/>
      <point x="665" y="19"/>
      <point x="570" y="70"/>
      <point x="545" y="149" type="curve" smooth="yes"/>
      <point x="541" y="161"/>
      <point x="531" y="164"/>
      <point x="520" y="159" type="curve" smooth="yes"/>
      <point x="509" y="154"/>
      <point x="508" y="145"/>
      <point x="513" y="130" type="curve" smooth="yes"/>
      <point x="544" y="40"/>
      <point x="650" y="-19"/>
    </contour>
    <contour>
      <point x="260" y="-19" type="curve" smooth="yes"/>
      <point x="353" y="-19"/>
      <point x="424" y="66"/>
      <point x="489" y="268" type="curve" smooth="yes"/>
      <point x="816" y="1284" type="line" smooth="yes"/>
      <point x="820" y="1295"/>
      <point x="814" y="1299"/>
      <point x="801" y="1299" type="curve" smooth="yes"/>
      <point x="785" y="1299"/>
      <point x="781" y="1295"/>
      <point x="778" y="1284" type="curve" smooth="yes"/>
      <point x="454" y="280" type="line" smooth="yes"/>
      <point x="396" y="101"/>
      <point x="338" y="18"/>
      <point x="264" y="18" type="curve" smooth="yes"/>
      <point x="186" y="18"/>
      <point x="135" y="89"/>
      <point x="104" y="239" type="curve" smooth="yes"/>
      <point x="101" y="249"/>
      <point x="93" y="253"/>
      <point x="80" y="249" type="curve" smooth="yes"/>
      <point x="69" y="245"/>
      <point x="66" y="236"/>
      <point x="69" y="226" type="curve" smooth="yes"/>
      <point x="105" y="60"/>
      <point x="168" y="-19"/>
    </contour>
  </outline>
</glyph>
<glyph name="G.cur_locl.ini" format="2">
  <advance width="1194"/>
  <anchor x="400" y="0" name="bottom"/>
  <anchor x="1113" y="0" name="cnct"/>
  <anchor x="973" y="1424" name="top"/>
  <outline>
    <contour>
      <point x="455" y="-1020" type="curve" smooth="yes"/>
      <point x="588" y="-1020"/>
      <point x="698" y="-892"/>
      <point x="779" y="-641" type="curve" smooth="yes"/>
      <point x="1245" y="793" type="line" smooth="yes"/>
      <point x="1249" y="803"/>
      <point x="1243" y="808"/>
      <point x="1228" y="808" type="curve" smooth="yes"/>
      <point x="1213" y="808"/>
      <point x="1210" y="805"/>
      <point x="1206" y="793" type="curve"/>
      <point x="964" y="316"/>
      <point x="656" y="49"/>
      <point x="434" y="49" type="curve" smooth="yes"/>
      <point x="296" y="49"/>
      <point x="224" y="151"/>
      <point x="224" y="351" type="curve" smooth="yes"/>
      <point x="224" y="855"/>
      <point x="735" y="1478"/>
      <point x="1054" y="1478" type="curve" smooth="yes"/>
      <point x="1133" y="1478"/>
      <point x="1173" y="1440"/>
      <point x="1173" y="1365" type="curve" smooth="yes"/>
      <point x="1173" y="1096"/>
      <point x="804" y="691"/>
      <point x="78" y="194" type="curve" smooth="yes"/>
      <point x="69" y="188"/>
      <point x="68" y="180"/>
      <point x="73" y="171" type="curve" smooth="yes"/>
      <point x="79" y="160"/>
      <point x="89" y="158"/>
      <point x="99" y="165" type="curve" smooth="yes"/>
      <point x="838" y="670"/>
      <point x="1214" y="1076"/>
      <point x="1214" y="1368" type="curve" smooth="yes"/>
      <point x="1214" y="1465"/>
      <point x="1163" y="1515"/>
      <point x="1060" y="1515" type="curve" smooth="yes"/>
      <point x="706" y="1515"/>
      <point x="183" y="876"/>
      <point x="183" y="350" type="curve" smooth="yes"/>
      <point x="183" y="125"/>
      <point x="266" y="11"/>
      <point x="431" y="11" type="curve" smooth="yes"/>
      <point x="650" y="11"/>
      <point x="939" y="248"/>
      <point x="1153" y="628" type="curve"/>
      <point x="744" y="-627" type="line" smooth="yes"/>
      <point x="666" y="-864"/>
      <point x="569" y="-985"/>
      <point x="460" y="-985" type="curve" smooth="yes"/>
      <point x="408" y="-985"/>
      <point x="371" y="-940"/>
      <point x="371" y="-879" type="curve" smooth="yes"/>
      <point x="371" y="-854"/>
      <point x="330" y="-854"/>
      <point x="330" y="-879" type="curve" smooth="yes"/>
      <point x="330" y="-961"/>
      <point x="383" y="-1020"/>
    </contour>
  </outline>
</glyph>
<glyph name="G.cur_ro" format="2">
  <advance width="1115"/>
  <outline>
    <contour>
      <point x="481" y="-20" type="curve" smooth="yes"/>
      <point x="730" y="-20"/>
      <point x="952" y="284"/>
      <point x="1146" y="881" type="curve" smooth="yes"/>
      <point x="1151" y="896"/>
      <point x="1144" y="902"/>
      <point x="1129" y="902" type="curve" smooth="yes"/>
      <point x="1119" y="902"/>
      <point x="1117" y="902"/>
      <point x="1101" y="889" type="curve" smooth="yes"/>
      <point x="933" y="756"/>
      <point x="762" y="653"/>
      <point x="589" y="653" type="curve" smooth="yes"/>
      <point x="477" y="653"/>
      <point x="430" y="718"/>
      <point x="430" y="809" type="curve" smooth="yes"/>
      <point x="431" y="1051"/>
      <point x="737" y="1481"/>
      <point x="1013" y="1481" type="curve" smooth="yes"/>
      <point x="1071" y="1481"/>
      <point x="1099" y="1449"/>
      <point x="1099" y="1397" type="curve" smooth="yes"/>
      <point x="1099" y="1201"/>
      <point x="788" y="912"/>
      <point x="549" y="912" type="curve" smooth="yes"/>
      <point x="405" y="912"/>
      <point x="325" y="1053"/>
      <point x="464" y="1466" type="curve" smooth="yes"/>
      <point x="468" y="1477"/>
      <point x="462" y="1481"/>
      <point x="447" y="1481" type="curve" smooth="yes"/>
      <point x="436" y="1481"/>
      <point x="430" y="1478"/>
      <point x="427" y="1469" type="curve" smooth="yes"/>
      <point x="280" y="1027"/>
      <point x="378" y="874"/>
      <point x="544" y="874" type="curve" smooth="yes"/>
      <point x="806" y="874"/>
      <point x="1139" y="1168"/>
      <point x="1139" y="1400" type="curve" smooth="yes"/>
      <point x="1139" y="1472"/>
      <point x="1100" y="1518"/>
      <point x="1020" y="1518" type="curve" smooth="yes"/>
      <point x="708" y="1518"/>
      <point x="391" y="1070"/>
      <point x="391" y="807" type="curve" smooth="yes"/>
      <point x="391" y="694"/>
      <point x="447" y="615"/>
      <point x="583" y="615" type="curve" smooth="yes"/>
      <point x="750" y="615"/>
      <point x="918" y="703"/>
      <point x="1093" y="839" type="curve"/>
      <point x="913" y="312"/>
      <point x="703" y="17"/>
      <point x="486" y="17" type="curve" smooth="yes"/>
      <point x="403" y="17"/>
      <point x="332" y="66"/>
      <point x="303" y="194" type="curve" smooth="yes"/>
      <point x="300" y="208"/>
      <point x="294" y="212"/>
      <point x="278" y="206" type="curve" smooth="yes"/>
      <point x="266" y="202"/>
      <point x="264" y="194"/>
      <point x="267" y="180" type="curve" smooth="yes"/>
      <point x="297" y="42"/>
      <point x="379" y="-20"/>
    </contour>
  </outline>
</glyph>
<glyph name="H.dec" format="2">
  <advance width="1666"/>
  <anchor x="845" y="0" name="bottom"/>
  <anchor x="1221" y="1150" name="center"/>
  <anchor x="1281" y="1424" name="top"/>
  <outline>
    <contour>
      <point x="443" y="-14" type="curve" smooth="yes"/>
      <point x="459" y="-14"/>
      <point x="463" y="-10"/>
      <point x="466" y="1" type="curve" smooth="yes"/>
      <point x="950" y="1500" type="line" smooth="yes"/>
      <point x="954" y="1511"/>
      <point x="948" y="1515"/>
      <point x="935" y="1515" type="curve" smooth="yes"/>
      <point x="919" y="1515"/>
      <point x="908" y="1509"/>
      <point x="896" y="1498" type="curve" smooth="yes"/>
      <point x="864" y="1466"/>
      <point x="830" y="1443"/>
      <point x="798" y="1443" type="curve" smooth="yes"/>
      <point x="744" y="1443"/>
      <point x="724" y="1504"/>
      <point x="654" y="1504" type="curve" smooth="yes"/>
      <point x="591" y="1504"/>
      <point x="543" y="1473"/>
      <point x="425" y="1355" type="curve" smooth="yes"/>
      <point x="416" y="1346"/>
      <point x="416" y="1339"/>
      <point x="423" y="1330" type="curve" smooth="yes"/>
      <point x="431" y="1320"/>
      <point x="440" y="1319"/>
      <point x="449" y="1328" type="curve" smooth="yes"/>
      <point x="548" y="1433"/>
      <point x="599" y="1469"/>
      <point x="650" y="1469" type="curve" smooth="yes"/>
      <point x="710" y="1469"/>
      <point x="724" y="1408"/>
      <point x="795" y="1408" type="curve" smooth="yes"/>
      <point x="824" y="1408"/>
      <point x="863" y="1425"/>
      <point x="896" y="1453" type="curve"/>
      <point x="428" y="1" type="line" smooth="yes"/>
      <point x="424" y="-10"/>
      <point x="430" y="-14"/>
    </contour>
    <contour>
      <point x="1279" y="199" type="curve"/>
      <point x="1315" y="213" type="line"/>
      <point x="1459" y="620"/>
      <point x="1348" y="828"/>
      <point x="995" y="828" type="curve" smooth="yes"/>
      <point x="781" y="828"/>
      <point x="650" y="750"/>
      <point x="650" y="624" type="curve" smooth="yes"/>
      <point x="650" y="520"/>
      <point x="769" y="456"/>
      <point x="965" y="456" type="curve" smooth="yes"/>
      <point x="1171" y="456"/>
      <point x="1371" y="488"/>
      <point x="1640" y="566" type="curve" smooth="yes"/>
      <point x="1650" y="569"/>
      <point x="1655" y="576"/>
      <point x="1653" y="589" type="curve" smooth="yes"/>
      <point x="1650" y="600"/>
      <point x="1643" y="605"/>
      <point x="1630" y="601" type="curve" smooth="yes"/>
      <point x="1375" y="525"/>
      <point x="1179" y="494"/>
      <point x="966" y="494" type="curve" smooth="yes"/>
      <point x="791" y="494"/>
      <point x="685" y="545"/>
      <point x="685" y="629" type="curve" smooth="yes"/>
      <point x="685" y="729"/>
      <point x="800" y="790"/>
      <point x="989" y="790" type="curve" smooth="yes"/>
      <point x="1308" y="790"/>
      <point x="1426" y="625"/>
    </contour>
    <contour>
      <point x="1230" y="-14" type="curve" smooth="yes"/>
      <point x="1246" y="-14"/>
      <point x="1250" y="-10"/>
      <point x="1254" y="1" type="curve" smooth="yes"/>
      <point x="1738" y="1500" type="line" smooth="yes"/>
      <point x="1741" y="1511"/>
      <point x="1735" y="1515"/>
      <point x="1723" y="1515" type="curve" smooth="yes"/>
      <point x="1706" y="1515"/>
      <point x="1703" y="1511"/>
      <point x="1699" y="1500" type="curve" smooth="yes"/>
      <point x="1215" y="1" type="line" smooth="yes"/>
      <point x="1211" y="-10"/>
      <point x="1218" y="-14"/>
    </contour>
  </outline>
</glyph>
<glyph name="I.cur.ini" format="2">
  <advance width="1450"/>
  <anchor x="948" y="0" name="bottom"/>
  <anchor x="1369" y="0" name="cnct"/>
  <anchor x="682" y="-11" name="ogonek"/>
  <anchor x="1199" y="1424" name="top"/>
  <outline>
    <contour>
      <point x="608" y="-17" type="curve" smooth="yes"/>
      <point x="1030" y="-17"/>
      <point x="1473" y="608"/>
      <point x="1473" y="1148" type="curve" smooth="yes"/>
      <point x="1473" y="1391"/>
      <point x="1393" y="1515"/>
      <point x="1235" y="1515" type="curve" smooth="yes"/>
      <point x="1039" y="1515"/>
      <point x="913" y="1284"/>
      <point x="913" y="871" type="curve" smooth="yes"/>
      <point x="913" y="356"/>
      <point x="1085" y="-17"/>
      <point x="1264" y="-17" type="curve" smooth="yes"/>
      <point x="1284" y="-17"/>
      <point x="1298" y="18"/>
      <point x="1278" y="18" type="curve" smooth="yes"/>
      <point x="1124" y="18"/>
      <point x="954" y="347"/>
      <point x="954" y="871" type="curve" smooth="yes"/>
      <point x="954" y="1248"/>
      <point x="1064" y="1478"/>
      <point x="1231" y="1478" type="curve" smooth="yes"/>
      <point x="1364" y="1478"/>
      <point x="1431" y="1366"/>
      <point x="1431" y="1148" type="curve" smooth="yes"/>
      <point x="1431" y="610"/>
      <point x="993" y="20"/>
      <point x="611" y="20" type="curve" smooth="yes"/>
      <point x="410" y="20"/>
      <point x="294" y="153"/>
      <point x="234" y="471" type="curve"/>
      <point x="353" y="423"/>
      <point x="488" y="398"/>
      <point x="641" y="398" type="curve" smooth="yes"/>
      <point x="658" y="398"/>
      <point x="663" y="405"/>
      <point x="665" y="414" type="curve" smooth="yes"/>
      <point x="669" y="430"/>
      <point x="663" y="435"/>
      <point x="653" y="435" type="curve" smooth="yes"/>
      <point x="520" y="435"/>
      <point x="380" y="451"/>
      <point x="248" y="506" type="curve" smooth="yes"/>
      <point x="234" y="513"/>
      <point x="221" y="513"/>
      <point x="209" y="504" type="curve" smooth="yes"/>
      <point x="196" y="495"/>
      <point x="190" y="485"/>
      <point x="193" y="470" type="curve" smooth="yes"/>
      <point x="260" y="126"/>
      <point x="383" y="-17"/>
    </contour>
  </outline>
</glyph>
<glyph name="I.dec" format="2">
  <advance width="870"/>
  <anchor x="361" y="0" name="bottom"/>
  <anchor x="794" y="1424" name="top"/>
  <outline>
    <contour>
      <point x="380" y="-17" type="curve" smooth="yes"/>
      <point x="493" y="-17"/>
      <point x="565" y="60"/>
      <point x="631" y="265" type="curve" smooth="yes"/>
      <point x="1030" y="1500" type="line" smooth="yes"/>
      <point x="1034" y="1511"/>
      <point x="1028" y="1515"/>
      <point x="1015" y="1515" type="curve" smooth="yes"/>
      <point x="999" y="1515"/>
      <point x="991" y="1510"/>
      <point x="979" y="1498" type="curve" smooth="yes"/>
      <point x="953" y="1471"/>
      <point x="910" y="1444"/>
      <point x="871" y="1444" type="curve" smooth="yes"/>
      <point x="810" y="1444"/>
      <point x="790" y="1504"/>
      <point x="719" y="1504" type="curve" smooth="yes"/>
      <point x="650" y="1504"/>
      <point x="591" y="1460"/>
      <point x="486" y="1356" type="curve" smooth="yes"/>
      <point x="474" y="1344"/>
      <point x="473" y="1336"/>
      <point x="481" y="1328" type="curve" smooth="yes"/>
      <point x="491" y="1318"/>
      <point x="500" y="1319"/>
      <point x="511" y="1331" type="curve" smooth="yes"/>
      <point x="603" y="1424"/>
      <point x="659" y="1469"/>
      <point x="714" y="1469" type="curve" smooth="yes"/>
      <point x="776" y="1469"/>
      <point x="790" y="1409"/>
      <point x="869" y="1409" type="curve" smooth="yes"/>
      <point x="904" y="1409"/>
      <point x="946" y="1425"/>
      <point x="976" y="1454" type="curve"/>
      <point x="595" y="273" type="line" smooth="yes"/>
      <point x="535" y="86"/>
      <point x="474" y="18"/>
      <point x="384" y="18" type="curve" smooth="yes"/>
      <point x="300" y="18"/>
      <point x="231" y="90"/>
      <point x="176" y="240" type="curve" smooth="yes"/>
      <point x="173" y="250"/>
      <point x="165" y="254"/>
      <point x="154" y="250" type="curve" smooth="yes"/>
      <point x="141" y="246"/>
      <point x="139" y="238"/>
      <point x="143" y="226" type="curve" smooth="yes"/>
      <point x="201" y="65"/>
      <point x="281" y="-17"/>
    </contour>
  </outline>
</glyph>
<glyph name="I_locl" format="2">
  <advance width="581"/>
  <anchor x="210" y="0" name="bottom"/>
  <anchor x="449" y="21" name="ogonek"/>
  <anchor x="659" y="1411" name="top"/>
  <outline>
    <contour>
      <point x="-21" y="0" type="curve" smooth="yes"/>
      <point x="441" y="0" type="line" smooth="yes"/>
      <point x="454" y="0"/>
      <point x="459" y="4"/>
      <point x="463" y="16" type="curve" smooth="yes"/>
      <point x="466" y="29"/>
      <point x="465" y="35"/>
      <point x="451" y="35" type="curve" smooth="yes"/>
      <point x="230" y="35" type="line"/>
      <point x="691" y="1453" type="line"/>
      <point x="914" y="1453" type="line" smooth="yes"/>
      <point x="926" y="1453"/>
      <point x="931" y="1456"/>
      <point x="935" y="1470" type="curve" smooth="yes"/>
      <point x="938" y="1481"/>
      <point x="938" y="1488"/>
      <point x="924" y="1488" type="curve" smooth="yes"/>
      <point x="460" y="1488" type="line" smooth="yes"/>
      <point x="448" y="1488"/>
      <point x="443" y="1484"/>
      <point x="439" y="1471" type="curve" smooth="yes"/>
      <point x="435" y="1459"/>
      <point x="436" y="1453"/>
      <point x="450" y="1453" type="curve" smooth="yes"/>
      <point x="653" y="1453" type="line"/>
      <point x="191" y="35" type="line"/>
      <point x="-11" y="35" type="line" smooth="yes"/>
      <point x="-24" y="35"/>
      <point x="-29" y="31"/>
      <point x="-32" y="18" type="curve" smooth="yes"/>
      <point x="-35" y="6"/>
      <point x="-35" y="0"/>
    </contour>
  </outline>
</glyph>
<glyph name="J.cur" format="2">
  <advance width="1169"/>
  <anchor x="200" y="-1000" name="bottom"/>
  <anchor x="901" y="1424" name="top"/>
  <outline>
    <contour>
      <point x="203" y="-1020" type="curve" smooth="yes"/>
      <point x="346" y="-1020"/>
      <point x="453" y="-902"/>
      <point x="530" y="-666" type="curve" smooth="yes"/>
      <point x="699" y="-153" type="line"/>
      <point x="794" y="-85"/>
      <point x="901" y="-15"/>
      <point x="1019" y="56" type="curve" smooth="yes"/>
      <point x="1028" y="61"/>
      <point x="1030" y="70"/>
      <point x="1025" y="80" type="curve" smooth="yes"/>
      <point x="1020" y="91"/>
      <point x="1013" y="95"/>
      <point x="1003" y="89" type="curve" smooth="yes"/>
      <point x="899" y="27"/>
      <point x="804" y="-34"/>
      <point x="718" y="-95" type="curve"/>
      <point x="1121" y="1133" type="line" smooth="yes"/>
      <point x="1199" y="1369"/>
      <point x="1139" y="1515"/>
      <point x="961" y="1515" type="curve" smooth="yes"/>
      <point x="664" y="1515"/>
      <point x="405" y="1195"/>
      <point x="405" y="783" type="curve" smooth="yes"/>
      <point x="405" y="574"/>
      <point x="453" y="386"/>
      <point x="548" y="228" type="curve" smooth="yes"/>
      <point x="555" y="216"/>
      <point x="564" y="214"/>
      <point x="575" y="223" type="curve" smooth="yes"/>
      <point x="586" y="230"/>
      <point x="589" y="239"/>
      <point x="583" y="250" type="curve" smooth="yes"/>
      <point x="494" y="394"/>
      <point x="449" y="574"/>
      <point x="449" y="783" type="curve" smooth="yes"/>
      <point x="449" y="1173"/>
      <point x="688" y="1478"/>
      <point x="958" y="1478" type="curve" smooth="yes"/>
      <point x="1104" y="1478"/>
      <point x="1153" y="1350"/>
      <point x="1085" y="1144" type="curve" smooth="yes"/>
      <point x="667" y="-130" type="line"/>
      <point x="263" y="-420"/>
      <point x="58" y="-681"/>
      <point x="58" y="-865" type="curve" smooth="yes"/>
      <point x="58" y="-957"/>
      <point x="119" y="-1020"/>
    </contour>
    <contour>
      <point x="209" y="-985" type="curve" smooth="yes"/>
      <point x="145" y="-985"/>
      <point x="99" y="-937"/>
      <point x="99" y="-865" type="curve" smooth="yes"/>
      <point x="99" y="-697"/>
      <point x="283" y="-458"/>
      <point x="648" y="-189" type="curve"/>
      <point x="496" y="-652" type="line" smooth="yes"/>
      <point x="424" y="-875"/>
      <point x="330" y="-985"/>
    </contour>
  </outline>
</glyph>
<glyph name="J.dec" format="2">
  <advance width="811"/>
  <anchor x="-37" y="-1000" name="bottom"/>
  <anchor x="796" y="1424" name="top"/>
  <outline>
    <contour>
      <point x="-41" y="-1020" type="curve" smooth="yes"/>
      <point x="90" y="-1020"/>
      <point x="199" y="-892"/>
      <point x="280" y="-641" type="curve" smooth="yes"/>
      <point x="974" y="1500" type="line" smooth="yes"/>
      <point x="978" y="1511"/>
      <point x="971" y="1515"/>
      <point x="959" y="1515" type="curve" smooth="yes"/>
      <point x="943" y="1515"/>
      <point x="935" y="1510"/>
      <point x="923" y="1498" type="curve" smooth="yes"/>
      <point x="896" y="1471"/>
      <point x="854" y="1444"/>
      <point x="815" y="1444" type="curve" smooth="yes"/>
      <point x="754" y="1444"/>
      <point x="734" y="1504"/>
      <point x="663" y="1504" type="curve" smooth="yes"/>
      <point x="594" y="1504"/>
      <point x="535" y="1460"/>
      <point x="430" y="1356" type="curve" smooth="yes"/>
      <point x="418" y="1344"/>
      <point x="416" y="1336"/>
      <point x="425" y="1328" type="curve" smooth="yes"/>
      <point x="435" y="1318"/>
      <point x="444" y="1319"/>
      <point x="455" y="1331" type="curve" smooth="yes"/>
      <point x="546" y="1424"/>
      <point x="603" y="1469"/>
      <point x="658" y="1469" type="curve" smooth="yes"/>
      <point x="720" y="1469"/>
      <point x="734" y="1409"/>
      <point x="813" y="1409" type="curve" smooth="yes"/>
      <point x="848" y="1409"/>
      <point x="890" y="1425"/>
      <point x="920" y="1454" type="curve"/>
      <point x="245" y="-627" type="line" smooth="yes"/>
      <point x="168" y="-865"/>
      <point x="73" y="-985"/>
      <point x="-36" y="-985" type="curve" smooth="yes"/>
      <point x="-90" y="-985"/>
      <point x="-129" y="-940"/>
      <point x="-129" y="-879" type="curve" smooth="yes"/>
      <point x="-129" y="-694"/>
      <point x="28" y="-494"/>
      <point x="400" y="-200" type="curve" smooth="yes"/>
      <point x="510" y="-117"/>
      <point x="638" y="-30"/>
      <point x="783" y="56" type="curve" smooth="yes"/>
      <point x="791" y="61"/>
      <point x="794" y="70"/>
      <point x="789" y="80" type="curve" smooth="yes"/>
      <point x="784" y="91"/>
      <point x="776" y="95"/>
      <point x="766" y="89" type="curve" smooth="yes"/>
      <point x="636" y="11"/>
      <point x="520" y="-66"/>
      <point x="418" y="-141" type="curve" smooth="yes"/>
      <point x="4" y="-457"/>
      <point x="-170" y="-675"/>
      <point x="-170" y="-879" type="curve" smooth="yes"/>
      <point x="-170" y="-961"/>
      <point x="-116" y="-1020"/>
    </contour>
  </outline>
</glyph>
<glyph name="J.dec.ini" format="2">
  <advance width="695"/>
  <anchor x="-37" y="-1000" name="bottom"/>
  <anchor x="614" y="0" name="cnct"/>
  <anchor x="784" y="1424" name="top"/>
  <outline>
    <contour>
      <point x="-44" y="-1020" type="curve" smooth="yes"/>
      <point x="89" y="-1020"/>
      <point x="199" y="-892"/>
      <point x="280" y="-641" type="curve" smooth="yes"/>
      <point x="974" y="1500" type="line" smooth="yes"/>
      <point x="978" y="1511"/>
      <point x="971" y="1515"/>
      <point x="959" y="1515" type="curve" smooth="yes"/>
      <point x="943" y="1515"/>
      <point x="935" y="1510"/>
      <point x="923" y="1498" type="curve" smooth="yes"/>
      <point x="896" y="1471"/>
      <point x="854" y="1444"/>
      <point x="815" y="1444" type="curve" smooth="yes"/>
      <point x="754" y="1444"/>
      <point x="734" y="1504"/>
      <point x="663" y="1504" type="curve" smooth="yes"/>
      <point x="594" y="1504"/>
      <point x="535" y="1460"/>
      <point x="430" y="1356" type="curve" smooth="yes"/>
      <point x="418" y="1344"/>
      <point x="416" y="1336"/>
      <point x="425" y="1328" type="curve" smooth="yes"/>
      <point x="435" y="1318"/>
      <point x="444" y="1319"/>
      <point x="455" y="1331" type="curve" smooth="yes"/>
      <point x="546" y="1424"/>
      <point x="603" y="1469"/>
      <point x="658" y="1469" type="curve" smooth="yes"/>
      <point x="720" y="1469"/>
      <point x="734" y="1409"/>
      <point x="813" y="1409" type="curve" smooth="yes"/>
      <point x="848" y="1409"/>
      <point x="890" y="1425"/>
      <point x="920" y="1454" type="curve"/>
      <point x="245" y="-627" type="line" smooth="yes"/>
      <point x="169" y="-864"/>
      <point x="70" y="-985"/>
      <point x="-39" y="-985" type="curve" smooth="yes"/>
      <point x="-91" y="-985"/>
      <point x="-127" y="-940"/>
      <point x="-127" y="-879" type="curve" smooth="yes"/>
      <point x="-127" y="-854"/>
      <point x="-169" y="-854"/>
      <point x="-169" y="-879" type="curve" smooth="yes"/>
      <point x="-169" y="-961"/>
      <point x="-116" y="-1020"/>
    </contour>
  </outline>
</glyph>
<glyph name="K.dec" format="2">
  <advance width="1553"/>
  <anchor x="800" y="0" name="bottom"/>
  <anchor x="1178" y="1424" name="top"/>
  <outline>
    <contour>
      <point x="1233" y="-17" type="curve" smooth="yes"/>
      <point x="1328" y="-17"/>
      <point x="1415" y="44"/>
      <point x="1518" y="164" type="curve" smooth="yes"/>
      <point x="1525" y="173"/>
      <point x="1525" y="180"/>
      <point x="1514" y="189" type="curve" smooth="yes"/>
      <point x="1505" y="195"/>
      <point x="1498" y="195"/>
      <point x="1491" y="189" type="curve" smooth="yes"/>
      <point x="1396" y="75"/>
      <point x="1311" y="18"/>
      <point x="1239" y="18" type="curve" smooth="yes"/>
      <point x="1003" y="18"/>
      <point x="1245" y="658"/>
      <point x="998" y="760" type="curve"/>
      <point x="1286" y="856"/>
      <point x="1440" y="1478"/>
      <point x="1653" y="1478" type="curve" smooth="yes"/>
      <point x="1689" y="1478"/>
      <point x="1721" y="1468"/>
      <point x="1761" y="1445" type="curve" smooth="yes"/>
      <point x="1770" y="1440"/>
      <point x="1778" y="1444"/>
      <point x="1783" y="1454" type="curve" smooth="yes"/>
      <point x="1788" y="1464"/>
      <point x="1785" y="1473"/>
      <point x="1774" y="1478" type="curve"/>
      <point x="1735" y="1500"/>
      <point x="1695" y="1513"/>
      <point x="1654" y="1513" type="curve" smooth="yes"/>
      <point x="1383" y="1513"/>
      <point x="1248" y="779"/>
      <point x="910" y="779" type="curve" smooth="yes"/>
      <point x="721" y="779" type="line"/>
      <point x="954" y="1500" type="line" smooth="yes"/>
      <point x="958" y="1511"/>
      <point x="951" y="1515"/>
      <point x="939" y="1515" type="curve" smooth="yes"/>
      <point x="923" y="1515"/>
      <point x="911" y="1509"/>
      <point x="900" y="1498" type="curve" smooth="yes"/>
      <point x="868" y="1466"/>
      <point x="834" y="1443"/>
      <point x="801" y="1443" type="curve" smooth="yes"/>
      <point x="748" y="1443"/>
      <point x="728" y="1504"/>
      <point x="658" y="1504" type="curve" smooth="yes"/>
      <point x="595" y="1504"/>
      <point x="546" y="1473"/>
      <point x="429" y="1355" type="curve" smooth="yes"/>
      <point x="420" y="1346"/>
      <point x="420" y="1339"/>
      <point x="426" y="1330" type="curve" smooth="yes"/>
      <point x="435" y="1320"/>
      <point x="444" y="1319"/>
      <point x="453" y="1328" type="curve" smooth="yes"/>
      <point x="551" y="1433"/>
      <point x="603" y="1469"/>
      <point x="654" y="1469" type="curve" smooth="yes"/>
      <point x="714" y="1469"/>
      <point x="728" y="1408"/>
      <point x="799" y="1408" type="curve" smooth="yes"/>
      <point x="828" y="1408"/>
      <point x="866" y="1425"/>
      <point x="900" y="1453" type="curve"/>
      <point x="431" y="1" type="line" smooth="yes"/>
      <point x="428" y="-10"/>
      <point x="434" y="-14"/>
      <point x="446" y="-14" type="curve" smooth="yes"/>
      <point x="463" y="-14"/>
      <point x="466" y="-10"/>
      <point x="470" y="1" type="curve" smooth="yes"/>
      <point x="710" y="744" type="line"/>
      <point x="910" y="744" type="line" smooth="yes"/>
      <point x="1251" y="744"/>
      <point x="931" y="-17"/>
    </contour>
  </outline>
</glyph>
<glyph name="L.cur" format="2">
  <advance width="1203"/>
  <anchor x="1063" y="765" name="CAT"/>
  <anchor x="598" y="0" name="bottom"/>
  <anchor x="570" y="765" name="center"/>
  <anchor x="1006" y="1424" name="top"/>
  <anchor x="1300" y="1488" name="topright"/>
  <outline>
    <contour>
      <point x="144" y="-21" type="curve" smooth="yes"/>
      <point x="273" y="-21"/>
      <point x="378" y="118"/>
      <point x="471" y="410" type="curve" smooth="yes"/>
      <point x="674" y="1039" type="line" smooth="yes"/>
      <point x="770" y="1339"/>
      <point x="886" y="1481"/>
      <point x="1033" y="1481" type="curve" smooth="yes"/>
      <point x="1134" y="1481"/>
      <point x="1201" y="1410"/>
      <point x="1243" y="1259" type="curve" smooth="yes"/>
      <point x="1246" y="1244"/>
      <point x="1255" y="1240"/>
      <point x="1268" y="1245" type="curve" smooth="yes"/>
      <point x="1278" y="1249"/>
      <point x="1279" y="1258"/>
      <point x="1275" y="1271" type="curve" smooth="yes"/>
      <point x="1229" y="1436"/>
      <point x="1151" y="1515"/>
      <point x="1034" y="1515" type="curve" smooth="yes"/>
      <point x="869" y="1515"/>
      <point x="741" y="1364"/>
      <point x="639" y="1046" type="curve" smooth="yes"/>
      <point x="438" y="425" type="line" smooth="yes"/>
      <point x="348" y="148"/>
      <point x="254" y="15"/>
      <point x="150" y="15" type="curve" smooth="yes"/>
      <point x="106" y="15"/>
      <point x="75" y="46"/>
      <point x="75" y="90" type="curve" smooth="yes"/>
      <point x="75" y="148"/>
      <point x="120" y="189"/>
      <point x="183" y="189" type="curve" smooth="yes"/>
      <point x="316" y="189"/>
      <point x="501" y="-4"/>
      <point x="728" y="-4" type="curve" smooth="yes"/>
      <point x="891" y="-4"/>
      <point x="1035" y="101"/>
      <point x="1175" y="323" type="curve" smooth="yes"/>
      <point x="1181" y="333"/>
      <point x="1179" y="341"/>
      <point x="1169" y="348" type="curve" smooth="yes"/>
      <point x="1159" y="354"/>
      <point x="1153" y="353"/>
      <point x="1146" y="344" type="curve" smooth="yes"/>
      <point x="1013" y="133"/>
      <point x="879" y="33"/>
      <point x="734" y="33" type="curve" smooth="yes"/>
      <point x="516" y="33"/>
      <point x="330" y="225"/>
      <point x="185" y="225" type="curve" smooth="yes"/>
      <point x="98" y="225"/>
      <point x="34" y="166"/>
      <point x="34" y="84" type="curve" smooth="yes"/>
      <point x="34" y="23"/>
      <point x="79" y="-21"/>
    </contour>
  </outline>
</glyph>
<glyph name="M.cur.ini" format="2">
  <advance width="1949"/>
  <anchor x="928" y="0" name="bottom"/>
  <anchor x="1868" y="0" name="cnct"/>
  <anchor x="1448" y="1424" name="top"/>
  <outline>
    <contour>
      <point x="1765" y="-17" type="curve" smooth="yes"/>
      <point x="1790" y="-17"/>
      <point x="1801" y="18"/>
      <point x="1776" y="18" type="curve" smooth="yes"/>
      <point x="1654" y="18"/>
      <point x="1635" y="173"/>
      <point x="1740" y="495" type="curve" smooth="yes"/>
      <point x="1965" y="1184" type="line" smooth="yes"/>
      <point x="2033" y="1391"/>
      <point x="1984" y="1515"/>
      <point x="1836" y="1515" type="curve" smooth="yes"/>
      <point x="1630" y="1515"/>
      <point x="1386" y="1261"/>
      <point x="1230" y="873" type="curve"/>
      <point x="1201" y="740" type="line"/>
      <point x="1373" y="1186"/>
      <point x="1625" y="1478"/>
      <point x="1825" y="1478" type="curve" smooth="yes"/>
      <point x="1956" y="1478"/>
      <point x="1986" y="1370"/>
      <point x="1929" y="1191" type="curve" smooth="yes"/>
      <point x="1698" y="481" type="line" smooth="yes"/>
      <point x="1588" y="141"/>
      <point x="1630" y="-17"/>
    </contour>
    <contour>
      <point x="324" y="-14" type="curve" smooth="yes"/>
      <point x="340" y="-14"/>
      <point x="344" y="-10"/>
      <point x="348" y="1" type="curve" smooth="yes"/>
      <point x="786" y="1354" type="line" smooth="yes"/>
      <point x="819" y="1454"/>
      <point x="793" y="1513"/>
      <point x="720" y="1513" type="curve" smooth="yes"/>
      <point x="638" y="1513"/>
      <point x="515" y="1401"/>
      <point x="389" y="1213" type="curve" smooth="yes"/>
      <point x="380" y="1200"/>
      <point x="381" y="1193"/>
      <point x="391" y="1185" type="curve" smooth="yes"/>
      <point x="400" y="1179"/>
      <point x="409" y="1181"/>
      <point x="415" y="1190" type="curve" smooth="yes"/>
      <point x="534" y="1370"/>
      <point x="645" y="1476"/>
      <point x="715" y="1476" type="curve" smooth="yes"/>
      <point x="769" y="1476"/>
      <point x="773" y="1431"/>
      <point x="748" y="1355" type="curve" smooth="yes"/>
      <point x="309" y="1" type="line" smooth="yes"/>
      <point x="305" y="-10"/>
      <point x="311" y="-14"/>
    </contour>
    <contour>
      <point x="939" y="-14" type="curve" smooth="yes"/>
      <point x="955" y="-14"/>
      <point x="959" y="-10"/>
      <point x="963" y="1" type="curve" smooth="yes"/>
      <point x="1349" y="1184" type="line" smooth="yes"/>
      <point x="1416" y="1391"/>
      <point x="1368" y="1515"/>
      <point x="1221" y="1515" type="curve" smooth="yes"/>
      <point x="1015" y="1515"/>
      <point x="771" y="1261"/>
      <point x="615" y="873" type="curve"/>
      <point x="586" y="740" type="line"/>
      <point x="758" y="1186"/>
      <point x="1010" y="1478"/>
      <point x="1210" y="1478" type="curve" smooth="yes"/>
      <point x="1338" y="1478"/>
      <point x="1370" y="1370"/>
      <point x="1311" y="1191" type="curve" smooth="yes"/>
      <point x="924" y="1" type="line" smooth="yes"/>
      <point x="920" y="-10"/>
      <point x="926" y="-14"/>
    </contour>
  </outline>
</glyph>
<glyph name="M.dec" format="2">
  <advance width="2159"/>
  <anchor x="1025" y="0" name="bottom"/>
  <anchor x="1451" y="1424" name="top"/>
  <outline>
    <contour>
      <point x="223" y="-17" type="curve" smooth="yes"/>
      <point x="385" y="-17"/>
      <point x="504" y="170"/>
      <point x="1119" y="1419" type="curve"/>
      <point x="1041" y="958"/>
      <point x="1019" y="491"/>
      <point x="1003" y="6" type="curve" smooth="yes"/>
      <point x="1003" y="-10"/>
      <point x="1010" y="-17"/>
      <point x="1025" y="-17" type="curve" smooth="yes"/>
      <point x="1043" y="-17"/>
      <point x="1054" y="-10"/>
      <point x="1061" y="4" type="curve" smooth="yes"/>
      <point x="1890" y="1418" type="line"/>
      <point x="1594" y="170"/>
      <point x="1576" y="-17"/>
      <point x="1755" y="-17" type="curve" smooth="yes"/>
      <point x="1866" y="-17"/>
      <point x="1993" y="119"/>
      <point x="2130" y="388" type="curve" smooth="yes"/>
      <point x="2135" y="398"/>
      <point x="2131" y="405"/>
      <point x="2119" y="410" type="curve" smooth="yes"/>
      <point x="2108" y="415"/>
      <point x="2100" y="414"/>
      <point x="2096" y="405" type="curve" smooth="yes"/>
      <point x="1966" y="150"/>
      <point x="1851" y="20"/>
      <point x="1755" y="20" type="curve" smooth="yes"/>
      <point x="1619" y="20"/>
      <point x="1644" y="211"/>
      <point x="1944" y="1488" type="curve" smooth="yes"/>
      <point x="1948" y="1501"/>
      <point x="1938" y="1509"/>
      <point x="1921" y="1509" type="curve" smooth="yes"/>
      <point x="1906" y="1509"/>
      <point x="1899" y="1503"/>
      <point x="1893" y="1491" type="curve" smooth="yes"/>
      <point x="1043" y="40" type="line"/>
      <point x="1058" y="525"/>
      <point x="1084" y="1000"/>
      <point x="1168" y="1486" type="curve" smooth="yes"/>
      <point x="1170" y="1501"/>
      <point x="1163" y="1509"/>
      <point x="1145" y="1509" type="curve" smooth="yes"/>
      <point x="1133" y="1509"/>
      <point x="1123" y="1503"/>
      <point x="1116" y="1490" type="curve" smooth="yes"/>
      <point x="481" y="211"/>
      <point x="365" y="20"/>
      <point x="223" y="20" type="curve" smooth="yes"/>
      <point x="174" y="20"/>
      <point x="145" y="64"/>
      <point x="145" y="136" type="curve" smooth="yes"/>
      <point x="145" y="220"/>
      <point x="173" y="308"/>
      <point x="246" y="428" type="curve" smooth="yes"/>
      <point x="251" y="438"/>
      <point x="249" y="445"/>
      <point x="239" y="451" type="curve" smooth="yes"/>
      <point x="230" y="458"/>
      <point x="221" y="456"/>
      <point x="215" y="445" type="curve" smooth="yes"/>
      <point x="134" y="318"/>
      <point x="104" y="225"/>
      <point x="104" y="138" type="curve" smooth="yes"/>
      <point x="104" y="41"/>
      <point x="149" y="-17"/>
    </contour>
  </outline>
</glyph>
<glyph name="N.cur.ini" format="2">
  <advance width="1428"/>
  <anchor x="666" y="0" name="bottom"/>
  <anchor x="1346" y="0" name="cnct"/>
  <anchor x="1118" y="1424" name="top"/>
  <outline>
    <contour>
      <point x="1244" y="-17" type="curve" smooth="yes"/>
      <point x="1269" y="-17"/>
      <point x="1280" y="18"/>
      <point x="1255" y="18" type="curve" smooth="yes"/>
      <point x="1133" y="18"/>
      <point x="1116" y="173"/>
      <point x="1221" y="495" type="curve" smooth="yes"/>
      <point x="1446" y="1184" type="line" smooth="yes"/>
      <point x="1518" y="1404"/>
      <point x="1446" y="1515"/>
      <point x="1283" y="1515" type="curve" smooth="yes"/>
      <point x="1069" y="1515"/>
      <point x="832" y="1305"/>
      <point x="664" y="976" type="curve"/>
      <point x="786" y="1354" type="line" smooth="yes"/>
      <point x="819" y="1454"/>
      <point x="793" y="1513"/>
      <point x="720" y="1513" type="curve" smooth="yes"/>
      <point x="638" y="1513"/>
      <point x="515" y="1401"/>
      <point x="389" y="1213" type="curve" smooth="yes"/>
      <point x="381" y="1200"/>
      <point x="381" y="1193"/>
      <point x="391" y="1185" type="curve" smooth="yes"/>
      <point x="400" y="1179"/>
      <point x="409" y="1181"/>
      <point x="415" y="1190" type="curve" smooth="yes"/>
      <point x="534" y="1370"/>
      <point x="645" y="1476"/>
      <point x="715" y="1476" type="curve" smooth="yes"/>
      <point x="769" y="1476"/>
      <point x="773" y="1431"/>
      <point x="748" y="1355" type="curve" smooth="yes"/>
      <point x="309" y="1" type="line" smooth="yes"/>
      <point x="305" y="-10"/>
      <point x="311" y="-14"/>
      <point x="324" y="-14" type="curve" smooth="yes"/>
      <point x="340" y="-14"/>
      <point x="344" y="-10"/>
      <point x="348" y="1" type="curve" smooth="yes"/>
      <point x="592" y="753" type="line"/>
      <point x="775" y="1192"/>
      <point x="1045" y="1478"/>
      <point x="1276" y="1478" type="curve" smooth="yes"/>
      <point x="1420" y="1478"/>
      <point x="1475" y="1391"/>
      <point x="1410" y="1191" type="curve" smooth="yes"/>
      <point x="1179" y="481" type="line" smooth="yes"/>
      <point x="1069" y="141"/>
      <point x="1106" y="-17"/>
    </contour>
  </outline>
</glyph>
<glyph name="O.dec" format="2">
  <advance width="1528"/>
  <anchor x="636" y="0" name="bottom"/>
  <anchor x="879" y="744" name="center"/>
  <anchor x="1216" y="21" name="ogonek"/>
  <anchor x="1063" y="1424" name="top"/>
  <anchor x="1267" y="1478" name="topright"/>
  <outline>
    <contour>
      <point x="1090" y="1515" type="curve" smooth="yes"/>
      <point x="906" y="1515"/>
      <point x="744" y="1396"/>
      <point x="744" y="1209" type="curve" smooth="yes"/>
      <point x="744" y="1021"/>
      <point x="896" y="906"/>
      <point x="1148" y="906" type="curve" smooth="yes"/>
      <point x="1314" y="906"/>
      <point x="1499" y="950"/>
      <point x="1755" y="1030" type="curve" smooth="yes"/>
      <point x="1766" y="1034"/>
      <point x="1771" y="1043"/>
      <point x="1768" y="1055" type="curve" smooth="yes"/>
      <point x="1764" y="1066"/>
      <point x="1756" y="1070"/>
      <point x="1744" y="1065" type="curve" smooth="yes"/>
      <point x="1525" y="989"/>
      <point x="1303" y="944"/>
      <point x="1150" y="944" type="curve" smooth="yes"/>
      <point x="924" y="944"/>
      <point x="785" y="1045"/>
      <point x="785" y="1210" type="curve" smooth="yes"/>
      <point x="785" y="1374"/>
      <point x="904" y="1478"/>
      <point x="1090" y="1478" type="curve" smooth="yes"/>
      <point x="1326" y="1478"/>
      <point x="1449" y="1313"/>
      <point x="1449" y="1033" type="curve" smooth="yes"/>
      <point x="1449" y="595"/>
      <point x="1150" y="8"/>
      <point x="695" y="8" type="curve" smooth="yes"/>
      <point x="463" y="8"/>
      <point x="320" y="175"/>
      <point x="320" y="469" type="curve" smooth="yes"/>
      <point x="320" y="866"/>
      <point x="565" y="1381"/>
      <point x="995" y="1474" type="curve" smooth="yes"/>
      <point x="1008" y="1478"/>
      <point x="1013" y="1485"/>
      <point x="1010" y="1496" type="curve" smooth="yes"/>
      <point x="1008" y="1505"/>
      <point x="1000" y="1509"/>
      <point x="988" y="1506" type="curve" smooth="yes"/>
      <point x="534" y="1410"/>
      <point x="279" y="881"/>
      <point x="279" y="469" type="curve" smooth="yes"/>
      <point x="279" y="150"/>
      <point x="439" y="-30"/>
      <point x="693" y="-30" type="curve" smooth="yes"/>
      <point x="1185" y="-30"/>
      <point x="1490" y="578"/>
      <point x="1490" y="1031" type="curve" smooth="yes"/>
      <point x="1490" y="1328"/>
      <point x="1353" y="1515"/>
    </contour>
  </outline>
</glyph>
<glyph name="OE.cur.ini" format="2">
  <advance width="1995"/>
  <anchor x="1914" y="0" name="cnct"/>
  <anchor x="1460" y="1424" name="top"/>
  <outline>
    <contour>
      <point x="649" y="-19" type="curve" smooth="yes"/>
      <point x="1028" y="-19"/>
      <point x="1421" y="598"/>
      <point x="1421" y="1090" type="curve" smooth="yes"/>
      <point x="1421" y="1371"/>
      <point x="1336" y="1515"/>
      <point x="1169" y="1515" type="curve" smooth="yes"/>
      <point x="989" y="1515"/>
      <point x="791" y="1363"/>
      <point x="666" y="1134" type="curve" smooth="yes"/>
      <point x="658" y="1119"/>
      <point x="656" y="1110"/>
      <point x="666" y="1104" type="curve" smooth="yes"/>
      <point x="678" y="1096"/>
      <point x="689" y="1099"/>
      <point x="696" y="1113" type="curve" smooth="yes"/>
      <point x="816" y="1331"/>
      <point x="1004" y="1478"/>
      <point x="1163" y="1478" type="curve" smooth="yes"/>
      <point x="1306" y="1478"/>
      <point x="1380" y="1346"/>
      <point x="1380" y="1090" type="curve" smooth="yes"/>
      <point x="1380" y="616"/>
      <point x="999" y="19"/>
      <point x="648" y="19" type="curve" smooth="yes"/>
      <point x="440" y="19"/>
      <point x="318" y="183"/>
      <point x="318" y="463" type="curve" smooth="yes"/>
      <point x="318" y="828"/>
      <point x="491" y="1190"/>
      <point x="759" y="1375" type="curve" smooth="yes"/>
      <point x="771" y="1384"/>
      <point x="776" y="1393"/>
      <point x="769" y="1403" type="curve" smooth="yes"/>
      <point x="763" y="1414"/>
      <point x="753" y="1414"/>
      <point x="740" y="1405" type="curve" smooth="yes"/>
      <point x="459" y="1211"/>
      <point x="276" y="839"/>
      <point x="276" y="463" type="curve" smooth="yes"/>
      <point x="276" y="161"/>
      <point x="413" y="-19"/>
    </contour>
    <contour>
      <point x="1531" y="-17" type="curve" smooth="yes"/>
      <point x="1551" y="-17"/>
      <point x="1554" y="16"/>
      <point x="1534" y="16" type="curve" smooth="yes"/>
      <point x="1353" y="16"/>
      <point x="1216" y="122"/>
      <point x="1216" y="286" type="curve" smooth="yes"/>
      <point x="1216" y="540"/>
      <point x="1420" y="769"/>
      <point x="1700" y="769" type="curve" smooth="yes"/>
      <point x="1878" y="769" type="line" smooth="yes"/>
      <point x="1890" y="769"/>
      <point x="1895" y="773"/>
      <point x="1899" y="786" type="curve" smooth="yes"/>
      <point x="1901" y="798"/>
      <point x="1901" y="804"/>
      <point x="1888" y="804" type="curve" smooth="yes"/>
      <point x="1710" y="804" type="line" smooth="yes"/>
      <point x="1576" y="804"/>
      <point x="1495" y="908"/>
      <point x="1495" y="1046" type="curve" smooth="yes"/>
      <point x="1495" y="1271"/>
      <point x="1650" y="1478"/>
      <point x="1891" y="1478" type="curve" smooth="yes"/>
      <point x="2008" y="1478"/>
      <point x="2118" y="1418"/>
      <point x="2179" y="1334" type="curve" smooth="yes"/>
      <point x="2191" y="1318"/>
      <point x="2194" y="1313"/>
      <point x="2205" y="1319" type="curve" smooth="yes"/>
      <point x="2218" y="1326"/>
      <point x="2220" y="1336"/>
      <point x="2210" y="1351" type="curve" smooth="yes"/>
      <point x="2144" y="1446"/>
      <point x="2021" y="1515"/>
      <point x="1894" y="1515" type="curve" smooth="yes"/>
      <point x="1626" y="1515"/>
      <point x="1454" y="1293"/>
      <point x="1454" y="1045" type="curve" smooth="yes"/>
      <point x="1454" y="921"/>
      <point x="1511" y="828"/>
      <point x="1606" y="795" type="curve"/>
      <point x="1364" y="751"/>
      <point x="1175" y="535"/>
      <point x="1175" y="286" type="curve" smooth="yes"/>
      <point x="1175" y="102"/>
      <point x="1328" y="-17"/>
    </contour>
  </outline>
</glyph>
<glyph name="P.dec" format="2">
  <advance width="1194"/>
  <outline>
    <contour>
      <point x="671" y="606" type="curve" smooth="yes"/>
      <point x="1101" y="636"/>
      <point x="1410" y="923"/>
      <point x="1410" y="1281" type="curve" smooth="yes"/>
      <point x="1410" y="1426"/>
      <point x="1335" y="1515"/>
      <point x="1213" y="1515" type="curve" smooth="yes"/>
      <point x="1033" y="1515"/>
      <point x="825" y="1330"/>
      <point x="668" y="1038" type="curve"/>
      <point x="816" y="1500" type="line" smooth="yes"/>
      <point x="820" y="1511"/>
      <point x="814" y="1515"/>
      <point x="801" y="1515" type="curve" smooth="yes"/>
      <point x="789" y="1515"/>
      <point x="783" y="1513"/>
      <point x="776" y="1503" type="curve" smooth="yes"/>
      <point x="659" y="1321"/>
      <point x="510" y="1169"/>
      <point x="335" y="1051" type="curve" smooth="yes"/>
      <point x="325" y="1044"/>
      <point x="324" y="1035"/>
      <point x="330" y="1025" type="curve" smooth="yes"/>
      <point x="336" y="1015"/>
      <point x="344" y="1014"/>
      <point x="354" y="1021" type="curve" smooth="yes"/>
      <point x="523" y="1141"/>
      <point x="656" y="1271"/>
      <point x="748" y="1406" type="curve"/>
      <point x="294" y="1" type="line" smooth="yes"/>
      <point x="290" y="-10"/>
      <point x="296" y="-14"/>
      <point x="309" y="-14" type="curve" smooth="yes"/>
      <point x="325" y="-14"/>
      <point x="329" y="-10"/>
      <point x="333" y="1" type="curve" smooth="yes"/>
      <point x="563" y="713" type="line" smooth="yes"/>
      <point x="703" y="1144"/>
      <point x="986" y="1478"/>
      <point x="1206" y="1478" type="curve" smooth="yes"/>
      <point x="1308" y="1478"/>
      <point x="1369" y="1404"/>
      <point x="1369" y="1281" type="curve" smooth="yes"/>
      <point x="1369" y="944"/>
      <point x="1079" y="675"/>
      <point x="676" y="643" type="curve" smooth="yes"/>
      <point x="663" y="641"/>
      <point x="655" y="635"/>
      <point x="654" y="625" type="curve" smooth="yes"/>
      <point x="651" y="611"/>
      <point x="658" y="605"/>
    </contour>
  </outline>
</glyph>
<glyph name="Q.cur" format="2">
  <advance width="1479"/>
  <outline>
    <contour>
      <point x="1139" y="-180" type="curve" smooth="yes"/>
      <point x="1234" y="-180"/>
      <point x="1299" y="-115"/>
      <point x="1398" y="80" type="curve" smooth="yes"/>
      <point x="1404" y="91"/>
      <point x="1403" y="99"/>
      <point x="1394" y="106" type="curve" smooth="yes"/>
      <point x="1383" y="115"/>
      <point x="1371" y="115"/>
      <point x="1365" y="103" type="curve" smooth="yes"/>
      <point x="1276" y="-82"/>
      <point x="1220" y="-144"/>
      <point x="1146" y="-144" type="curve" smooth="yes"/>
      <point x="976" y="-144"/>
      <point x="885" y="429"/>
      <point x="619" y="429" type="curve" smooth="yes"/>
      <point x="518" y="429"/>
      <point x="445" y="351"/>
      <point x="445" y="233" type="curve" smooth="yes"/>
      <point x="445" y="86"/>
      <point x="560" y="-19"/>
      <point x="720" y="-19" type="curve" smooth="yes"/>
      <point x="1136" y="-19"/>
      <point x="1501" y="548"/>
      <point x="1501" y="1065" type="curve" smooth="yes"/>
      <point x="1501" y="1346"/>
      <point x="1350" y="1515"/>
      <point x="1086" y="1515" type="curve" smooth="yes"/>
      <point x="634" y="1515"/>
      <point x="266" y="999"/>
      <point x="266" y="461" type="curve" smooth="yes"/>
      <point x="266" y="401"/>
      <point x="271" y="356"/>
      <point x="281" y="315" type="curve" smooth="yes"/>
      <point x="286" y="293"/>
      <point x="321" y="299"/>
      <point x="316" y="326" type="curve" smooth="yes"/>
      <point x="311" y="356"/>
      <point x="308" y="415"/>
      <point x="308" y="463" type="curve" smooth="yes"/>
      <point x="308" y="981"/>
      <point x="660" y="1478"/>
      <point x="1086" y="1478" type="curve" smooth="yes"/>
      <point x="1321" y="1478"/>
      <point x="1460" y="1325"/>
      <point x="1460" y="1065" type="curve" smooth="yes"/>
      <point x="1460" y="566"/>
      <point x="1120" y="19"/>
      <point x="719" y="19" type="curve" smooth="yes"/>
      <point x="584" y="19"/>
      <point x="486" y="109"/>
      <point x="486" y="234" type="curve" smooth="yes"/>
      <point x="486" y="330"/>
      <point x="541" y="391"/>
      <point x="618" y="391" type="curve" smooth="yes"/>
      <point x="854" y="391"/>
      <point x="945" y="-180"/>
    </contour>
  </outline>
</glyph>
<glyph name="Q.cur.ini" format="2">
  <advance width="1459"/>
  <anchor x="1378" y="0" name="cnct"/>
  <outline>
    <contour>
      <point x="1275" y="-17" type="curve" smooth="yes"/>
      <point x="1300" y="-17"/>
      <point x="1311" y="18"/>
      <point x="1286" y="18" type="curve" smooth="yes"/>
      <point x="1116" y="18"/>
      <point x="968" y="429"/>
      <point x="644" y="429" type="curve" smooth="yes"/>
      <point x="528" y="429"/>
      <point x="445" y="351"/>
      <point x="445" y="233" type="curve" smooth="yes"/>
      <point x="445" y="86"/>
      <point x="560" y="-19"/>
      <point x="720" y="-19" type="curve" smooth="yes"/>
      <point x="1136" y="-19"/>
      <point x="1501" y="548"/>
      <point x="1501" y="1065" type="curve" smooth="yes"/>
      <point x="1501" y="1346"/>
      <point x="1350" y="1515"/>
      <point x="1086" y="1515" type="curve" smooth="yes"/>
      <point x="634" y="1515"/>
      <point x="266" y="999"/>
      <point x="266" y="461" type="curve" smooth="yes"/>
      <point x="266" y="401"/>
      <point x="271" y="356"/>
      <point x="281" y="315" type="curve" smooth="yes"/>
      <point x="286" y="293"/>
      <point x="321" y="299"/>
      <point x="316" y="326" type="curve" smooth="yes"/>
      <point x="311" y="356"/>
      <point x="308" y="415"/>
      <point x="308" y="463" type="curve" smooth="yes"/>
      <point x="308" y="981"/>
      <point x="660" y="1478"/>
      <point x="1086" y="1478" type="curve" smooth="yes"/>
      <point x="1321" y="1478"/>
      <point x="1460" y="1325"/>
      <point x="1460" y="1065" type="curve" smooth="yes"/>
      <point x="1460" y="566"/>
      <point x="1120" y="19"/>
      <point x="719" y="19" type="curve" smooth="yes"/>
      <point x="584" y="19"/>
      <point x="486" y="109"/>
      <point x="486" y="234" type="curve" smooth="yes"/>
      <point x="486" y="330"/>
      <point x="551" y="391"/>
      <point x="643" y="391" type="curve" smooth="yes"/>
      <point x="945" y="391"/>
      <point x="1096" y="-17"/>
    </contour>
  </outline>
</glyph>
<glyph name="Q.cur_locl" format="2">
  <advance width="1479"/>
  <anchor x="635" y="0" name="bottom"/>
  <anchor x="878" y="744" name="center"/>
  <anchor x="1215" y="21" name="ogonek"/>
  <anchor x="1063" y="1424" name="top"/>
  <anchor x="1358" y="1424" name="topright"/>
  <outline>
    <contour>
      <point x="1138" y="-180" type="curve" smooth="yes"/>
      <point x="1221" y="-180"/>
      <point x="1299" y="-115"/>
      <point x="1398" y="80" type="curve" smooth="yes"/>
      <point x="1404" y="91"/>
      <point x="1403" y="99"/>
      <point x="1394" y="106" type="curve" smooth="yes"/>
      <point x="1383" y="115"/>
      <point x="1371" y="115"/>
      <point x="1365" y="103" type="curve" smooth="yes"/>
      <point x="1276" y="-82"/>
      <point x="1204" y="-144"/>
      <point x="1145" y="-144" type="curve" smooth="yes"/>
      <point x="995" y="-144"/>
      <point x="948" y="429"/>
      <point x="694" y="429" type="curve" smooth="yes"/>
      <point x="669" y="429"/>
      <point x="668" y="391"/>
      <point x="693" y="391" type="curve" smooth="yes"/>
      <point x="915" y="391"/>
      <point x="963" y="-180"/>
    </contour>
    <component base="O"/>
  </outline>
</glyph>
<glyph name="Q.dec_pt.ini" format="2">
  <advance width="1100"/>
  <anchor x="1019" y="0" name="cnct"/>
  <outline>
    <contour>
      <point x="1184" y="1153" type="curve"/>
      <point x="1054" y="783" type="line" smooth="yes"/>
      <point x="909" y="371"/>
      <point x="630" y="15"/>
      <point x="439" y="15" type="curve" smooth="yes"/>
      <point x="385" y="15"/>
      <point x="351" y="44"/>
      <point x="351" y="90" type="curve" smooth="yes"/>
      <point x="351" y="145"/>
      <point x="390" y="199"/>
      <point x="455" y="199" type="curve" smooth="yes"/>
      <point x="618" y="199"/>
      <point x="766" y="-17"/>
      <point x="916" y="-17" type="curve" smooth="yes"/>
      <point x="941" y="-17"/>
      <point x="953" y="18"/>
      <point x="928" y="18" type="curve" smooth="yes"/>
      <point x="781" y="18"/>
      <point x="643" y="234"/>
      <point x="458" y="234" type="curve" smooth="yes"/>
      <point x="363" y="234"/>
      <point x="310" y="164"/>
      <point x="310" y="86" type="curve" smooth="yes"/>
      <point x="310" y="20"/>
      <point x="358" y="-20"/>
      <point x="435" y="-20" type="curve" smooth="yes"/>
      <point x="654" y="-20"/>
      <point x="939" y="351"/>
      <point x="1091" y="783" type="curve" smooth="yes"/>
      <point x="1276" y="1309" type="line" smooth="yes"/>
      <point x="1280" y="1320"/>
      <point x="1276" y="1324"/>
      <point x="1263" y="1324" type="curve" smooth="yes"/>
      <point x="1249" y="1324"/>
      <point x="1241" y="1320"/>
      <point x="1238" y="1308" type="curve"/>
      <point x="1048" y="971"/>
      <point x="789" y="728"/>
      <point x="621" y="728" type="curve" smooth="yes"/>
      <point x="540" y="728"/>
      <point x="494" y="776"/>
      <point x="494" y="873" type="curve" smooth="yes"/>
      <point x="494" y="1099"/>
      <point x="739" y="1479"/>
      <point x="929" y="1479" type="curve" smooth="yes"/>
      <point x="975" y="1479"/>
      <point x="1003" y="1450"/>
      <point x="1003" y="1404" type="curve" smooth="yes"/>
      <point x="1003" y="1251"/>
      <point x="800" y="1098"/>
      <point x="623" y="1098" type="curve" smooth="yes"/>
      <point x="543" y="1098"/>
      <point x="444" y="1125"/>
      <point x="383" y="1154" type="curve" smooth="yes"/>
      <point x="376" y="1156"/>
      <point x="369" y="1155"/>
      <point x="364" y="1144" type="curve" smooth="yes"/>
      <point x="358" y="1130"/>
      <point x="361" y="1126"/>
      <point x="369" y="1123" type="curve" smooth="yes"/>
      <point x="439" y="1089"/>
      <point x="540" y="1065"/>
      <point x="615" y="1065" type="curve"/>
      <point x="830" y="1065"/>
      <point x="1043" y="1234"/>
      <point x="1043" y="1406" type="curve" smooth="yes"/>
      <point x="1043" y="1474"/>
      <point x="1001" y="1515"/>
      <point x="934" y="1515" type="curve" smooth="yes"/>
      <point x="718" y="1515"/>
      <point x="453" y="1121"/>
      <point x="453" y="870" type="curve" smooth="yes"/>
      <point x="453" y="751"/>
      <point x="510" y="690"/>
      <point x="614" y="690" type="curve" smooth="yes"/>
      <point x="778" y="690"/>
      <point x="1003" y="878"/>
    </contour>
  </outline>
</glyph>
<glyph name="R.cur" format="2">
  <advance width="1445"/>
  <anchor x="698" y="0" name="bottom"/>
  <anchor x="1100" y="1424" name="top"/>
  <outline>
    <contour>
      <point x="1148" y="-19" type="curve" smooth="yes"/>
      <point x="1223" y="-19"/>
      <point x="1284" y="38"/>
      <point x="1370" y="186" type="curve" smooth="yes"/>
      <point x="1375" y="195"/>
      <point x="1375" y="201"/>
      <point x="1365" y="209" type="curve" smooth="yes"/>
      <point x="1354" y="216"/>
      <point x="1345" y="214"/>
      <point x="1338" y="201" type="curve" smooth="yes"/>
      <point x="1258" y="68"/>
      <point x="1205" y="18"/>
      <point x="1150" y="18" type="curve" smooth="yes"/>
      <point x="1076" y="18"/>
      <point x="1050" y="95"/>
      <point x="954" y="399" type="curve" smooth="yes"/>
      <point x="925" y="488"/>
      <point x="901" y="580"/>
      <point x="875" y="670" type="curve"/>
      <point x="1214" y="718"/>
      <point x="1459" y="940"/>
      <point x="1459" y="1200" type="curve" smooth="yes"/>
      <point x="1459" y="1390"/>
      <point x="1334" y="1515"/>
      <point x="1086" y="1515" type="curve" smooth="yes"/>
      <point x="858" y="1515"/>
      <point x="620" y="1458"/>
      <point x="430" y="1356" type="curve" smooth="yes"/>
      <point x="423" y="1353"/>
      <point x="419" y="1345"/>
      <point x="424" y="1334" type="curve" smooth="yes"/>
      <point x="429" y="1323"/>
      <point x="436" y="1319"/>
      <point x="448" y="1325" type="curve" smooth="yes"/>
      <point x="628" y="1421"/>
      <point x="861" y="1478"/>
      <point x="1084" y="1478" type="curve" smooth="yes"/>
      <point x="1308" y="1478"/>
      <point x="1418" y="1366"/>
      <point x="1418" y="1195" type="curve" smooth="yes"/>
      <point x="1418" y="955"/>
      <point x="1186" y="749"/>
      <point x="866" y="705" type="curve"/>
      <point x="854" y="738"/>
      <point x="815" y="760"/>
      <point x="784" y="760" type="curve" smooth="yes"/>
      <point x="751" y="760"/>
      <point x="723" y="741"/>
      <point x="723" y="708" type="curve" smooth="yes"/>
      <point x="723" y="670"/>
      <point x="766" y="649"/>
      <point x="839" y="660" type="curve"/>
      <point x="866" y="568"/>
      <point x="893" y="475"/>
      <point x="920" y="383" type="curve" smooth="yes"/>
      <point x="1014" y="63"/>
      <point x="1056" y="-19"/>
    </contour>
    <contour>
      <point x="260" y="-19" type="curve" smooth="yes"/>
      <point x="353" y="-19"/>
      <point x="424" y="66"/>
      <point x="489" y="268" type="curve" smooth="yes"/>
      <point x="813" y="1271" type="line" smooth="yes"/>
      <point x="816" y="1283"/>
      <point x="810" y="1286"/>
      <point x="798" y="1286" type="curve" smooth="yes"/>
      <point x="781" y="1286"/>
      <point x="778" y="1283"/>
      <point x="774" y="1271" type="curve" smooth="yes"/>
      <point x="454" y="280" type="line" smooth="yes"/>
      <point x="396" y="101"/>
      <point x="338" y="18"/>
      <point x="264" y="18" type="curve" smooth="yes"/>
      <point x="186" y="18"/>
      <point x="135" y="89"/>
      <point x="104" y="239" type="curve" smooth="yes"/>
      <point x="101" y="249"/>
      <point x="93" y="253"/>
      <point x="80" y="249" type="curve" smooth="yes"/>
      <point x="69" y="245"/>
      <point x="66" y="236"/>
      <point x="69" y="226" type="curve" smooth="yes"/>
      <point x="105" y="60"/>
      <point x="168" y="-19"/>
    </contour>
  </outline>
</glyph>
<glyph name="S.cur" format="2">
  <advance width="1384"/>
  <anchor x="738" y="0" name="bottom"/>
  <anchor x="1063" y="1488" name="top"/>
  <outline>
    <contour>
      <point x="868" y="-19" type="curve" smooth="yes"/>
      <point x="1140" y="-19"/>
      <point x="1338" y="191"/>
      <point x="1338" y="483" type="curve" smooth="yes"/>
      <point x="1338" y="750"/>
      <point x="1130" y="957"/>
      <point x="1038" y="1124" type="curve"/>
      <point x="1146" y="1290"/>
      <point x="1200" y="1390"/>
      <point x="1200" y="1476" type="curve" smooth="yes"/>
      <point x="1200" y="1553"/>
      <point x="1158" y="1594"/>
      <point x="1089" y="1594" type="curve" smooth="yes"/>
      <point x="988" y="1594"/>
      <point x="930" y="1495"/>
      <point x="930" y="1370" type="curve" smooth="yes"/>
      <point x="930" y="1274"/>
      <point x="956" y="1195"/>
      <point x="993" y="1122" type="curve"/>
      <point x="574" y="469"/>
      <point x="247" y="30"/>
      <point x="-12" y="30" type="curve" smooth="yes"/>
      <point x="-35" y="30"/>
      <point x="-44" y="19"/>
      <point x="-44" y="5" type="curve" smooth="yes"/>
      <point x="-44" y="-4"/>
      <point x="-37" y="-7"/>
      <point x="-22" y="-7" type="curve" smooth="yes"/>
      <point x="273" y="-7"/>
      <point x="589" y="430"/>
      <point x="1013" y="1086" type="curve"/>
      <point x="1123" y="902"/>
      <point x="1296" y="732"/>
      <point x="1296" y="483" type="curve" smooth="yes"/>
      <point x="1296" y="214"/>
      <point x="1116" y="19"/>
      <point x="868" y="19" type="curve" smooth="yes"/>
      <point x="723" y="19"/>
      <point x="630" y="86"/>
      <point x="556" y="184" type="curve" smooth="yes"/>
      <point x="548" y="196"/>
      <point x="538" y="196"/>
      <point x="529" y="189" type="curve" smooth="yes"/>
      <point x="520" y="180"/>
      <point x="521" y="171"/>
      <point x="531" y="158" type="curve" smooth="yes"/>
      <point x="598" y="58"/>
      <point x="723" y="-19"/>
    </contour>
    <contour>
      <point x="1019" y="1163" type="curve"/>
      <point x="990" y="1224"/>
      <point x="971" y="1291"/>
      <point x="971" y="1370" type="curve" smooth="yes"/>
      <point x="971" y="1469"/>
      <point x="1011" y="1556"/>
      <point x="1089" y="1556" type="curve" smooth="yes"/>
      <point x="1134" y="1556"/>
      <point x="1159" y="1530"/>
      <point x="1159" y="1476" type="curve" smooth="yes"/>
      <point x="1159" y="1396"/>
      <point x="1110" y="1306"/>
    </contour>
  </outline>
</glyph>
<glyph name="T.cur" format="2">
  <advance width="1118"/>
  <anchor x="600" y="0" name="bottom"/>
  <anchor x="580" y="744" name="center"/>
  <anchor x="978" y="1424" name="top"/>
  <outline>
    <contour>
      <point x="611" y="-19" type="curve" smooth="yes"/>
      <point x="761" y="-19"/>
      <point x="920" y="95"/>
      <point x="1049" y="269" type="curve" smooth="yes"/>
      <point x="1055" y="276"/>
      <point x="1051" y="288"/>
      <point x="1044" y="294" type="curve" smooth="yes"/>
      <point x="1034" y="301"/>
      <point x="1025" y="299"/>
      <point x="1020" y="291" type="curve" smooth="yes"/>
      <point x="901" y="126"/>
      <point x="754" y="19"/>
      <point x="615" y="19" type="curve" smooth="yes"/>
      <point x="508" y="19"/>
      <point x="445" y="101"/>
      <point x="445" y="240" type="curve" smooth="yes"/>
      <point x="445" y="549"/>
      <point x="674" y="999"/>
      <point x="1060" y="1453" type="curve"/>
      <point x="1407" y="1453" type="line" smooth="yes"/>
      <point x="1419" y="1453"/>
      <point x="1424" y="1456"/>
      <point x="1428" y="1470" type="curve" smooth="yes"/>
      <point x="1430" y="1481"/>
      <point x="1430" y="1488"/>
      <point x="1417" y="1488" type="curve" smooth="yes"/>
      <point x="768" y="1488" type="line" smooth="yes"/>
      <point x="565" y="1488"/>
      <point x="419" y="1376"/>
      <point x="338" y="1191" type="curve" smooth="yes"/>
      <point x="331" y="1178"/>
      <point x="334" y="1171"/>
      <point x="343" y="1166" type="curve" smooth="yes"/>
      <point x="355" y="1159"/>
      <point x="364" y="1163"/>
      <point x="369" y="1174" type="curve" smooth="yes"/>
      <point x="446" y="1348"/>
      <point x="576" y="1453"/>
      <point x="754" y="1453" type="curve" smooth="yes"/>
      <point x="1011" y="1453" type="line"/>
      <point x="629" y="1006"/>
      <point x="404" y="556"/>
      <point x="404" y="240" type="curve" smooth="yes"/>
      <point x="404" y="78"/>
      <point x="481" y="-19"/>
    </contour>
  </outline>
</glyph>
<glyph name="T.cur.ini" format="2">
  <advance width="938"/>
  <anchor x="600" y="0" name="bottom"/>
  <anchor x="580" y="744" name="center"/>
  <anchor x="856" y="0" name="cnct"/>
  <anchor x="978" y="1424" name="top"/>
  <outline>
    <contour>
      <point x="646" y="-17" type="curve" smooth="yes"/>
      <point x="671" y="-17"/>
      <point x="675" y="16"/>
      <point x="650" y="16" type="curve" smooth="yes"/>
      <point x="510" y="16"/>
      <point x="425" y="124"/>
      <point x="425" y="301" type="curve" smooth="yes"/>
      <point x="425" y="583"/>
      <point x="692" y="1067"/>
      <point x="1060" y="1453" type="curve"/>
      <point x="1398" y="1453" type="line" smooth="yes"/>
      <point x="1410" y="1453"/>
      <point x="1415" y="1456"/>
      <point x="1419" y="1470" type="curve" smooth="yes"/>
      <point x="1421" y="1481"/>
      <point x="1421" y="1488"/>
      <point x="1408" y="1488" type="curve" smooth="yes"/>
      <point x="768" y="1488" type="line" smooth="yes"/>
      <point x="535" y="1488"/>
      <point x="419" y="1376"/>
      <point x="338" y="1191" type="curve" smooth="yes"/>
      <point x="331" y="1178"/>
      <point x="334" y="1171"/>
      <point x="343" y="1166" type="curve" smooth="yes"/>
      <point x="355" y="1159"/>
      <point x="364" y="1163"/>
      <point x="369" y="1174" type="curve" smooth="yes"/>
      <point x="446" y="1348"/>
      <point x="546" y="1453"/>
      <point x="754" y="1453" type="curve" smooth="yes"/>
      <point x="1011" y="1453" type="line"/>
      <point x="647" y="1073"/>
      <point x="384" y="590"/>
      <point x="384" y="301" type="curve" smooth="yes"/>
      <point x="384" y="103"/>
      <point x="482" y="-17"/>
    </contour>
  </outline>
</glyph>
<glyph name="T.cur_locl" format="2">
  <advance width="1490"/>
  <anchor x="858" y="0" name="bottom"/>
  <anchor x="909" y="744" name="center"/>
  <anchor x="1130" y="1424" name="top"/>
  <outline>
    <contour>
      <point x="921" y="-17" type="curve" smooth="yes"/>
      <point x="1066" y="-17"/>
      <point x="1224" y="39"/>
      <point x="1394" y="151" type="curve" smooth="yes"/>
      <point x="1400" y="156"/>
      <point x="1403" y="165"/>
      <point x="1395" y="178" type="curve" smooth="yes"/>
      <point x="1389" y="188"/>
      <point x="1381" y="188"/>
      <point x="1371" y="180" type="curve" smooth="yes"/>
      <point x="1218" y="74"/>
      <point x="1066" y="20"/>
      <point x="923" y="20" type="curve" smooth="yes"/>
      <point x="724" y="20"/>
      <point x="603" y="155"/>
      <point x="603" y="378" type="curve" smooth="yes"/>
      <point x="603" y="473"/>
      <point x="621" y="559"/>
      <point x="658" y="640" type="curve"/>
      <point x="1026" y="640" type="line" smooth="yes"/>
      <point x="1034" y="640"/>
      <point x="1039" y="645"/>
      <point x="1041" y="658" type="curve" smooth="yes"/>
      <point x="1044" y="669"/>
      <point x="1040" y="675"/>
      <point x="1033" y="675" type="curve" smooth="yes"/>
      <point x="674" y="675" type="line"/>
      <point x="816" y="954"/>
      <point x="1166" y="1174"/>
      <point x="1660" y="1449" type="curve" smooth="yes"/>
      <point x="1675" y="1456"/>
      <point x="1679" y="1469"/>
      <point x="1671" y="1485" type="curve" smooth="yes"/>
      <point x="1665" y="1498"/>
      <point x="1654" y="1501"/>
      <point x="1640" y="1494" type="curve" smooth="yes"/>
      <point x="1534" y="1444"/>
      <point x="1433" y="1419"/>
      <point x="1341" y="1419" type="curve" smooth="yes"/>
      <point x="1190" y="1419"/>
      <point x="1119" y="1515"/>
      <point x="945" y="1515" type="curve" smooth="yes"/>
      <point x="773" y="1515"/>
      <point x="600" y="1433"/>
      <point x="433" y="1269" type="curve" smooth="yes"/>
      <point x="423" y="1260"/>
      <point x="423" y="1250"/>
      <point x="431" y="1240" type="curve" smooth="yes"/>
      <point x="441" y="1229"/>
      <point x="450" y="1228"/>
      <point x="460" y="1238" type="curve" smooth="yes"/>
      <point x="614" y="1396"/>
      <point x="778" y="1478"/>
      <point x="945" y="1478" type="curve" smooth="yes"/>
      <point x="1103" y="1478"/>
      <point x="1176" y="1381"/>
      <point x="1341" y="1381" type="curve" smooth="yes"/>
      <point x="1403" y="1381"/>
      <point x="1460" y="1391"/>
      <point x="1518" y="1411" type="curve"/>
      <point x="1088" y="1170"/>
      <point x="766" y="951"/>
      <point x="631" y="675" type="curve"/>
      <point x="441" y="675" type="line" smooth="yes"/>
      <point x="434" y="675"/>
      <point x="430" y="670"/>
      <point x="428" y="659" type="curve" smooth="yes"/>
      <point x="425" y="648"/>
      <point x="428" y="640"/>
      <point x="435" y="640" type="curve" smooth="yes"/>
      <point x="615" y="640" type="line"/>
      <point x="580" y="558"/>
      <point x="561" y="469"/>
      <point x="561" y="374" type="curve" smooth="yes"/>
      <point x="561" y="130"/>
      <point x="698" y="-17"/>
    </contour>
  </outline>
</glyph>
<glyph name="T.cur_locl.ini" format="2">
  <advance width="1215"/>
  <anchor x="858" y="0" name="bottom"/>
  <anchor x="909" y="744" name="center"/>
  <anchor x="1134" y="0" name="cnct"/>
  <anchor x="1130" y="1424" name="top"/>
  <outline>
    <contour>
      <point x="924" y="-17" type="curve" smooth="yes"/>
      <point x="949" y="-17"/>
      <point x="953" y="16"/>
      <point x="928" y="16" type="curve" smooth="yes"/>
      <point x="734" y="16"/>
      <point x="615" y="148"/>
      <point x="615" y="365" type="curve" smooth="yes"/>
      <point x="615" y="464"/>
      <point x="635" y="555"/>
      <point x="673" y="640" type="curve"/>
      <point x="1033" y="640" type="line" smooth="yes"/>
      <point x="1040" y="640"/>
      <point x="1045" y="645"/>
      <point x="1048" y="658" type="curve" smooth="yes"/>
      <point x="1050" y="669"/>
      <point x="1046" y="675"/>
      <point x="1039" y="675" type="curve" smooth="yes"/>
      <point x="689" y="675" type="line"/>
      <point x="831" y="955"/>
      <point x="1174" y="1179"/>
      <point x="1660" y="1449" type="curve" smooth="yes"/>
      <point x="1675" y="1456"/>
      <point x="1679" y="1469"/>
      <point x="1671" y="1485" type="curve" smooth="yes"/>
      <point x="1665" y="1498"/>
      <point x="1654" y="1501"/>
      <point x="1640" y="1494" type="curve" smooth="yes"/>
      <point x="1534" y="1444"/>
      <point x="1433" y="1419"/>
      <point x="1341" y="1419" type="curve" smooth="yes"/>
      <point x="1190" y="1419"/>
      <point x="1119" y="1515"/>
      <point x="945" y="1515" type="curve" smooth="yes"/>
      <point x="773" y="1515"/>
      <point x="600" y="1433"/>
      <point x="433" y="1269" type="curve" smooth="yes"/>
      <point x="423" y="1260"/>
      <point x="423" y="1250"/>
      <point x="431" y="1240" type="curve" smooth="yes"/>
      <point x="441" y="1229"/>
      <point x="450" y="1228"/>
      <point x="460" y="1238" type="curve" smooth="yes"/>
      <point x="614" y="1396"/>
      <point x="778" y="1478"/>
      <point x="945" y="1478" type="curve" smooth="yes"/>
      <point x="1103" y="1478"/>
      <point x="1176" y="1381"/>
      <point x="1341" y="1381" type="curve" smooth="yes"/>
      <point x="1404" y="1381"/>
      <point x="1463" y="1391"/>
      <point x="1520" y="1411" type="curve"/>
      <point x="1099" y="1170"/>
      <point x="783" y="950"/>
      <point x="646" y="675" type="curve"/>
      <point x="448" y="675" type="line" smooth="yes"/>
      <point x="440" y="675"/>
      <point x="436" y="670"/>
      <point x="434" y="659" type="curve" smooth="yes"/>
      <point x="431" y="648"/>
      <point x="434" y="640"/>
      <point x="441" y="640" type="curve" smooth="yes"/>
      <point x="631" y="640" type="line"/>
      <point x="594" y="554"/>
      <point x="574" y="461"/>
      <point x="574" y="361" type="curve" smooth="yes"/>
      <point x="574" y="125"/>
      <point x="706" y="-17"/>
    </contour>
  </outline>
</glyph>
<glyph name="T.dec" format="2">
  <advance width="1118"/>
  <anchor x="393" y="0" name="bottom"/>
  <anchor x="771" y="744" name="center"/>
  <anchor x="980" y="1424" name="top"/>
  <outline>
    <contour>
      <point x="409" y="-19" type="curve" smooth="yes"/>
      <point x="501" y="-19"/>
      <point x="573" y="66"/>
      <point x="638" y="268" type="curve" smooth="yes"/>
      <point x="1019" y="1453" type="line"/>
      <point x="1468" y="1453" type="line" smooth="yes"/>
      <point x="1480" y="1453"/>
      <point x="1485" y="1456"/>
      <point x="1489" y="1470" type="curve" smooth="yes"/>
      <point x="1491" y="1481"/>
      <point x="1491" y="1488"/>
      <point x="1478" y="1488" type="curve" smooth="yes"/>
      <point x="768" y="1488" type="line" smooth="yes"/>
      <point x="565" y="1488"/>
      <point x="419" y="1376"/>
      <point x="338" y="1191" type="curve" smooth="yes"/>
      <point x="331" y="1178"/>
      <point x="334" y="1171"/>
      <point x="343" y="1166" type="curve" smooth="yes"/>
      <point x="355" y="1159"/>
      <point x="364" y="1163"/>
      <point x="369" y="1174" type="curve" smooth="yes"/>
      <point x="446" y="1348"/>
      <point x="576" y="1453"/>
      <point x="754" y="1453" type="curve" smooth="yes"/>
      <point x="980" y="1453" type="line"/>
      <point x="603" y="280" type="line" smooth="yes"/>
      <point x="545" y="101"/>
      <point x="486" y="18"/>
      <point x="413" y="18" type="curve" smooth="yes"/>
      <point x="335" y="18"/>
      <point x="284" y="89"/>
      <point x="253" y="239" type="curve" smooth="yes"/>
      <point x="250" y="249"/>
      <point x="241" y="253"/>
      <point x="229" y="249" type="curve" smooth="yes"/>
      <point x="218" y="245"/>
      <point x="215" y="236"/>
      <point x="218" y="226" type="curve" smooth="yes"/>
      <point x="254" y="60"/>
      <point x="316" y="-19"/>
    </contour>
  </outline>
</glyph>
<glyph name="U.cur" format="2">
  <advance width="1476"/>
  <anchor x="656" y="0" name="bottom"/>
  <anchor x="1254" y="21" name="ogonek"/>
  <anchor x="1099" y="1424" name="top"/>
  <anchor x="1513" y="1511" name="topright"/>
  <outline>
    <contour>
      <point x="564" y="-19" type="curve" smooth="yes"/>
      <point x="763" y="-19"/>
      <point x="1008" y="207"/>
      <point x="1176" y="533" type="curve"/>
      <point x="1140" y="422"/>
      <point x="1104" y="311"/>
      <point x="1068" y="200" type="curve" smooth="yes"/>
      <point x="1020" y="53"/>
      <point x="1046" y="-19"/>
      <point x="1130" y="-19" type="curve" smooth="yes"/>
      <point x="1204" y="-19"/>
      <point x="1301" y="61"/>
      <point x="1404" y="213" type="curve" smooth="yes"/>
      <point x="1410" y="223"/>
      <point x="1411" y="230"/>
      <point x="1400" y="239" type="curve" smooth="yes"/>
      <point x="1390" y="246"/>
      <point x="1383" y="244"/>
      <point x="1373" y="230" type="curve" smooth="yes"/>
      <point x="1281" y="96"/>
      <point x="1193" y="18"/>
      <point x="1133" y="18" type="curve" smooth="yes"/>
      <point x="1076" y="18"/>
      <point x="1060" y="61"/>
      <point x="1106" y="203" type="curve" smooth="yes"/>
      <point x="1528" y="1500" type="line" smooth="yes"/>
      <point x="1531" y="1511"/>
      <point x="1525" y="1515"/>
      <point x="1513" y="1515" type="curve" smooth="yes"/>
      <point x="1498" y="1515"/>
      <point x="1494" y="1511"/>
      <point x="1490" y="1500" type="curve" smooth="yes"/>
      <point x="1249" y="757" type="line"/>
      <point x="1073" y="328"/>
      <point x="788" y="16"/>
      <point x="566" y="16" type="curve" smooth="yes"/>
      <point x="414" y="16"/>
      <point x="388" y="120"/>
      <point x="448" y="305" type="curve" smooth="yes"/>
      <point x="786" y="1354" type="line" smooth="yes"/>
      <point x="819" y="1454"/>
      <point x="793" y="1513"/>
      <point x="720" y="1513" type="curve" smooth="yes"/>
      <point x="638" y="1513"/>
      <point x="515" y="1401"/>
      <point x="389" y="1213" type="curve" smooth="yes"/>
      <point x="381" y="1200"/>
      <point x="381" y="1193"/>
      <point x="391" y="1185" type="curve" smooth="yes"/>
      <point x="400" y="1179"/>
      <point x="409" y="1181"/>
      <point x="415" y="1190" type="curve" smooth="yes"/>
      <point x="534" y="1370"/>
      <point x="645" y="1476"/>
      <point x="715" y="1476" type="curve" smooth="yes"/>
      <point x="769" y="1476"/>
      <point x="773" y="1431"/>
      <point x="748" y="1355" type="curve" smooth="yes"/>
      <point x="409" y="306" type="line" smooth="yes"/>
      <point x="344" y="104"/>
      <point x="386" y="-19"/>
    </contour>
  </outline>
</glyph>
<glyph name="V.cur" format="2">
  <advance width="1409"/>
  <outline>
    <contour>
      <point x="480" y="-19" type="curve" smooth="yes"/>
      <point x="718" y="-19"/>
      <point x="1033" y="339"/>
      <point x="1289" y="883" type="curve" smooth="yes"/>
      <point x="1361" y="1036"/>
      <point x="1429" y="1223"/>
      <point x="1471" y="1409" type="curve"/>
      <point x="1504" y="1381"/>
      <point x="1639" y="1334"/>
      <point x="1698" y="1331" type="curve" smooth="yes"/>
      <point x="1730" y="1330"/>
      <point x="1731" y="1363"/>
      <point x="1710" y="1365" type="curve" smooth="yes"/>
      <point x="1604" y="1384"/>
      <point x="1500" y="1421"/>
      <point x="1476" y="1455" type="curve"/>
      <point x="1474" y="1493"/>
      <point x="1451" y="1520"/>
      <point x="1418" y="1520" type="curve" smooth="yes"/>
      <point x="1384" y="1520"/>
      <point x="1363" y="1495"/>
      <point x="1363" y="1468" type="curve" smooth="yes"/>
      <point x="1363" y="1440"/>
      <point x="1384" y="1411"/>
      <point x="1433" y="1403" type="curve"/>
      <point x="1405" y="1269"/>
      <point x="1333" y="1056"/>
      <point x="1245" y="874" type="curve" smooth="yes"/>
      <point x="991" y="341"/>
      <point x="684" y="16"/>
      <point x="488" y="16" type="curve" smooth="yes"/>
      <point x="384" y="16"/>
      <point x="358" y="111"/>
      <point x="413" y="291" type="curve" smooth="yes"/>
      <point x="524" y="654"/>
      <point x="630" y="983"/>
      <point x="734" y="1338" type="curve" smooth="yes"/>
      <point x="768" y="1456"/>
      <point x="748" y="1513"/>
      <point x="671" y="1513" type="curve" smooth="yes"/>
      <point x="596" y="1513"/>
      <point x="505" y="1416"/>
      <point x="389" y="1213" type="curve" smooth="yes"/>
      <point x="381" y="1199"/>
      <point x="381" y="1193"/>
      <point x="391" y="1185" type="curve" smooth="yes"/>
      <point x="400" y="1179"/>
      <point x="410" y="1181"/>
      <point x="415" y="1190" type="curve" smooth="yes"/>
      <point x="524" y="1384"/>
      <point x="605" y="1476"/>
      <point x="666" y="1476" type="curve" smooth="yes"/>
      <point x="720" y="1476"/>
      <point x="726" y="1435"/>
      <point x="699" y="1345" type="curve" smooth="yes"/>
      <point x="586" y="988"/>
      <point x="483" y="639"/>
      <point x="378" y="300" type="curve" smooth="yes"/>
      <point x="315" y="100"/>
      <point x="354" y="-19"/>
    </contour>
  </outline>
</glyph>
<glyph name="W.dec" format="2">
  <advance width="2139"/>
  <anchor x="1078" y="0" name="bottom"/>
  <anchor x="1451" y="1424" name="top"/>
  <outline>
    <contour>
      <point x="688" y="-17" type="curve" smooth="yes"/>
      <point x="703" y="-17"/>
      <point x="713" y="-10"/>
      <point x="720" y="5" type="curve" smooth="yes"/>
      <point x="1476" y="1438" type="line"/>
      <point x="1429" y="1058"/>
      <point x="1398" y="471"/>
      <point x="1396" y="5" type="curve" smooth="yes"/>
      <point x="1396" y="-9"/>
      <point x="1400" y="-17"/>
      <point x="1415" y="-17" type="curve" smooth="yes"/>
      <point x="1430" y="-17"/>
      <point x="1440" y="-11"/>
      <point x="1448" y="5" type="curve" smooth="yes"/>
      <point x="2036" y="1288"/>
      <point x="2154" y="1479"/>
      <point x="2355" y="1479" type="curve" smooth="yes"/>
      <point x="2393" y="1479"/>
      <point x="2430" y="1470"/>
      <point x="2466" y="1454" type="curve" smooth="yes"/>
      <point x="2480" y="1448"/>
      <point x="2488" y="1451"/>
      <point x="2493" y="1465" type="curve" smooth="yes"/>
      <point x="2496" y="1474"/>
      <point x="2495" y="1481"/>
      <point x="2481" y="1488" type="curve" smooth="yes"/>
      <point x="2443" y="1506"/>
      <point x="2401" y="1515"/>
      <point x="2358" y="1515" type="curve" smooth="yes"/>
      <point x="2130" y="1515"/>
      <point x="2013" y="1325"/>
      <point x="1434" y="61" type="curve"/>
      <point x="1438" y="559"/>
      <point x="1474" y="1158"/>
      <point x="1521" y="1496" type="curve" smooth="yes"/>
      <point x="1523" y="1509"/>
      <point x="1513" y="1515"/>
      <point x="1496" y="1515" type="curve" smooth="yes"/>
      <point x="1481" y="1515"/>
      <point x="1475" y="1510"/>
      <point x="1470" y="1501" type="curve" smooth="yes"/>
      <point x="714" y="69" type="line"/>
      <point x="871" y="1123"/>
      <point x="848" y="1515"/>
      <point x="626" y="1515" type="curve" smooth="yes"/>
      <point x="514" y="1515"/>
      <point x="445" y="1385"/>
      <point x="445" y="1173" type="curve" smooth="yes"/>
      <point x="445" y="1155"/>
      <point x="446" y="1138"/>
      <point x="448" y="1121" type="curve" smooth="yes"/>
      <point x="449" y="1111"/>
      <point x="453" y="1106"/>
      <point x="465" y="1106" type="curve" smooth="yes"/>
      <point x="479" y="1106"/>
      <point x="488" y="1113"/>
      <point x="486" y="1125" type="curve" smooth="yes"/>
      <point x="485" y="1140"/>
      <point x="484" y="1156"/>
      <point x="484" y="1175" type="curve" smooth="yes"/>
      <point x="484" y="1364"/>
      <point x="538" y="1479"/>
      <point x="625" y="1479" type="curve" smooth="yes"/>
      <point x="813" y="1479"/>
      <point x="824" y="1061"/>
      <point x="669" y="5" type="curve" smooth="yes"/>
      <point x="666" y="-9"/>
      <point x="673" y="-17"/>
    </contour>
  </outline>
</glyph>
<glyph name="X.dec" format="2">
  <advance width="1375"/>
  <outline>
    <contour>
      <point x="341" y="-17" type="curve" smooth="yes"/>
      <point x="498" y="-17"/>
      <point x="654" y="221"/>
      <point x="766" y="494" type="curve"/>
      <point x="741" y="320"/>
      <point x="711" y="-17"/>
      <point x="920" y="-17" type="curve" smooth="yes"/>
      <point x="1035" y="-17"/>
      <point x="1161" y="76"/>
      <point x="1255" y="230" type="curve" smooth="yes"/>
      <point x="1261" y="240"/>
      <point x="1259" y="249"/>
      <point x="1249" y="255" type="curve" smooth="yes"/>
      <point x="1238" y="261"/>
      <point x="1231" y="260"/>
      <point x="1225" y="251" type="curve" smooth="yes"/>
      <point x="1136" y="108"/>
      <point x="1019" y="20"/>
      <point x="923" y="20" type="curve" smooth="yes"/>
      <point x="695" y="20"/>
      <point x="802" y="545"/>
      <point x="869" y="769" type="curve" smooth="yes"/>
      <point x="973" y="1116"/>
      <point x="1159" y="1478"/>
      <point x="1344" y="1478" type="curve" smooth="yes"/>
      <point x="1409" y="1478"/>
      <point x="1465" y="1420"/>
      <point x="1511" y="1306" type="curve" smooth="yes"/>
      <point x="1516" y="1293"/>
      <point x="1525" y="1289"/>
      <point x="1536" y="1296" type="curve" smooth="yes"/>
      <point x="1545" y="1301"/>
      <point x="1549" y="1310"/>
      <point x="1544" y="1321" type="curve" smooth="yes"/>
      <point x="1494" y="1450"/>
      <point x="1426" y="1515"/>
      <point x="1345" y="1515" type="curve" smooth="yes"/>
      <point x="1185" y="1515"/>
      <point x="1033" y="1293"/>
      <point x="921" y="1025" type="curve"/>
      <point x="948" y="1194"/>
      <point x="953" y="1515"/>
      <point x="743" y="1515" type="curve" smooth="yes"/>
      <point x="663" y="1515"/>
      <point x="565" y="1445"/>
      <point x="483" y="1329" type="curve" smooth="yes"/>
      <point x="476" y="1320"/>
      <point x="476" y="1310"/>
      <point x="486" y="1303" type="curve" smooth="yes"/>
      <point x="496" y="1295"/>
      <point x="505" y="1296"/>
      <point x="513" y="1308" type="curve" smooth="yes"/>
      <point x="588" y="1414"/>
      <point x="674" y="1478"/>
      <point x="741" y="1478" type="curve" smooth="yes"/>
      <point x="974" y="1478"/>
      <point x="893" y="1008"/>
      <point x="827" y="785" type="curve" smooth="yes"/>
      <point x="724" y="434"/>
      <point x="526" y="20"/>
      <point x="344" y="20" type="curve" smooth="yes"/>
      <point x="261" y="20"/>
      <point x="190" y="108"/>
      <point x="156" y="250" type="curve" smooth="yes"/>
      <point x="154" y="259"/>
      <point x="146" y="261"/>
      <point x="134" y="258" type="curve" smooth="yes"/>
      <point x="124" y="254"/>
      <point x="120" y="248"/>
      <point x="121" y="239" type="curve"/>
      <point x="161" y="80"/>
      <point x="244" y="-17"/>
    </contour>
  </outline>
</glyph>
<glyph name="X.dec.ini" format="2">
  <advance width="1175"/>
  <anchor x="1094" y="0" name="cnct"/>
  <outline>
    <contour>
      <point x="341" y="-17" type="curve" smooth="yes"/>
      <point x="499" y="-17"/>
      <point x="655" y="224"/>
      <point x="769" y="500" type="curve"/>
      <point x="739" y="324"/>
      <point x="706" y="-17"/>
      <point x="910" y="-17" type="curve" smooth="yes"/>
      <point x="935" y="-17"/>
      <point x="943" y="18"/>
      <point x="918" y="18" type="curve" smooth="yes"/>
      <point x="690" y="18"/>
      <point x="808" y="558"/>
      <point x="869" y="769" type="curve" smooth="yes"/>
      <point x="972" y="1118"/>
      <point x="1155" y="1478"/>
      <point x="1338" y="1478" type="curve" smooth="yes"/>
      <point x="1406" y="1478"/>
      <point x="1459" y="1420"/>
      <point x="1493" y="1306" type="curve" smooth="yes"/>
      <point x="1496" y="1293"/>
      <point x="1506" y="1289"/>
      <point x="1518" y="1296" type="curve" smooth="yes"/>
      <point x="1526" y="1301"/>
      <point x="1529" y="1310"/>
      <point x="1525" y="1321" type="curve" smooth="yes"/>
      <point x="1488" y="1450"/>
      <point x="1425" y="1515"/>
      <point x="1339" y="1515" type="curve" smooth="yes"/>
      <point x="1181" y="1515"/>
      <point x="1031" y="1295"/>
      <point x="921" y="1029" type="curve"/>
      <point x="948" y="1194"/>
      <point x="953" y="1515"/>
      <point x="743" y="1515" type="curve" smooth="yes"/>
      <point x="663" y="1515"/>
      <point x="565" y="1445"/>
      <point x="483" y="1329" type="curve" smooth="yes"/>
      <point x="476" y="1320"/>
      <point x="476" y="1310"/>
      <point x="486" y="1303" type="curve" smooth="yes"/>
      <point x="496" y="1295"/>
      <point x="505" y="1296"/>
      <point x="513" y="1308" type="curve" smooth="yes"/>
      <point x="588" y="1414"/>
      <point x="674" y="1478"/>
      <point x="741" y="1478" type="curve" smooth="yes"/>
      <point x="974" y="1478"/>
      <point x="893" y="1008"/>
      <point x="827" y="785" type="curve" smooth="yes"/>
      <point x="724" y="434"/>
      <point x="526" y="20"/>
      <point x="344" y="20" type="curve" smooth="yes"/>
      <point x="261" y="20"/>
      <point x="190" y="108"/>
      <point x="156" y="250" type="curve" smooth="yes"/>
      <point x="154" y="259"/>
      <point x="146" y="261"/>
      <point x="134" y="258" type="curve" smooth="yes"/>
      <point x="124" y="254"/>
      <point x="120" y="248"/>
      <point x="121" y="239" type="curve"/>
      <point x="161" y="80"/>
      <point x="244" y="-17"/>
    </contour>
  </outline>
</glyph>
<glyph name="X.dec_locl" format="2">
  <advance width="1503"/>
  <outline>
    <contour>
      <point x="988" y="-17" type="curve" smooth="yes"/>
      <point x="1106" y="-17"/>
      <point x="1229" y="76"/>
      <point x="1323" y="230" type="curve" smooth="yes"/>
      <point x="1329" y="240"/>
      <point x="1326" y="249"/>
      <point x="1316" y="255" type="curve" smooth="yes"/>
      <point x="1305" y="261"/>
      <point x="1299" y="260"/>
      <point x="1293" y="251" type="curve" smooth="yes"/>
      <point x="1204" y="108"/>
      <point x="1094" y="20"/>
      <point x="990" y="20" type="curve" smooth="yes"/>
      <point x="890" y="20"/>
      <point x="846" y="124"/>
      <point x="846" y="275" type="curve" smooth="yes"/>
      <point x="846" y="694"/>
      <point x="1163" y="1478"/>
      <point x="1456" y="1478" type="curve" smooth="yes"/>
      <point x="1534" y="1478"/>
      <point x="1590" y="1406"/>
      <point x="1590" y="1308" type="curve" smooth="yes"/>
      <point x="1590" y="736"/>
      <point x="160" y="868"/>
      <point x="160" y="203" type="curve" smooth="yes"/>
      <point x="160" y="70"/>
      <point x="238" y="-17"/>
      <point x="345" y="-17" type="curve" smooth="yes"/>
      <point x="676" y="-17"/>
      <point x="1008" y="815"/>
      <point x="1008" y="1214" type="curve" smooth="yes"/>
      <point x="1008" y="1391"/>
      <point x="950" y="1515"/>
      <point x="813" y="1515" type="curve" smooth="yes"/>
      <point x="731" y="1515"/>
      <point x="633" y="1445"/>
      <point x="550" y="1329" type="curve" smooth="yes"/>
      <point x="544" y="1320"/>
      <point x="544" y="1310"/>
      <point x="554" y="1303" type="curve" smooth="yes"/>
      <point x="564" y="1295"/>
      <point x="573" y="1296"/>
      <point x="580" y="1308" type="curve" smooth="yes"/>
      <point x="655" y="1414"/>
      <point x="743" y="1478"/>
      <point x="811" y="1478" type="curve" smooth="yes"/>
      <point x="924" y="1478"/>
      <point x="970" y="1371"/>
      <point x="970" y="1216" type="curve" smooth="yes"/>
      <point x="970" y="796"/>
      <point x="633" y="20"/>
      <point x="348" y="20" type="curve" smooth="yes"/>
      <point x="265" y="20"/>
      <point x="205" y="90"/>
      <point x="205" y="203" type="curve" smooth="yes"/>
      <point x="205" y="838"/>
      <point x="1631" y="693"/>
      <point x="1631" y="1308" type="curve" smooth="yes"/>
      <point x="1631" y="1428"/>
      <point x="1558" y="1515"/>
      <point x="1456" y="1515" type="curve" smooth="yes"/>
      <point x="1124" y="1515"/>
      <point x="809" y="684"/>
      <point x="809" y="278" type="curve" smooth="yes"/>
      <point x="809" y="104"/>
      <point x="863" y="-17"/>
    </contour>
  </outline>
</glyph>
<glyph name="X.dec_locl.ini" format="2">
  <advance width="1278"/>
  <anchor x="1196" y="0" name="cnct"/>
  <outline>
    <contour>
      <point x="986" y="-17" type="curve" smooth="yes"/>
      <point x="1011" y="-17"/>
      <point x="1015" y="16"/>
      <point x="990" y="16" type="curve" smooth="yes"/>
      <point x="895" y="16"/>
      <point x="846" y="104"/>
      <point x="846" y="275" type="curve" smooth="yes"/>
      <point x="846" y="694"/>
      <point x="1163" y="1478"/>
      <point x="1456" y="1478" type="curve" smooth="yes"/>
      <point x="1534" y="1478"/>
      <point x="1590" y="1406"/>
      <point x="1590" y="1308" type="curve" smooth="yes"/>
      <point x="1590" y="736"/>
      <point x="160" y="868"/>
      <point x="160" y="203" type="curve" smooth="yes"/>
      <point x="160" y="70"/>
      <point x="238" y="-17"/>
      <point x="345" y="-17" type="curve" smooth="yes"/>
      <point x="676" y="-17"/>
      <point x="1008" y="815"/>
      <point x="1008" y="1214" type="curve" smooth="yes"/>
      <point x="1008" y="1391"/>
      <point x="950" y="1515"/>
      <point x="813" y="1515" type="curve" smooth="yes"/>
      <point x="731" y="1515"/>
      <point x="633" y="1445"/>
      <point x="550" y="1329" type="curve" smooth="yes"/>
      <point x="544" y="1320"/>
      <point x="544" y="1310"/>
      <point x="554" y="1303" type="curve" smooth="yes"/>
      <point x="564" y="1295"/>
      <point x="573" y="1296"/>
      <point x="580" y="1308" type="curve" smooth="yes"/>
      <point x="655" y="1414"/>
      <point x="743" y="1478"/>
      <point x="811" y="1478" type="curve" smooth="yes"/>
      <point x="924" y="1478"/>
      <point x="970" y="1371"/>
      <point x="970" y="1216" type="curve" smooth="yes"/>
      <point x="970" y="796"/>
      <point x="633" y="20"/>
      <point x="348" y="20" type="curve" smooth="yes"/>
      <point x="265" y="20"/>
      <point x="205" y="90"/>
      <point x="205" y="203" type="curve" smooth="yes"/>
      <point x="205" y="838"/>
      <point x="1631" y="693"/>
      <point x="1631" y="1308" type="curve" smooth="yes"/>
      <point x="1631" y="1428"/>
      <point x="1558" y="1515"/>
      <point x="1456" y="1515" type="curve" smooth="yes"/>
      <point x="1124" y="1515"/>
      <point x="809" y="684"/>
      <point x="809" y="278" type="curve" smooth="yes"/>
      <point x="809" y="83"/>
      <point x="869" y="-17"/>
    </contour>
  </outline>
</glyph>
<glyph name="X.dec_ro" format="2">
  <advance width="1375"/>
  <outline>
    <contour>
      <point x="553" y="745" type="curve" smooth="yes"/>
      <point x="1116" y="745" type="line" smooth="yes"/>
      <point x="1123" y="745"/>
      <point x="1128" y="750"/>
      <point x="1131" y="763" type="curve" smooth="yes"/>
      <point x="1133" y="774"/>
      <point x="1130" y="780"/>
      <point x="1122" y="780" type="curve" smooth="yes"/>
      <point x="560" y="780" type="line" smooth="yes"/>
      <point x="552" y="780"/>
      <point x="548" y="775"/>
      <point x="546" y="764" type="curve" smooth="yes"/>
      <point x="543" y="753"/>
      <point x="546" y="745"/>
    </contour>
    <component base="X.dec"/>
  </outline>
</glyph>
<glyph name="Y.cur" format="2">
  <advance width="1240"/>
  <anchor x="1201" y="0" name="bottom"/>
  <anchor x="1039" y="1424" name="top"/>
  <outline>
    <contour>
      <point x="436" y="-1020" type="curve" smooth="yes"/>
      <point x="568" y="-1020"/>
      <point x="676" y="-892"/>
      <point x="758" y="-641" type="curve" smooth="yes"/>
      <point x="1450" y="1500" type="line" smooth="yes"/>
      <point x="1454" y="1511"/>
      <point x="1448" y="1515"/>
      <point x="1435" y="1515" type="curve" smooth="yes"/>
      <point x="1420" y="1515"/>
      <point x="1416" y="1511"/>
      <point x="1413" y="1500" type="curve" smooth="yes"/>
      <point x="1201" y="846" type="line"/>
      <point x="1024" y="425"/>
      <point x="766" y="123"/>
      <point x="541" y="123" type="curve" smooth="yes"/>
      <point x="404" y="123"/>
      <point x="379" y="221"/>
      <point x="440" y="411" type="curve" smooth="yes"/>
      <point x="745" y="1354" type="line" smooth="yes"/>
      <point x="778" y="1454"/>
      <point x="751" y="1513"/>
      <point x="679" y="1513" type="curve" smooth="yes"/>
      <point x="596" y="1513"/>
      <point x="474" y="1401"/>
      <point x="348" y="1213" type="curve" smooth="yes"/>
      <point x="340" y="1200"/>
      <point x="340" y="1193"/>
      <point x="350" y="1185" type="curve" smooth="yes"/>
      <point x="359" y="1179"/>
      <point x="368" y="1181"/>
      <point x="374" y="1190" type="curve" smooth="yes"/>
      <point x="493" y="1370"/>
      <point x="604" y="1476"/>
      <point x="674" y="1476" type="curve" smooth="yes"/>
      <point x="728" y="1476"/>
      <point x="731" y="1431"/>
      <point x="706" y="1355" type="curve" smooth="yes"/>
      <point x="401" y="413" type="line" smooth="yes"/>
      <point x="335" y="208"/>
      <point x="375" y="88"/>
      <point x="539" y="88" type="curve" smooth="yes"/>
      <point x="743" y="88"/>
      <point x="966" y="310"/>
      <point x="1131" y="631" type="curve"/>
      <point x="723" y="-627" type="line" smooth="yes"/>
      <point x="645" y="-865"/>
      <point x="550" y="-985"/>
      <point x="441" y="-985" type="curve" smooth="yes"/>
      <point x="388" y="-985"/>
      <point x="349" y="-940"/>
      <point x="349" y="-879" type="curve" smooth="yes"/>
      <point x="349" y="-694"/>
      <point x="505" y="-494"/>
      <point x="878" y="-200" type="curve" smooth="yes"/>
      <point x="988" y="-117"/>
      <point x="1115" y="-30"/>
      <point x="1260" y="56" type="curve" smooth="yes"/>
      <point x="1269" y="61"/>
      <point x="1271" y="70"/>
      <point x="1266" y="80" type="curve" smooth="yes"/>
      <point x="1261" y="91"/>
      <point x="1254" y="95"/>
      <point x="1244" y="89" type="curve" smooth="yes"/>
      <point x="1114" y="11"/>
      <point x="998" y="-66"/>
      <point x="895" y="-141" type="curve" smooth="yes"/>
      <point x="481" y="-457"/>
      <point x="308" y="-675"/>
      <point x="308" y="-879" type="curve" smooth="yes"/>
      <point x="308" y="-961"/>
      <point x="361" y="-1020"/>
    </contour>
  </outline>
</glyph>
<glyph name="Y.cur.ini" format="2">
  <advance width="1172"/>
  <anchor x="1152" y="0" name="bottom"/>
  <anchor x="1091" y="0" name="cnct"/>
  <anchor x="1038" y="1424" name="top"/>
  <outline>
    <contour>
      <point x="538" y="88" type="curve" smooth="yes"/>
      <point x="742" y="88"/>
      <point x="966" y="310"/>
      <point x="1131" y="631" type="curve"/>
      <point x="722" y="-627" type="line" smooth="yes"/>
      <point x="646" y="-864"/>
      <point x="547" y="-985"/>
      <point x="438" y="-985" type="curve" smooth="yes"/>
      <point x="386" y="-985"/>
      <point x="350" y="-940"/>
      <point x="350" y="-879" type="curve" smooth="yes"/>
      <point x="350" y="-854"/>
      <point x="308" y="-854"/>
      <point x="308" y="-879" type="curve" smooth="yes"/>
      <point x="308" y="-961"/>
      <point x="361" y="-1020"/>
      <point x="433" y="-1020" type="curve" smooth="yes"/>
      <point x="566" y="-1020"/>
      <point x="676" y="-892"/>
      <point x="757" y="-641" type="curve" smooth="yes"/>
      <point x="1450" y="1500" type="line" smooth="yes"/>
      <point x="1453" y="1511"/>
      <point x="1447" y="1515"/>
      <point x="1435" y="1515" type="curve" smooth="yes"/>
      <point x="1420" y="1515"/>
      <point x="1416" y="1511"/>
      <point x="1412" y="1500" type="curve" smooth="yes"/>
      <point x="1201" y="846" type="line"/>
      <point x="1023" y="425"/>
      <point x="766" y="123"/>
      <point x="541" y="123" type="curve" smooth="yes"/>
      <point x="403" y="123"/>
      <point x="378" y="221"/>
      <point x="440" y="411" type="curve" smooth="yes"/>
      <point x="745" y="1354" type="line" smooth="yes"/>
      <point x="777" y="1454"/>
      <point x="751" y="1513"/>
      <point x="678" y="1513" type="curve" smooth="yes"/>
      <point x="596" y="1513"/>
      <point x="473" y="1401"/>
      <point x="347" y="1213" type="curve" smooth="yes"/>
      <point x="340" y="1200"/>
      <point x="340" y="1193"/>
      <point x="350" y="1185" type="curve" smooth="yes"/>
      <point x="358" y="1179"/>
      <point x="367" y="1181"/>
      <point x="373" y="1190" type="curve" smooth="yes"/>
      <point x="492" y="1370"/>
      <point x="603" y="1476"/>
      <point x="673" y="1476" type="curve" smooth="yes"/>
      <point x="727" y="1476"/>
      <point x="731" y="1431"/>
      <point x="706" y="1355" type="curve" smooth="yes"/>
      <point x="401" y="413" type="line" smooth="yes"/>
      <point x="335" y="208"/>
      <point x="375" y="88"/>
    </contour>
  </outline>
</glyph>
<glyph name="Z.cur" format="2">
  <advance width="1195"/>
  <anchor x="513" y="0" name="bottom"/>
  <anchor x="736" y="784" name="center"/>
  <anchor x="896" y="1424" name="top"/>
  <outline>
    <contour>
      <point x="214" y="-1020" type="curve" smooth="yes"/>
      <point x="484" y="-1020"/>
      <point x="745" y="-375"/>
      <point x="745" y="90" type="curve" smooth="yes"/>
      <point x="745" y="266"/>
      <point x="691" y="354"/>
      <point x="563" y="385" type="curve"/>
      <point x="563" y="388" type="line"/>
      <point x="1103" y="634"/>
      <point x="1330" y="875"/>
      <point x="1330" y="1198" type="curve" smooth="yes"/>
      <point x="1330" y="1395"/>
      <point x="1211" y="1515"/>
      <point x="1015" y="1515" type="curve" smooth="yes"/>
      <point x="830" y="1515"/>
      <point x="654" y="1434"/>
      <point x="420" y="1241" type="curve" smooth="yes"/>
      <point x="410" y="1233"/>
      <point x="409" y="1224"/>
      <point x="416" y="1214" type="curve" smooth="yes"/>
      <point x="424" y="1205"/>
      <point x="431" y="1204"/>
      <point x="441" y="1213" type="curve" smooth="yes"/>
      <point x="666" y="1399"/>
      <point x="835" y="1478"/>
      <point x="1011" y="1478" type="curve" smooth="yes"/>
      <point x="1184" y="1478"/>
      <point x="1289" y="1370"/>
      <point x="1289" y="1193" type="curve" smooth="yes"/>
      <point x="1289" y="893"/>
      <point x="1066" y="664"/>
      <point x="535" y="415" type="curve" smooth="yes"/>
      <point x="493" y="395"/>
      <point x="494" y="354"/>
      <point x="525" y="350" type="curve" smooth="yes"/>
      <point x="651" y="335"/>
      <point x="704" y="259"/>
      <point x="704" y="90" type="curve" smooth="yes"/>
      <point x="704" y="-397"/>
      <point x="430" y="-985"/>
      <point x="219" y="-985" type="curve" smooth="yes"/>
      <point x="163" y="-985"/>
      <point x="121" y="-942"/>
      <point x="121" y="-877" type="curve" smooth="yes"/>
      <point x="121" y="-657"/>
      <point x="429" y="-311"/>
      <point x="1041" y="56" type="curve" smooth="yes"/>
      <point x="1050" y="61"/>
      <point x="1053" y="70"/>
      <point x="1048" y="80" type="curve" smooth="yes"/>
      <point x="1043" y="91"/>
      <point x="1035" y="95"/>
      <point x="1025" y="89" type="curve" smooth="yes"/>
      <point x="396" y="-289"/>
      <point x="80" y="-646"/>
      <point x="80" y="-877" type="curve" smooth="yes"/>
      <point x="80" y="-962"/>
      <point x="138" y="-1020"/>
    </contour>
  </outline>
</glyph>
<glyph name="a.mod.ini" format="2">
  <advance width="622"/>
  <anchor x="227" y="0" name="bottom"/>
  <anchor x="541" y="0" name="cnct"/>
  <anchor x="450" y="0" name="ogonek"/>
  <anchor x="387" y="500" name="top"/>
  <outline>
    <contour>
      <point x="162" y="-17" type="curve" smooth="yes"/>
      <point x="263" y="-17"/>
      <point x="377" y="98"/>
      <point x="501" y="365" type="curve"/>
      <point x="492" y="403" type="line"/>
      <point x="373" y="145"/>
      <point x="252" y="18"/>
      <point x="168" y="18" type="curve" smooth="yes"/>
      <point x="115" y="18"/>
      <point x="88" y="64"/>
      <point x="88" y="131" type="curve" smooth="yes"/>
      <point x="88" y="273"/>
      <point x="202" y="484"/>
      <point x="376" y="484" type="curve" smooth="yes"/>
      <point x="415" y="484"/>
      <point x="457" y="478"/>
      <point x="512" y="443" type="curve"/>
      <point x="523" y="474" type="line"/>
      <point x="483" y="503"/>
      <point x="428" y="519"/>
      <point x="382" y="519" type="curve" smooth="yes"/>
      <point x="172" y="519"/>
      <point x="50" y="278"/>
      <point x="50" y="131" type="curve" smooth="yes"/>
      <point x="50" y="40"/>
      <point x="95" y="-17"/>
    </contour>
    <contour>
      <point x="438" y="-17" type="curve" smooth="yes"/>
      <point x="466" y="-17"/>
      <point x="471" y="18"/>
      <point x="450" y="18" type="curve" smooth="yes"/>
      <point x="415" y="18"/>
      <point x="412" y="44"/>
      <point x="431" y="101" type="curve" smooth="yes"/>
      <point x="561" y="495" type="line" smooth="yes"/>
      <point x="565" y="506"/>
      <point x="560" y="515"/>
      <point x="546" y="515" type="curve" smooth="yes"/>
      <point x="532" y="515"/>
      <point x="526" y="511"/>
      <point x="522" y="500" type="curve" smooth="yes"/>
      <point x="393" y="100" type="line" smooth="yes"/>
      <point x="366" y="16"/>
      <point x="392" y="-17"/>
    </contour>
  </outline>
</glyph>
<glyph name="acutecomb.case" format="2">
  <anchor x="380" y="1425" name="_top"/>
  <anchor x="491" y="1768" name="top"/>
  <outline>
    <contour>
      <point x="381" y="1580" type="curve" smooth="yes"/>
      <point x="385" y="1580"/>
      <point x="388" y="1583"/>
      <point x="393" y="1586" type="curve" smooth="yes"/>
      <point x="601" y="1740" type="line" smooth="yes"/>
      <point x="605" y="1743"/>
      <point x="605" y="1746"/>
      <point x="605" y="1750" type="curve" smooth="yes"/>
      <point x="605" y="1760"/>
      <point x="594" y="1773"/>
      <point x="584" y="1773" type="curve" smooth="yes"/>
      <point x="579" y="1773"/>
      <point x="576" y="1769"/>
      <point x="571" y="1765" type="curve" smooth="yes"/>
      <point x="366" y="1609" type="line" smooth="yes"/>
      <point x="363" y="1605"/>
      <point x="363" y="1601"/>
      <point x="363" y="1599" type="curve" smooth="yes"/>
      <point x="363" y="1591"/>
      <point x="374" y="1580"/>
    </contour>
  </outline>
</glyph>
<glyph name="b.ful.fin" format="2">
  <advance width="604"/>
  <anchor x="245" y="0" name="bottom"/>
  <anchor x="326" y="250" name="center"/>
  <anchor x="408" y="500" name="top"/>
  <outline>
    <contour>
      <point x="204" y="-19" type="curve" smooth="yes"/>
      <point x="381" y="-19"/>
      <point x="541" y="245"/>
      <point x="541" y="415" type="curve" smooth="yes"/>
      <point x="541" y="446"/>
      <point x="538" y="478"/>
      <point x="529" y="500" type="curve" smooth="yes"/>
      <point x="524" y="514"/>
      <point x="518" y="519"/>
      <point x="510" y="519" type="curve" smooth="yes"/>
      <point x="498" y="519"/>
      <point x="493" y="511"/>
      <point x="495" y="498" type="curve" smooth="yes"/>
      <point x="503" y="463"/>
      <point x="506" y="434"/>
      <point x="506" y="408" type="curve" smooth="yes"/>
      <point x="506" y="251"/>
      <point x="349" y="15"/>
      <point x="213" y="15" type="curve" smooth="yes"/>
      <point x="130" y="15"/>
      <point x="120" y="86"/>
      <point x="154" y="189" type="curve" smooth="yes"/>
      <point x="581" y="1501" type="line" smooth="yes"/>
      <point x="585" y="1513"/>
      <point x="581" y="1516"/>
      <point x="569" y="1516" type="curve" smooth="yes"/>
      <point x="556" y="1516"/>
      <point x="549" y="1513"/>
      <point x="545" y="1501" type="curve" smooth="yes"/>
      <point x="118" y="189" type="line" smooth="yes"/>
      <point x="76" y="61"/>
      <point x="113" y="-19"/>
    </contour>
  </outline>
</glyph>
